<svg width="512" height="512" xmlns="http://www.w3.org/2000/svg">

 <g>
  <title>background</title>
  <rect fill="none" id="canvas_background" height="402" width="582" y="-1" x="-1"/>
 </g>
 <g>
  <title>Layer 1</title>
  <path fill="#000000" id="svg_3" d="m403.6,240.4c0.1,9.2 -0.8,17.9 -2.4,26.5c-3.9,21.4 -12.1,41.1 -24.5,58.9c-5.5,7.9 -11.7,15.2 -18.6,21.9c-6.9,6.7 -14.4,12.7 -22.5,17.9c-1.8,1.1 -1.8,1.1 -0.9,2.9c3,6.1 7.7,10.7 13.2,14.5c6.5,4.7 13.7,8 21.3,10.4c0.5,0.1 0.9,0.3 1.4,0.5c0.6,0.2 0.9,0.6 0.9,1.3c0,0.3 0,0.6 0,0.9c0,7.2 0,14.4 0,21.5c0,1.9 0,1.9 -1.9,2.3c-8.5,1.6 -17.2,2.5 -25.9,1.7c-11.9,-1 -22.9,-4.5 -32.6,-11.9c-6.2,-4.7 -11.2,-10.5 -15.4,-16.9c-1.4,-2.1 -2.7,-4.3 -4,-6.5c-0.8,-1.4 -1,-1.5 -2.5,-1.2c-4.6,1.2 -9.3,1.9 -14,2.6c-8.2,1.1 -16.4,1.4 -24.7,1.1c-5.9,-0.2 -11.8,-0.8 -17.6,-1.7c-7.4,-1.2 -14.8,-2.9 -21.9,-5.3c-15.4,-5.1 -29.6,-12.4 -42.5,-22.2c-17.1,-12.9 -30.8,-28.7 -41.1,-47.5c-6.2,-11.2 -10.8,-23 -13.9,-35.4c-2.2,-8.8 -3.6,-17.7 -4.2,-26.7c-0.3,-4.3 -0.6,-8.6 -0.5,-13c0.3,-6.9 0.8,-13.7 1.8,-20.6c1.1,-7 2.7,-13.9 4.7,-20.8c2,-6.5 4.4,-12.9 7.2,-19.1c5.1,-11.1 11.5,-21.4 19.1,-30.9c12.5,-15.6 27.4,-28.1 44.9,-37.7c8.6,-4.7 17.5,-8.4 26.8,-11.3c7.1,-2.2 14.3,-3.8 21.6,-4.8c6.6,-0.9 13.1,-1.5 19.7,-1.6c6.8,-0.1 13.5,0.4 20.2,1.2c8.7,1.1 17.2,3 25.5,5.6c5.9,1.9 11.6,4.1 17.2,6.7c12.3,5.7 23.6,13 33.9,21.9c14.1,12.2 25.6,26.6 34.4,43c5.9,11.1 10.3,22.8 13.3,34.9c2.2,9 3.6,18.1 4,27.4c0.5,3.6 0.4,6.8 0.5,9.5z" class="st1"/>
  <path fill="#ffffff" id="svg_4" d="m182.6,240.4c0,-6.9 0.1,-13.8 0,-20.7c-0.1,-7.9 0.9,-15.7 2.6,-23.5c2.8,-12.5 7.6,-24.1 14.7,-34.7c7.7,-11.4 17.4,-20.6 29.7,-26.8c8.6,-4.3 17.7,-6.6 27.3,-6.7c12.3,-0.1 23.5,3.3 33.9,9.7c12.1,7.5 21.2,17.7 28.2,30c5.6,9.8 9.3,20.2 11.5,31.3c1.5,7.7 2.2,15.4 2.2,23.3c0,12.8 0.1,25.6 0,38.4c-0.2,18.1 -4.3,35.2 -13,51.1c-1.9,3.4 -4,6.7 -6.3,9.9c-1.3,1.9 -1.3,1.9 -2.9,0.3c-4.8,-4.8 -10,-9.1 -15.6,-12.8c-7.8,-5.1 -16.1,-8.9 -25,-11.5c-9.8,-2.9 -19.8,-3.9 -29.9,-3.6c-1.6,0 -1.7,0.1 -1.7,1.7c0,8.7 0,17.5 0,26.2c0,1.1 0.4,1.6 1.5,1.8c15.3,2.7 25.9,11.8 34.1,24.4c0.1,0.2 0.2,0.4 0.3,0.6c0.6,1.1 0.5,1.3 -0.7,1.6c-3.9,1.1 -7.9,1.7 -12,2c-17.1,1 -32.1,-4.6 -45.3,-15.3c-11.8,-9.7 -20,-22 -25.8,-36c-4.3,-10.4 -6.6,-21.3 -7.6,-32.4c-0.1,-1.6 -0.2,-3.3 -0.2,-4.9c0,-7.9 0,-15.6 0,-23.4z" class="st2"/>
 </g>
</svg>