<svg height="494pt" viewBox="-43 0 494 494.075" width="494pt" xmlns="http://www.w3.org/2000/svg"><path d="m364.417969 163.003906c-11.871094 8.234375-25.632813 13.328125-40 14.8125-2.976563.304688-5.96875.457032-8.960938.457032-42.5625.003906-78.742187-31.082032-85.152343-73.160157-6.410157-42.074219 18.875-82.523437 59.503906-95.195312 40.632812-12.671875 84.425781 6.230469 103.074218 44.492187 18.644532 38.257813 6.550782 84.402344-28.464843 108.59375zm0 0" fill="#00efd1"/><path d="m364.417969 163.003906v325.140625h-317.929688v-30h277.929688v-280.328125c14.367187-1.484375 28.128906-6.578125 40-14.8125zm0 0" fill="#fedb41"/><path d="m324.417969 177.816406v280.328125h-317.929688v-351.910156h75.097657v-78.148437h176.28125c-26.53125 23.847656-35.613282 61.585937-22.839844 94.894531 12.773437 33.308593 44.757812 55.296875 80.429687 55.292969 2.992188 0 5.984375-.152344 8.960938-.457032zm0 0" fill="#00acea"/><path d="m81.585938 28.085938v78.148437h-75.097657zm0 0" fill="#fedb41"/><g fill="#083863"><path d="m265.476562 241.074219h-120.039062c-3.3125 0-6 2.6875-6 6 0 3.316406 2.6875 6 6 6h120.039062c3.316407 0 6-2.683594 6-6 0-3.3125-2.683593-6-6-6zm0 0"/><path d="m265.476562 281.074219h-200.039062c-3.3125 0-6 2.6875-6 6 0 3.316406 2.6875 6 6 6h200.039062c3.316407 0 6-2.683594 6-6 0-3.3125-2.683593-6-6-6zm0 0"/><path d="m265.476562 321.074219h-200.039062c-3.3125 0-6 2.6875-6 6 0 3.316406 2.6875 6 6 6h200.039062c3.316407 0 6-2.683594 6-6 0-3.3125-2.683593-6-6-6zm0 0"/><path d="m265.476562 361.074219h-200.039062c-3.3125 0-6 2.6875-6 6 0 3.316406 2.6875 6 6 6h200.039062c3.316407 0 6-2.683594 6-6 0-3.3125-2.683593-6-6-6zm0 0"/><path d="m315.457031 0c-21.910156.101562-43.085937 7.917969-59.808593 22.074219h-174.0625c-1.007813 0-2 .257812-2.882813.746093-.03125.015626-.0625.039063-.09375.058594-.136719.078125-.273437.160156-.402344.25-.054687.039063-.109375.085938-.167969.128906-.097656.070313-.199218.144532-.300781.226563-.0625.050781-.117187.109375-.179687.164063-.085938.078124-.171875.15625-.253906.238281-.011719.015625-.027344.027343-.042969.042969l-75.101563 78.144531c-.015625.015625-.023437.035156-.039062.054687-.242188.253906-.460938.53125-.652344.824219-.019531.023437-.035156.050781-.050781.078125-.1875.296875-.351563.613281-.488281.941406-.007813.019532-.011719.039063-.019532.058594-.136718.339844-.238281.6875-.308594 1.042969 0 .015625-.230468.03125-.230468.046875-.144532.359375-.257813.734375-.3320315 1.113281v351.910156c0 3.316407 3.1367185 5.929688 6.4492185 5.929688h33.550781v24.070312c0 3.316407 3.136719 5.929688 6.449219 5.929688h317.929688c1.542969 0 3.023437-.632813 4.085937-1.753907 1.0625-1.125 1.617188-2.632812 1.535156-4.175781v-322.070312c24-17.351563 37.359376-44.753907 37.359376-73.933594.03125-50.824219-41.117188-92.0625-91.941407-92.140625zm-239.417969 42.988281v57.085938h-55.464843zm-64 69.085938h69.546876c3.316406 0 6.453124-2.523438 6.453124-5.839844v-72.160156h155.882813c-22.378906 27.5625-26.925781 65.53125-11.695313 97.601562 15.234376 32.066407 47.539063 52.53125 83.039063 52.597657.980469 0 1.773437-.019532 2.773437-.050782v267.851563h-306zm40 370v-18h272.378907c1.542969 0 3.023437-.632813 4.085937-1.753907 1.0625-1.125 1.617188-2.632812 1.535156-4.175781v-275.085937c10-1.609375 20-4.800782 28-9.414063v308.429688zm308.960938-324c-30.339844 20.960937-71.0625 18.511719-98.671875-5.933594-27.605469-24.445313-34.96875-64.570313-17.839844-97.226563 17.128907-32.652343 54.332031-49.402343 90.136719-40.582031 35.800781 8.824219 60.964844 40.9375 60.960938 77.8125.027343 26.332031-12.90625 50.988281-34.585938 65.929688zm0 0"/><path d="m345.539062 52.074219c3.3125 0 6-2.683594 6-6 0-3.3125-2.6875-6-6-6h-60.171874c-3.3125 0-6 2.6875-6 6 0 3.316406 2.6875 6 6 6h17.21875c8.660156.089843 16.277343 5.742187 18.875 14h-36.097657c-3.316406 0-6 2.6875-6 6 0 3.316406 2.683594 6 6 6h36.097657c-.949219 3.054687-2.621094 5.835937-4.871094 8.109375-3.699219 3.75-8.738282 5.871094-14.003906 5.890625h-17.21875c-2.425782-.105469-4.65625 1.320312-5.578126 3.566406-.921874 2.242187-.339843 4.828125 1.457032 6.457031l43.03125 40.613282c2.421875 2.253906 6.210937 2.128906 8.480468-.28125 1.089844-1.113282 1.683594-2.625 1.636719-4.183594-.042969-1.558594-.722656-3.03125-1.875-4.078125l-32.070312-30.09375h2.136719c8.453124-.007813 16.550781-3.394531 22.492187-9.40625 4.476563-4.554688 7.519531-10.324219 8.753906-16.59375h11.707031c3.3125 0 6-2.683594 6-6 0-3.3125-2.6875-6-6-6h-11.714843c-1.011719-5.097657-3.195313-9.890625-6.375-14zm0 0"/></g></svg>