<svg height="487pt" viewBox="-48 0 487 487.96936" width="487pt" xmlns="http://www.w3.org/2000/svg"><path d="m232.566406 436.058594c-15.15625-32.199219-7.21875-70.542969 19.476563-94.078125 26.695312-23.539063 65.730469-26.613281 95.78125-7.542969 30.050781 19.066406 43.890625 55.691406 33.964843 89.871094-9.925781 34.175781-41.234374 57.6875-76.824218 57.691406-31.027344.121094-59.292969-17.816406-72.398438-45.941406zm0 0" fill="#00efd1"/><path d="m323.933594 324.25v.019531c-29.9375-7.292969-61.40625 3.25-80.90625 27.109375-19.5 23.855469-23.570313 56.792969-10.460938 84.679688h-226.5625v-430.058594h242.832032v78.148438h75.097656zm0 0" fill="#00acea"/><path d="m248.835938 6 75.097656 78.148438h-75.097656zm0 0" fill="#fedb41"/><g fill="#083863"><path d="m6.003906 442h222.863282c18.363281 35.003906 58.253906 52.945312 96.625 43.460938 38.375-9.484376 65.308593-43.949219 65.246093-83.476563 0-38.214844-24.253906-71.378906-61.253906-82.28125v-235.554687c.082031-1.519532-.4375-3.015626-1.449219-4.15625l-74.988281-78.148438c-1.085937-1.175781-2.613281-1.84375-4.210937-1.84375h-242.832032c-3.3125 0-5.519531 2.6875-5.519531 6v430.058594c0 3.316406 2.207031 5.941406 5.519531 5.941406zm372.960938-40c-.003906 34.652344-24.050782 64.664062-57.871094 72.222656-33.816406 7.554688-68.351562-9.367187-83.105469-40.722656-4.65625-9.847656-7.054687-20.609375-7.023437-31.5.011718-22.710938 10.449218-44.15625 28.308594-58.183594 17.859374-14.027344 41.167968-19.085937 63.234374-13.714844h.011719c33.1875 8.011719 56.539063 37.757813 56.445313 71.898438zm-124.480469-381.101562 55.363281 57.101562h-55.363281zm-242-8.898438h230v72.148438c0 3.316406 3.039063 5.851562 6.351563 5.851562h68.648437v226.976562c-4.214844-.660156-8.476563-.988281-12.746094-.976562-11.71875-.050781-23.320312 2.328125-34.074219 6.980469-1.027343-1.796875-2.917968-2.929688-4.988281-2.980469h-207.222656c-3.3125 0-6 2.6875-6 6s2.6875 6 6 6h196.292969c-10.21875 8-18.761719 17-24.929688 28h-171.363281c-3.3125 0-6 2.6875-6 6s2.6875 6 6 6h165.820313c-3.457032 9.574219-5.253907 19.667969-5.308594 29.84375-.019532 9.582031 1.5625 19.097656 4.679687 28.15625h-211.160156zm0 0"/><path d="m58.453125 292h207.222656c3.3125 0 6-2.6875 6-6s-2.6875-6-6-6h-207.222656c-3.3125 0-6 2.6875-6 6s2.6875 6 6 6zm0 0"/><path d="m58.453125 252h207.222656c3.3125 0 6-2.6875 6-6s-2.6875-6-6-6h-207.222656c-3.3125 0-6 2.6875-6 6s2.6875 6 6 6zm0 0"/><path d="m58.453125 212h207.222656c3.3125 0 6-2.6875 6-6s-2.6875-6-6-6h-207.222656c-3.3125 0-6 2.6875-6 6s2.6875 6 6 6zm0 0"/><path d="m58.453125 172h207.222656c3.3125 0 6-2.6875 6-6s-2.6875-6-6-6h-207.222656c-3.3125 0-6 2.6875-6 6s2.6875 6 6 6zm0 0"/><path d="m58.453125 132h107.222656c3.3125 0 6-2.6875 6-6s-2.6875-6-6-6h-107.222656c-3.3125 0-6 2.6875-6 6s2.6875 6 6 6zm0 0"/><path d="m279.394531 357c-3.3125 0-6 2.6875-6 6s2.6875 6 6 6h14.640625c6.515625-.039062 12.378906 3.933594 14.757813 10h-29.398438c-3.316406 0-6 2.6875-6 6s2.683594 6 6 6h29.410157c-.789063 1.992188-1.980469 3.796875-3.5 5.308594-2.980469 3.003906-7.039063 4.695312-11.269532 4.691406h-14.640625c-2.433593-.078125-4.65625 1.363281-5.578125 3.621094-.917968 2.253906-.335937 4.839844 1.457032 6.484375l36.582031 34.519531c2.425781 2.226562 6.191406 2.089844 8.445312-.308594 2.257813-2.398437 2.167969-6.167968-.207031-8.453125l-25.613281-24.199219c7.238281-.042968 14.175781-2.925781 19.308593-8.035156 3.746094-3.742187 6.359376-8.464844 7.535157-13.628906h9.210937c3.3125 0 6-2.6875 6-6s-2.6875-6-6-6h-9.214844c-.722656-3.605469-2.207031-7.015625-4.359374-10h13.574218c3.3125 0 6-2.6875 6-6s-2.6875-6-6-6zm0 0"/></g></svg>