<svg width="96" height="96" xmlns="http://www.w3.org/2000/svg">

 <g>
  <title>background</title>
  <rect fill="none" id="canvas_background" height="402" width="582" y="-1" x="-1"/>
 </g>
 <g>
  <title>Layer 1</title>
  <path id="svg_1" d="m60,0l-40,0c-6.627,0 -12,5.373 -12,12l0,72c0,6.627 5.373,12 12,12l55.875,0c6.627,0 12.125,-5.373 12.125,-12l0,-56c-4,-4 -22,-22 -28,-28zm0,11.178l16.709,16.822l-16.709,0l0,-16.822zm15.875,76.822l-55.875,0c-2.206,0 -4,-1.794 -4,-4l0,-72c0,-2.206 1.794,-4 4,-4l32,0l0,20l0,8l8,0l20,0l0,48c0,2.168 -1.889,4 -4.125,4z"/>
  <rect stroke="#000" id="svg_2" height="21.294626" width="38.035684" y="23.147901" x="1.727717" stroke-width="2.5" fill="#fff"/>
  <text stroke="#000" transform="matrix(0.5967751965588989,0,0,0.6744175325550045,5.176984080355243,0.8351959024188247) " xml:space="preserve" text-anchor="start" font-family="Helvetica, Arial, sans-serif" font-size="24" id="svg_4" y="57.850815" x="-0.101123" stroke-opacity="null" fill="#000000">FILE</text>
 </g>
</svg>