<svg height="512pt" viewBox="-13 0 511 512" width="512pt" xmlns="http://www.w3.org/2000/svg"><path d="m449.890625 256c0 114.324219-92.675781 207-207 207-114.320313 0-207-92.675781-207-207s92.679687-207 207-207c114.324219 0 207 92.675781 207 207zm0 0" fill="#f0c48a"/><path d="m379.289062 279.851562v-47.703124h-38.742187c-2.464844-10.132813-6.449219-19.675782-11.726563-28.34375l27.386719-27.386719-33.734375-33.734375-27.382812 27.386718c-8.671875-5.277343-18.210938-9.261718-28.34375-11.726562v-38.742188h-47.707032v38.742188c-10.132812 2.46875-19.671874 6.449219-28.34375 11.726562l-27.386718-27.382812-33.730469 33.730469 27.382813 27.386719c-5.277344 8.671874-9.257813 18.210937-11.726563 28.34375h-38.742187v47.707031h38.742187c2.46875 10.132812 6.449219 19.671875 11.726563 28.34375l-27.382813 27.382812 33.730469 33.734375 27.386718-27.386718c8.667969 5.28125 18.210938 9.261718 28.34375 11.726562v38.742188h47.707032v-38.742188c10.132812-2.464844 19.671875-6.445312 28.34375-11.722656l27.382812 27.382812 33.734375-33.730468-27.386719-27.386719c5.28125-8.671875 9.261719-18.210938 11.726563-28.34375h38.742187zm-136.398437 29.300782c-29.355469 0-53.152344-23.796875-53.152344-53.152344s23.796875-53.152344 53.152344-53.152344 53.152344 23.796875 53.152344 53.152344-23.796875 53.152344-53.152344 53.152344zm0 0" fill="#fd919e"/><path d="m266.746094 398.261719h-47.707032c-3.238281 0-5.863281-2.625-5.863281-5.863281v-34.238282c-7.5-2.175781-14.707031-5.15625-21.519531-8.902344l-24.203125 24.203126c-1.097656 1.097656-2.589844 1.714843-4.144531 1.714843-1.550782 0-3.042969-.617187-4.144532-1.714843l-33.734374-33.734376c-2.289063-2.289062-2.289063-6 0-8.289062l24.203124-24.203125c-3.746093-6.808594-6.726562-14.019531-8.902343-21.519531h-34.238281c-3.238282 0-5.863282-2.625-5.863282-5.863282v-47.703124c0-3.238282 2.625-5.863282 5.863282-5.863282h34.238281c2.175781-7.5 5.15625-14.710937 8.902343-21.519531l-24.199218-24.203125c-2.292969-2.289062-2.292969-6 0-8.289062l33.730468-33.734376c2.289063-2.289062 6.003907-2.289062 8.292969 0l24.199219 24.199219c6.8125-3.746093 14.019531-6.726562 21.519531-8.898437v-34.238282c0-3.238281 2.625-5.863281 5.863281-5.863281h47.707032c3.238281 0 5.863281 2.625 5.863281 5.863281v34.238282c7.5 2.171875 14.707031 5.152344 21.519531 8.898437l24.199219-24.199219c2.289063-2.289062 6.003906-2.289062 8.292969 0l33.734375 33.734376c1.097656 1.097656 1.714843 2.589843 1.714843 4.144531 0 1.554687-.617187 3.046875-1.714843 4.144531l-24.203125 24.203125c3.746094 6.808594 6.726562 14.015625 8.902344 21.519531h34.238281c3.238281 0 5.863281 2.625 5.863281 5.863282v47.703124c0 3.238282-2.625 5.863282-5.863281 5.863282h-34.238281c-2.175782 7.5-5.15625 14.710937-8.902344 21.519531l24.203125 24.203125c1.097656 1.097656 1.714843 2.589844 1.714843 4.144531 0 1.554688-.617187 3.046875-1.714843 4.144531l-33.734375 33.734376c-2.289063 2.289062-6.003906 2.289062-8.292969 0l-24.199219-24.199219c-6.8125 3.746093-14.019531 6.726562-21.519531 8.898437v34.238282c0 3.238281-2.625 5.863281-5.863281 5.863281zm-41.84375-11.726563h35.980468v-32.878906c0-2.703125 1.847657-5.058594 4.476563-5.695312 9.453125-2.300782 18.425781-6.015626 26.679687-11.039063 2.3125-1.40625 5.28125-1.050781 7.195313.863281l23.238281 23.238282 25.441406-25.441407-23.238281-23.238281c-1.910156-1.914062-2.269531-4.886719-.863281-7.195312 5.023438-8.25 8.738281-17.230469 11.039062-26.683594.640626-2.625 2.992188-4.476563 5.695313-4.476563h32.882813v-35.980469h-32.882813c-2.703125 0-5.054687-1.847656-5.695313-4.476562-2.300781-9.453125-6.015624-18.429688-11.039062-26.679688-1.40625-2.3125-1.046875-5.28125.863281-7.195312l23.238281-23.242188-25.441406-25.441406-23.238281 23.242188c-1.914063 1.910156-4.882813 2.265625-7.195313.859375-8.25-5.019531-17.226562-8.734375-26.679687-11.035157-2.628906-.640624-4.476563-2.992187-4.476563-5.695312v-32.878906h-35.980468v32.878906c0 2.703125-1.847656 5.054688-4.476563 5.695312-9.453125 2.300782-18.429687 6.015626-26.679687 11.035157-2.3125 1.410156-5.28125 1.054687-7.195313-.859375l-23.238281-23.242188-25.445312 25.441406 23.242187 23.242188c1.910156 1.910156 2.269531 4.882812.863281 7.195312-5.023437 8.25-8.738281 17.226563-11.039062 26.679688-.640625 2.628906-2.992188 4.476562-5.695313 4.476562h-32.882812v35.980469h32.882812c2.703125 0 5.054688 1.851563 5.695313 4.476563 2.300781 9.457031 6.015625 18.433594 11.039062 26.683594 1.40625 2.308593 1.046875 5.28125-.863281 7.191406l-23.242187 23.242187 25.445312 25.441407 23.238281-23.242188c1.914063-1.910156 4.882813-2.265625 7.195313-.859375 8.25 5.023437 17.226562 8.734375 26.679687 11.039063 2.628907.636718 4.476563 2.988281 4.476563 5.695312zm17.988281-71.519531c-32.539063 0-59.011719-26.476563-59.011719-59.015625s26.472656-59.015625 59.011719-59.015625c32.542969 0 59.015625 26.476563 59.015625 59.015625s-26.472656 59.015625-59.015625 59.015625zm0-106.304687c-26.074219 0-47.289063 21.214843-47.289063 47.289062s21.214844 47.289062 47.289063 47.289062c26.078125 0 47.289063-21.214843 47.289063-47.289062s-21.210938-47.289062-47.289063-47.289062zm0 0" fill="#4c4372"/><path d="m367.539062 289.449219 48.707032 48.703125c1.972656-10.886719 10.6875-19.421875 21.667968-21.117188l-48.980468-48.980468-29.339844-8.5zm0 0" fill="#d3e6f8"/><path d="m441.929688 368.949219c-5.160157 0-9.964844-1.503907-14.015626-4.085938v71.8125c4.609376-2.113281 9.726563-3.296875 15.128907-3.296875 5.398437 0 10.519531 1.183594 15.128906 3.296875v-73.398437c-4.460937 3.546875-10.101563 5.671875-16.242187 5.671875zm0 0" fill="#d3e6f8"/><path d="m479.421875 469.757812c0 20.089844-16.289063 36.378907-36.378906 36.378907-20.09375 0-36.382813-16.289063-36.382813-36.378907 0-20.09375 16.289063-36.378906 36.382813-36.378906 20.089843 0 36.378906 16.285156 36.378906 36.378906zm0 0" fill="#7babf1"/><path d="m457.203125 469.757812c0 7.820313-6.339844 14.164063-14.160156 14.164063-7.824219 0-14.164063-6.34375-14.164063-14.164063 0-7.824218 6.339844-14.164062 14.164063-14.164062 7.820312 0 14.160156 6.339844 14.160156 14.164062zm0 0" fill="#4c4372"/><path d="m468.042969 342.835938c0 14.421874-11.691407 26.113281-26.113281 26.113281-14.421876 0-26.109376-11.691407-26.109376-26.113281 0-14.421876 11.6875-26.109376 26.109376-26.109376 14.421874 0 26.113281 11.6875 26.113281 26.109376zm0 0" fill="#7babf1"/><path d="m379.226562 277.761719 45.480469 45.476562c3.644531-3.210937 8.183594-5.429687 13.207031-6.207031l-48.980468-48.976562-29.339844-8.5 3.605469 13.5625zm0 0" fill="#a4cff2"/><path d="m444.007812 368.859375v64.542969c5.042969.132812 9.828126 1.289062 14.160157 3.273437v-73.398437c-3.949219 3.144531-8.828125 5.160156-14.160157 5.582031zm0 0" fill="#a4cff2"/><g fill="#4c4372"><path d="m443.042969 512c-23.292969 0-42.242188-18.949219-42.242188-42.242188 0-23.292968 18.949219-42.242187 42.242188-42.242187s42.242187 18.949219 42.242187 42.242187c0 23.292969-18.949218 42.242188-42.242187 42.242188zm0-72.761719c-16.828125 0-30.519531 13.691407-30.519531 30.519531 0 16.828126 13.691406 30.515626 30.519531 30.515626s30.515625-13.6875 30.515625-30.515626c0-16.828124-13.691406-30.519531-30.515625-30.519531zm0 0"/><path d="m416.246094 344.015625c-1.53125 0-3.03125-.601563-4.144532-1.714844l-48.707031-48.707031c-.730469-.730469-1.253906-1.640625-1.519531-2.640625l-7.949219-29.894531c-.542969-2.042969.058594-4.21875 1.566407-5.695313 1.511718-1.476562 3.703124-2.027343 5.730468-1.441406l29.34375 8.5c.949219.273437 1.8125.785156 2.511719 1.484375l48.980469 48.980469c1.558594 1.5625 2.113281 3.867187 1.425781 5.96875-.6875 2.097656-2.496094 3.632812-4.675781 3.96875-8.507813 1.316406-15.257813 7.894531-16.792969 16.371093-.390625 2.148438-1.9375 3.902344-4.019531 4.550782-.574219.183594-1.164063.269531-1.75.269531zm-43.445313-57.597656 41.074219 41.074219c3.023438-5.539063 7.632812-10.0625 13.21875-12.988282l-41.238281-41.238281-17.929688-5.195313zm0 0"/><path d="m427.914062 442.535156c-1.105468 0-2.207031-.3125-3.167968-.929687-1.679688-1.078125-2.695313-2.9375-2.695313-4.933594v-71.8125c0-2.140625 1.167969-4.109375 3.042969-5.140625 1.878906-1.027344 4.167969-.953125 5.972656.199219 3.246094 2.070312 7.003906 3.167969 10.863282 3.167969 4.621093 0 8.972656-1.519532 12.589843-4.398438 1.761719-1.398438 4.167969-1.667969 6.199219-.691406 2.023438.976562 3.3125 3.03125 3.3125 5.28125v73.394531c0 1.996094-1.015625 3.855469-2.695312 4.933594-1.679688 1.078125-3.792969 1.230469-5.609376.398437-4.003906-1.835937-8.273437-2.765625-12.6875-2.765625-4.414062 0-8.679687.929688-12.683593 2.765625-.777344.355469-1.613281.53125-2.441407.53125zm5.863282-68.777344v54.777344c6.039062-1.355468 12.488281-1.355468 18.527344 0v-55.464844c-5.921876 2.035157-12.503907 2.273438-18.527344.6875zm0 0"/><path d="m441.929688 374.8125c-17.628907 0-31.972657-14.34375-31.972657-31.976562 0-17.628907 14.34375-31.972657 31.972657-31.972657 17.632812 0 31.976562 14.34375 31.976562 31.972657 0 17.632812-14.34375 31.976562-31.976562 31.976562zm0-52.226562c-11.164063 0-20.246094 9.085937-20.246094 20.25 0 11.167968 9.082031 20.25 20.246094 20.25 11.167968 0 20.25-9.082032 20.25-20.25 0-11.164063-9.082032-20.25-20.25-20.25zm0 0"/><path d="m450.320312 342.835938c0 4.636718-3.753906 8.390624-8.390624 8.390624-4.632813 0-8.390626-3.753906-8.390626-8.390624 0-4.632813 3.757813-8.390626 8.390626-8.390626 4.636718 0 8.390624 3.757813 8.390624 8.390626zm0 0"/></g><path d="m118.242188 222.550781-48.703126-48.703125c-1.972656 10.886719-10.6875 19.421875-21.667968 21.117188l48.980468 48.980468 29.339844 8.5zm0 0" fill="#d3e6f8"/><path d="m43.851562 143.050781c5.160157 0 9.96875 1.503907 14.019532 4.085938v-71.8125c-4.609375 2.113281-9.730469 3.296875-15.128906 3.296875-5.398438 0-10.519532-1.183594-15.128907-3.296875v73.398437c4.460938-3.546875 10.101563-5.671875 16.238281-5.671875zm0 0" fill="#d3e6f8"/><path d="m79.121094 42.242188c0 20.09375-16.285156 36.378906-36.378906 36.378906s-36.378907-16.285156-36.378907-36.378906c0-20.089844 16.285157-36.378907 36.378907-36.378907s36.378906 16.289063 36.378906 36.378907zm0 0" fill="#7babf1"/><path d="m56.90625 42.242188c0 7.824218-6.34375 14.164062-14.164062 14.164062-7.820313 0-14.164063-6.339844-14.164063-14.164062 0-7.820313 6.34375-14.164063 14.164063-14.164063 7.820312 0 14.164062 6.34375 14.164062 14.164063zm0 0" fill="#4c4372"/><path d="m69.964844 169.164062c0 14.421876-11.691406 26.109376-26.113282 26.109376-14.417968 0-26.109374-11.6875-26.109374-26.109376 0-14.421874 11.691406-26.113281 26.109374-26.113281 14.421876 0 26.113282 11.691407 26.113282 26.113281zm0 0" fill="#7babf1"/><path d="m107.984375 232.8125 4.132813 15.554688 14.074218 4.078124-7.949218-29.894531-48.703126-48.703125c-.945312 5.214844-3.449218 9.878906-6.996093 13.519532zm0 0" fill="#a4cff2"/><path d="m43.539062 78.601562v64.464844c.105469-.003906.207032-.015625.3125-.015625 5.160157 0 9.96875 1.503907 14.019532 4.085938v-71.8125c-4.378906 2.007812-9.226563 3.164062-14.332032 3.277343zm0 0" fill="#a4cff2"/><path d="m42.742188 84.484375c-23.292969 0-42.242188-18.949219-42.242188-42.242187 0-23.292969 18.949219-42.242188 42.242188-42.242188 23.292968 0 42.242187 18.949219 42.242187 42.242188 0 23.292968-18.949219 42.242187-42.242187 42.242187zm0-72.757813c-16.828126 0-30.515626 13.6875-30.515626 30.515626 0 16.828124 13.6875 30.519531 30.515626 30.519531 16.828124 0 30.519531-13.691407 30.519531-30.519531 0-16.828126-13.691407-30.515626-30.519531-30.515626zm0 0" fill="#4c4372"/><path d="m126.191406 258.308594c-.546875 0-1.09375-.078125-1.632812-.230469l-29.339844-8.5c-.949219-.277344-1.816406-.789063-2.515625-1.488281l-48.976563-48.976563c-1.5625-1.5625-2.113281-3.871093-1.425781-5.96875.683594-2.097656 2.492188-3.636719 4.675781-3.972656 8.507813-1.3125 15.257813-7.890625 16.792969-16.371094.386719-2.144531 1.9375-3.898437 4.019531-4.550781 2.082032-.648438 4.351563-.089844 5.894532 1.449219l48.703125 48.707031c.730469.730469 1.257812 1.640625 1.519531 2.640625l7.949219 29.894531c.542969 2.039063-.054688 4.21875-1.566407 5.695313-1.109374 1.085937-2.589843 1.671875-4.097656 1.671875zm-26.261718-19.574219 17.929687 5.195313-4.875-18.347657-41.074219-41.074219c-3.027344 5.539063-7.632812 10.0625-13.21875 12.988282zm0 0" fill="#4c4372"/><path d="m27.613281 154.585938c-.867187 0-1.734375-.191407-2.546875-.582032-2.027344-.980468-3.3125-3.03125-3.3125-5.28125v-73.394531c0-1.996094 1.015625-3.855469 2.695313-4.933594 1.679687-1.078125 3.792969-1.230469 5.609375-.398437 4.003906 1.835937 8.269531 2.765625 12.683594 2.765625 4.417968 0 8.683593-.933594 12.6875-2.765625 1.8125-.832032 3.929687-.679688 5.609374.394531 1.679688 1.078125 2.695313 2.9375 2.695313 4.933594v71.8125c0 2.140625-1.167969 4.113281-3.042969 5.140625-1.878906 1.03125-4.167968.953125-5.972656-.195313-3.246094-2.074219-7.003906-3.167969-10.863281-3.167969-4.621094 0-8.972657 1.519532-12.589844 4.394532-1.058594.84375-2.351563 1.277344-3.652344 1.277344zm5.863281-71.121094v55.464844c5.921876-2.035157 12.507813-2.273438 18.53125-.6875v-54.777344c-6.039062 1.359375-12.488281 1.359375-18.53125 0zm0 0" fill="#4c4372"/><path d="m43.851562 201.136719c-17.628906 0-31.972656-14.34375-31.972656-31.972657 0-17.632812 14.34375-31.976562 31.972656-31.976562 17.632813 0 31.976563 14.34375 31.976563 31.976562 0 17.628907-14.34375 31.972657-31.976563 31.972657zm0-52.222657c-11.164062 0-20.25 9.082032-20.25 20.25 0 11.164063 9.085938 20.25 20.25 20.25 11.167969 0 20.25-9.085937 20.25-20.25 0-11.167968-9.082031-20.25-20.25-20.25zm0 0" fill="#4c4372"/><path d="m52.242188 169.164062c0 4.632813-3.753907 8.390626-8.390626 8.390626-4.632812 0-8.390624-3.757813-8.390624-8.390626 0-4.636718 3.757812-8.390624 8.390624-8.390624 4.636719 0 8.390626 3.753906 8.390626 8.390624zm0 0" fill="#4c4372"/></svg>