<svg height="453pt" viewBox="-7 0 453 453.08585" width="453pt" xmlns="http://www.w3.org/2000/svg"><path d="m144.542969 283.183594c.003906 13.257812 7.078125 25.507812 18.558593 32.136718 11.480469 6.632813 25.628907 6.632813 37.113282.003907 15.597656 9.003906 35.40625 5.507812 46.984375-8.289063 11.574219-13.796875 11.574219-33.914062 0-47.710937-11.578125-13.796875-31.386719-17.292969-46.984375-8.289063-11.488282-6.628906-25.636719-6.628906-37.117188.003906-11.484375 6.632813-18.554687 18.886719-18.554687 32.144532zm-111.171875 70.511718h-27.328125v-267.222656h252.628906c15.929687.003906 28.84375 12.921875 28.839844 28.851563v209.519531c.007812 15.933594-12.90625 28.851562-28.839844 28.851562zm0 0" fill="#e48e66"/><path d="m181.664062 283.183594c-.007812-13.261719 7.0625-25.519532 18.550782-32.148438 11.484375 6.628906 18.558594 18.882813 18.558594 32.144532 0 13.261718-7.074219 25.515624-18.558594 32.144531-11.484375-6.628907-18.554688-18.882813-18.550782-32.140625zm0 0" fill="#e2d574"/><path d="m218.773438 283.183594c.003906-13.261719-7.070313-25.519532-18.558594-32.148438 15.597656-9.003906 35.40625-5.507812 46.984375 8.289063 11.574219 13.796875 11.574219 33.914062 0 47.710937-11.578125 13.796875-31.386719 17.292969-46.984375 8.289063 11.484375-6.625 18.558594-18.878907 18.558594-32.140625zm0 0" fill="#f8ec7d"/><path d="m144.542969 283.183594c0-13.257813 7.070312-25.511719 18.554687-32.144532 11.480469-6.632812 25.628906-6.632812 37.117188-.003906-11.480469 6.632813-18.550782 18.886719-18.550782 32.144532 0 13.257812 7.070313 25.511718 18.550782 32.144531-11.484375 6.628906-25.632813 6.628906-37.113282-.003907-11.480468-6.628906-18.554687-18.878906-18.558593-32.136718zm0 0" fill="#f8ec7d"/><path d="m6.042969 353.695312h27.328125v72.039063h-27.328125zm0 0" fill="#f8ec7d"/><path d="m33.371094 86.472656h-27.328125v-72.027344h27.328125zm0 0" fill="#f8ec7d"/><g fill="#63316d"><path d="m258.671875 359.695312c19.234375-.027343 34.820313-15.617187 34.839844-34.851562v-209.519531c-.019531-19.234375-15.605469-34.824219-34.839844-34.851563h-219.300781v-66.027344c0-3.316406-2.683594-6-6-6h-27.328125c-3.3125 0-6.0000002 2.683594-6.0000002 6v411.289063c0 3.3125 2.6875002 6 6.0000002 6h27.328125c3.316406 0 6-2.6875 6-6v-66.039063zm22.839844-244.371093v27.480469h-17.449219c-3.3125 0-6 2.6875-6 6s2.6875 6 6 6h17.449219v170.039062c-.011719 12.613281-10.226563 22.832031-22.839844 22.851562h-246.628906v-192.890624h145.449219c3.3125 0 6-2.6875 6-6s-2.6875-6-6-6h-145.449219v-50.332032h246.628906c12.613281.019532 22.828125 10.242188 22.839844 22.851563zm-254.140625-94.878907v60.027344h-15.328125v-60.027344zm0 399.289063h-15.328125v-60.039063h15.328125zm0 0"/><path d="m200.214844 244.273438c-18.121094-8.65625-39.816406-3.652344-52.320313 12.058593-12.503906 15.714844-12.503906 37.980469 0 53.695313 12.503907 15.710937 34.199219 20.714844 52.320313 12.058594 18.121094 8.652343 39.816406 3.652343 52.320312-12.0625 12.503906-15.710938 12.503906-37.976563 0-53.6875-12.503906-15.714844-34.199218-20.714844-52.320312-12.0625zm0 63.863281c-7.894532-5.863281-12.550782-15.121094-12.550782-24.957031 0-9.835938 4.65625-19.089844 12.550782-24.957032 7.902344 5.863282 12.558594 15.121094 12.558594 24.957032 0 9.835937-4.65625 19.09375-12.558594 24.957031zm-49.671875-24.953125c-.011719-9.40625 4.238281-18.316406 11.5625-24.222656 7.320312-5.910157 16.925781-8.183594 26.121093-6.1875-16.75 16.8125-16.75 44 0 60.8125-9.191406 2-18.796874-.273438-26.121093-6.179688-7.320313-5.90625-11.570313-14.8125-11.558594-24.222656zm99.339843 0c.015626 9.40625-4.234374 18.316406-11.558593 24.222656-7.320313 5.90625-16.921875 8.179688-26.117188 6.179688 16.753907-16.808594 16.753907-44 0-60.808594 9.195313-2.003906 18.800781.269531 26.121094 6.179687 7.324219 5.910157 11.570313 14.820313 11.554687 24.226563zm0 0"/><path d="m207.542969 154.804688h33.699219c3.3125 0 6-2.6875 6-6s-2.6875-6-6-6h-33.699219c-3.3125 0-6 2.6875-6 6s2.6875 6 6 6zm0 0"/><path d="m179.953125 154.804688h5.640625c3.3125 0 6-2.6875 6-6s-2.6875-6-6-6h-5.640625c-3.3125 0-6 2.6875-6 6s2.6875 6 6 6zm0 0"/><path d="m171.703125 35.964844c3.3125 0 6-2.6875 6-6s-2.6875-6-6-6h-1.058594c-3.316406 0-6 2.6875-6 6s2.683594 6 6 6zm0 0"/><path d="m191.363281 35.964844c3.3125 0 6-2.6875 6-6s-2.6875-6-6-6h-.699219c-3.316406 0-6 2.6875-6 6s2.683594 6 6 6zm0 0"/><path d="m218.851562 35.964844c3.316407 0 6-2.6875 6-6s-2.683593-6-6-6h-.328124c-3.3125 0-6 2.6875-6 6s2.6875 6 6 6zm0 0"/><path d="m239.464844 29.964844c0 3.3125 2.683594 6 6 6h81.324218l-13.800781 13.800781c-1.558593 1.503906-2.1875 3.734375-1.636719 5.832031.550782 2.097656 2.1875 3.738282 4.285157 4.285156 2.097656.550782 4.328125-.074218 5.835937-1.632812l24.039063-24.042969c2.34375-2.339843 2.34375-6.140625 0-8.484375l-24.039063-24.039062c-2.355468-2.273438-6.097656-2.242188-8.410156.074218-2.316406 2.3125-2.347656 6.054688-.074219 8.410157l13.800781 13.800781h-81.324218c-3.3125 0-6 2.683594-6 5.996094zm0 0"/><path d="m332.625 394.703125c-2.351562-2.289063-6.105469-2.265625-8.425781.054687-2.324219 2.320313-2.347657 6.078126-.058594 8.429688l13.800781 13.796875h-129.410156c-3.3125 0-6 2.6875-6 6 0 3.316406 2.6875 6 6 6h129.402344l-13.800782 13.800781c-1.550781 1.511719-2.167968 3.734375-1.617187 5.828125.550781 2.089844 2.183594 3.726563 4.277344 4.273438 2.089843.550781 4.316406-.066407 5.824219-1.617188l24.039062-24.039062c2.34375-2.34375 2.34375-6.140625 0-8.484375zm0 0"/><path d="m134.78125 416.984375h-1.066406c-3.316406 0-6 2.6875-6 6s2.683594 6 6 6h1.066406c3.316406 0 6-2.6875 6-6s-2.683594-6-6-6zm0 0"/><path d="m154.433594 416.984375h-.691406c-3.3125 0-6 2.6875-6 6s2.6875 6 6 6h.691406c3.3125 0 6-2.6875 6-6s-2.6875-6-6-6zm0 0"/><path d="m181.921875 416.984375h-.320313c-3.3125 0-6 2.6875-6 6s2.6875 6 6 6h.320313c3.316406 0 6-2.6875 6-6s-2.683594-6-6-6zm0 0"/><path d="m307.863281 166.972656c3.3125 0 6-2.683594 6-6 0-3.3125-2.6875-6-6-6h-1.058593c-3.316407 0-6 2.6875-6 6 0 3.316406 2.683593 6 6 6zm0 0"/><path d="m327.523438 154.972656h-.699219c-3.316407 0-6 2.6875-6 6 0 3.316406 2.683593 6 6 6h.699219c3.3125 0 6-2.683594 6-6 0-3.3125-2.6875-6-6-6zm0 0"/><path d="m355.011719 166.972656c3.316406 0 6-2.683594 6-6 0-3.3125-2.683594-6-6-6h-.328125c-3.3125 0-6 2.6875-6 6 0 3.316406 2.6875 6 6 6zm0 0"/><path d="m369.851562 160.972656c0 3.316406 2.6875 6 6 6h23.625l-13.800781 13.800782c-1.558593 1.507812-2.183593 3.738281-1.636719 5.835937.550782 2.097656 2.1875 3.734375 4.285157 4.285156 2.097656.550781 4.332031-.078125 5.835937-1.636719l24.039063-24.039062c2.34375-2.34375 2.34375-6.140625 0-8.484375l-24.039063-24.039063c-1.503906-1.5625-3.738281-2.1875-5.835937-1.636718-2.097657.546875-3.734375 2.1875-4.285157 4.285156-.546874 2.097656.078126 4.328125 1.636719 5.835938l13.800781 13.796874h-23.625c-3.3125 0-5.996093 2.6875-6 5.996094zm0 0"/><path d="m413.566406 263.691406c-2.355468-2.273437-6.097656-2.242187-8.414062.074219-2.3125 2.3125-2.34375 6.054687-.070313 8.410156l13.800781 13.800781h-59c-3.316406 0-6 2.6875-6 6s2.683594 6 6 6h59.003907l-13.800781 13.800782c-1.558594 1.503906-2.183594 3.734375-1.636719 5.832031.550781 2.101563 2.1875 3.738281 4.285156 4.285156 2.097656.550781 4.328125-.074219 5.835937-1.632812l24.039063-24.042969c2.34375-2.339844 2.34375-6.140625 0-8.484375zm0 0"/><path d="m310.84375 297.972656h.6875c3.316406 0 6-2.683594 6-6 0-3.3125-2.683594-6-6-6h-.6875c-3.316406 0-6 2.6875-6 6 0 3.316406 2.683594 6 6 6zm0 0"/><path d="m338.703125 297.972656h.320313c3.3125 0 6-2.683594 6-6 0-3.3125-2.6875-6-6-6h-.320313c-3.3125 0-6 2.6875-6 6 0 3.316406 2.6875 6 6 6zm0 0"/></g></svg>