<svg height="512" viewBox="0 0 64 64" width="512" xmlns="http://www.w3.org/2000/svg"><path d="m61 3v58l-3-4-3 4-3-4-3 4-3-4-3 4-3-4-3 4-3-4-3 4-3-4-3 4-3-4-3 4v-58l3 4 3-4 3 4 3-4 3 4 3-4 3 4 3-4 3 4 3-4 3 4 3-4 3 4z" fill="#e6e7e8"/><path d="m61 7.26v53.74l-3-4-3 4-3-4-3 4-3-4-3 4-3-4-3 4-3-4-3 4-3-4-3 4-3-4-3 4v-7.7a110.444 110.444 0 0 0 42-46.04z" fill="#d8d7da"/><path d="m26.58 48.79-2.58-.7v2.91l-5 5-2 2-7-7v-2.91l-2.58.7a6.013 6.013 0 0 0 -4.42 5.79v6.42h28v-6.42a6.013 6.013 0 0 0 -4.42-5.79z" fill="#3d9ae2"/><path d="m21.36 47.37-2.36 1.96-2 1.67-4.36-3.63-2.64.72v2.91l7 7 2-2 5-5v-2.91z" fill="#e6e7e8"/><path d="m20 47v-2.58a8.361 8.361 0 0 1 -1 .33 8.239 8.239 0 0 1 -2 .25 8.093 8.093 0 0 1 -3-.58v2.58l-1.36.37 4.36 3.63 2-1.67 2.36-1.96z" fill="#ffb655"/><path d="m20.34 31.68-.34-.68-1 1-.66.66a7.985 7.985 0 0 1 -5.65 2.34h-3.69v2a8.014 8.014 0 0 0 2.34 5.66 7.986 7.986 0 0 0 5.66 2.34 8.239 8.239 0 0 0 2-.25 8.361 8.361 0 0 0 1-.33 8.008 8.008 0 0 0 5-7.42v-2l.01-.04a5.986 5.986 0 0 1 -4.67-3.28z" fill="#ffc477"/><path d="m19 23.22a9.356 9.356 0 0 0 -2-.22 9 9 0 0 0 -9 9v3h4.69a7.985 7.985 0 0 0 5.65-2.34l.66-.66 1-1 .34.68a5.986 5.986 0 0 0 4.67 3.28 5.374 5.374 0 0 0 .7.04h.29v-3a9.008 9.008 0 0 0 -7-8.78z" fill="#57565c"/><path d="m21 38h-2a2 2 0 0 1 -4 0h-2a4 4 0 0 0 8 0z"/><path d="m35 20h-2a1 1 0 0 1 -1-1h-2a3 3 0 0 0 3 3v2h2v-2a3 3 0 0 0 0-6h-2a1 1 0 0 1 0-2h2a1 1 0 0 1 1 1h2a3 3 0 0 0 -3-3v-2h-2v2a3 3 0 0 0 0 6h2a1 1 0 0 1 0 2z"/><path d="m44 20h12v2h-12z"/><path d="m44 16h2v2h-2z"/><path d="m48 16h8v2h-8z"/><path d="m61.316 2.051a1 1 0 0 0 -1.116.349l-2.2 2.933-2.2-2.933a1.036 1.036 0 0 0 -1.6 0l-2.2 2.933-2.2-2.933a1.036 1.036 0 0 0 -1.6 0l-2.2 2.933-2.2-2.933a1.036 1.036 0 0 0 -1.6 0l-2.2 2.933-2.2-2.933a1.036 1.036 0 0 0 -1.6 0l-2.2 2.933-2.2-2.933a1.036 1.036 0 0 0 -1.6 0l-2.2 2.933-2.2-2.933a1.036 1.036 0 0 0 -1.6 0l-2.2 2.933-2.2-2.933a1 1 0 0 0 -1.8.6v19.051a9.992 9.992 0 0 0 -11 9.949v3a1 1 0 0 0 1 1v1a9 9 0 0 0 5 8.05v1.186l-5.846 1.59a7.03 7.03 0 0 0 -5.154 6.754v6.42a1 1 0 0 0 1 1h28a.98.98 0 0 0 .786-.41l.014.01 2.2-2.933 2.2 2.933a1.036 1.036 0 0 0 1.6 0l2.2-2.933 2.2 2.933a1.036 1.036 0 0 0 1.6 0l2.2-2.933 2.2 2.933a1.036 1.036 0 0 0 1.6 0l2.2-2.933 2.2 2.933a1.036 1.036 0 0 0 1.6 0l2.2-2.933 2.2 2.933a1 1 0 0 0 .8.4 1.019 1.019 0 0 0 .316-.051 1 1 0 0 0 .684-.949v-58a1 1 0 0 0 -.684-.949zm-52.316 29.949a8 8 0 0 1 16 0v1.951a4.969 4.969 0 0 1 -3.764-2.715l-.341-.683a1 1 0 0 0 -1.6-.26l-1.659 1.657a6.954 6.954 0 0 1 -4.949 2.05h-3.687zm1 5v-1h2.687a8.937 8.937 0 0 0 6.363-2.636l.7-.7a6.943 6.943 0 0 0 4.25 3.123v1.213a7 7 0 0 1 -14 0zm1 11.852 1.4-.38 3.6 3v2.528h2v-2.531l3.6-3 1.4.38v1.734l-6 6-6-6zm6-2.852a8.971 8.971 0 0 0 2-.232v1.232a.989.989 0 0 0 .349.743l-2.349 1.957-2.349-1.956a.989.989 0 0 0 .349-.744v-1.232a8.971 8.971 0 0 0 2 .232zm13 14h-26v-5.42a5.024 5.024 0 0 1 3.683-4.825l1.317-.355v1.6a1 1 0 0 0 .293.707l7 7a1 1 0 0 0 1.414 0l7-7a1 1 0 0 0 .293-.707v-1.6l1.314.358a5.026 5.026 0 0 1 3.686 4.822zm30-2-1.2-1.6a1.036 1.036 0 0 0 -1.6 0l-2.2 2.933-2.2-2.933a1.036 1.036 0 0 0 -1.6 0l-2.2 2.933-2.2-2.933a1.036 1.036 0 0 0 -1.6 0l-2.2 2.933-2.2-2.933a1.036 1.036 0 0 0 -1.6 0l-2.2 2.933-2.2-2.933a1.036 1.036 0 0 0 -1.6 0l-1.2 1.6v-3.42a7.031 7.031 0 0 0 -5.157-6.755l-5.843-1.589v-1.186a9 9 0 0 0 5-8.05v-1a1 1 0 0 0 1-1v-3a10.018 10.018 0 0 0 -7-9.539v-16.461l1.2 1.6a1.036 1.036 0 0 0 1.6 0l2.2-2.933 2.2 2.933a1.036 1.036 0 0 0 1.6 0l2.2-2.933 2.2 2.933a1.036 1.036 0 0 0 1.6 0l2.2-2.933 2.2 2.933a1.036 1.036 0 0 0 1.6 0l2.2-2.933 2.2 2.933a1.036 1.036 0 0 0 1.6 0l2.2-2.933 2.2 2.933a1.036 1.036 0 0 0 1.6 0l2.2-2.933 2.2 2.933a1.036 1.036 0 0 0 1.6 0l1.2-1.6z"/><path d="m30 28h18v2h-18z"/><path d="m50 28h6v2h-6z"/><path d="m30 32h18v2h-18z"/><path d="m50 32h6v2h-6z"/><path d="m30 36h18v2h-18z"/><path d="m50 36h6v2h-6z"/><path d="m30 40h18v2h-18z"/><path d="m50 40h6v2h-6z"/><path d="m30 44h18v2h-18z"/><path d="m50 44h6v2h-6z"/></svg>