<svg height="496pt" viewBox="0 0 496 496" width="496pt" xmlns="http://www.w3.org/2000/svg"><path d="m152 0h96v184h-96zm0 0" fill="#f0bc5e"/><path d="m272 464h-176v-48h176zm0 0" fill="#f0bc5e"/><path d="m352 16h16v42.792969h16v-42.792969c0-8.824219-7.175781-16-16-16h-16c-8.824219 0-16 7.175781-16 16v42.792969h16zm0 0"/><path d="m431 176-21.753906-51.664062-14.75 6.207031 52.632812 124.992187c.582032 1.375.878906 2.839844.878906 4.34375v.882813c-.007812 6.199219-5.046874 11.238281-11.238281 11.238281-4.53125 0-8.59375-2.695312-10.355469-6.863281l-49.351562-117.214844-14.742188 6.207031 20.566407 48.847656c-14.453125 6.4375-31.320313 6.4375-45.773438 0l20.566407-48.847656-14.742188-6.207031-49.351562 117.214844c-1.761719 4.167969-5.824219 6.863281-10.355469 6.863281-6.191407 0-11.230469-5.039062-11.230469-11.230469v-.882812c0-1.503907.296875-2.964844.878906-4.351563l52.625-124.984375-14.75-6.207031-21.753906 51.65625h-153v-106.425781l-40-60-40 60v106.425781h-56v251.3125l68.6875 68.6875h427.3125v-320zm17 160v80h-96v-80zm-144-57.632812v105.632812h-128v-32h-40v-48h-88v-16h48v-8c0-13.230469 10.769531-24 24-24h8v-32h16v72h96v-72h28.792969l-10.65625 25.3125c-1.417969 3.359375-2.136719 6.910156-2.136719 10.566406v.882813c0 11 6.59375 20.445312 16 24.742187v22.945313c-4.726562-2.753907-10.144531-4.449219-16-4.449219-17.648438 0-32 14.351562-32 32s14.351562 32 32 32 32-14.351562 32-32v-48.464844c6.28125-1.109375 11.929688-4.351562 16-9.167968zm-256 41.632812h72v48h40v16h-112zm0-48v-48h64v16.808594c-15.648438 3.183594-28.007812 15.542968-31.191406 31.191406zm112-48h64v56h-64zm112 112c0 8.824219-7.175781 16-16 16s-16-7.175781-16-16 7.175781-16 16-16 16 7.175781 16 16zm-168-160v-96h16v96zm9.054688-112h-34.101563l17.046875-25.574219zm-41.054688 16h16v96h-16zm-8 388.6875-36.6875-36.6875h36.6875zm416 11.3125h-400v-64h-64v-224h266.265625l-6.738281 16h-243.527344v192h288v-156.390625l10.886719-25.855469c9.167969 4.078125 19.074219 6.246094 29.113281 6.246094s19.945312-2.167969 29.113281-6.246094l22.558594 53.582032c3.632813 8.625 11.335937 14.609374 20.328125 16.199218v32.464844h-96v112h128v-112h-16v-34.496094c9.40625-4.296875 16-13.742187 16-24.742187v-.882813c0-3.65625-.71875-7.207031-2.136719-10.566406l-24.128906-57.3125h42.265625zm0 0"/><path d="m128 432h16v16h-16zm0 0"/><path d="m160 432h16v16h-16zm0 0"/><path d="m360 160c-30.871094 0-56-25.128906-56-56s25.128906-56 56-56 56 25.128906 56 56-25.128906 56-56 56zm0-72c-8.824219 0-16 7.175781-16 16s7.175781 16 16 16 16-7.175781 16-16-7.175781-16-16-16zm0 0" fill="#f0bc5e"/><path d="m192 432h16v16h-16zm0 0"/><path d="m224 432h16v16h-16zm0 0"/><path d="m288 448h176v16h-176zm0 0"/><path d="m200 16h48v16h-48zm0 0"/><path d="m200 144h48v16h-48zm0 0"/><path d="m216 48h32v16h-32zm0 0"/><path d="m200 80h48v16h-48zm0 0"/><path d="m216 112h32v16h-32zm0 0"/><path d="m368 352h64v48h-64zm0 0" fill="#f0bc5e"/><path d="m360 128c13.230469 0 24-10.769531 24-24s-10.769531-24-24-24-24 10.769531-24 24 10.769531 24 24 24zm0-32c4.40625 0 8 3.59375 8 8s-3.59375 8-8 8-8-3.59375-8-8 3.59375-8 8-8zm0 0"/></svg>