<svg enable-background="new 0 0 256 256" height="512" viewBox="0 0 256 256" width="512" xmlns="http://www.w3.org/2000/svg"><circle cx="69.179" cy="67.521" fill="#facb35" r="65.018"/><circle cx="186.821" cy="188.479" fill="#facb35" r="65.018"/><circle cx="69.179" cy="67.521" fill="#fcac27" r="53.986"/><circle cx="186.821" cy="188.479" fill="#fcac27" r="53.986"/><path d="m192.956 103.539 18.79-18.79c2.589-2.588 2.541-6.814-.144-9.342-2.594-2.443-6.733-2.187-9.253.333l-7.487 7.487v-19.431c0-17.271-12.816-31.86-29.943-34.085l-3.393-.441c-1.855-.241-2.55 2.349-.823 3.069 12.804 5.339 21.144 17.852 21.144 31.725v19.164l-7.487-7.487c-2.52-2.52-6.658-2.775-9.253-.333-2.684 2.528-2.732 6.754-.143 9.342l18.79 18.79c2.541 2.54 6.661 2.54 9.202-.001z" fill="#45bdf0"/><path d="m63.116 152.642-18.79 18.79c-2.589 2.588-2.541 6.814.144 9.342 2.594 2.443 6.733 2.187 9.253-.333l7.487-7.487v19.431c0 17.271 12.816 31.86 29.943 34.085l3.393.441c1.855.241 2.55-2.349.823-3.069-12.804-5.339-21.144-17.852-21.144-31.725v-19.164l7.487 7.487c2.52 2.52 6.658 2.775 9.253.333 2.684-2.528 2.732-6.754.143-9.342l-18.79-18.79c-2.54-2.54-6.661-2.54-9.202.001z" fill="#45bdf0"/><path d="m76.213 95.422h-22.499c-1.381 0-2.5-1.119-2.5-2.5s1.119-2.5 2.5-2.5h22.499c5.624 0 10.2-4.576 10.2-10.2 0-5.625-4.576-10.201-10.2-10.201h-14.067c-8.382 0-15.2-6.818-15.2-15.2s6.818-15.2 15.2-15.2h19.938c1.381 0 2.5 1.119 2.5 2.5s-1.119 2.5-2.5 2.5h-19.938c-5.624 0-10.2 4.576-10.2 10.2s4.576 10.2 10.2 10.2h14.067c8.382 0 15.2 6.819 15.2 15.201s-6.818 15.2-15.2 15.2z"/><path d="m69.179 104.11c-1.381 0-2.5-1.119-2.5-2.5v-68.18c0-1.381 1.119-2.5 2.5-2.5s2.5 1.119 2.5 2.5v68.18c0 1.381-1.119 2.5-2.5 2.5z"/><path d="m69.179 124.007c-31.146 0-56.485-25.34-56.485-56.486s25.339-56.485 56.485-56.485 56.486 25.339 56.486 56.485-25.34 56.486-56.486 56.486zm0-107.972c-28.389 0-51.485 23.097-51.485 51.485 0 28.39 23.097 51.486 51.485 51.486 28.39 0 51.486-23.097 51.486-51.486 0-28.388-23.097-51.485-51.486-51.485z"/><path d="m69.179 135.039c-37.229 0-67.519-30.289-67.519-67.519s30.289-67.518 67.519-67.518 67.519 30.289 67.519 67.519-30.29 67.518-67.519 67.518zm0-130.037c-34.473 0-62.519 28.046-62.519 62.519s28.046 62.519 62.519 62.519 62.519-28.046 62.519-62.519-28.047-62.519-62.519-62.519z"/><path d="m186.821 244.965c-31.146 0-56.486-25.339-56.486-56.485s25.34-56.486 56.486-56.486 56.485 25.34 56.485 56.486-25.338 56.485-56.485 56.485zm0-107.972c-28.39 0-51.486 23.097-51.486 51.486s23.097 51.485 51.486 51.485 51.485-23.097 51.485-51.485c.001-28.389-23.096-51.486-51.485-51.486z"/><path d="m186.821 255.998c-37.229 0-67.519-30.289-67.519-67.519s30.289-67.519 67.519-67.519 67.519 30.289 67.519 67.519-30.289 67.519-67.519 67.519zm0-130.037c-34.473 0-62.519 28.046-62.519 62.519s28.046 62.519 62.519 62.519 62.519-28.046 62.519-62.519-28.046-62.519-62.519-62.519z"/><path d="m188.354 107.945c-2.405 0-4.667-.938-6.368-2.639l-18.79-18.79c-1.737-1.736-2.675-4.047-2.638-6.504s1.044-4.739 2.835-6.426c3.508-3.302 9.221-3.13 12.734.386l3.22 3.22v-13.129c0-12.904-7.696-24.451-19.606-29.417-1.921-.801-2.923-2.841-2.384-4.85.538-2.011 2.436-3.27 4.491-3.006l3.393.44c18.312 2.379 32.121 18.098 32.121 36.564v13.396l3.22-3.22c3.515-3.515 9.226-3.687 12.734-.386 1.791 1.687 2.798 3.969 2.835 6.426s-.899 4.768-2.638 6.505l-18.79 18.789c-1.701 1.704-3.962 2.641-6.369 2.641zm-18.876-31.742c-.975 0-1.928.338-2.656 1.024-.799.751-1.247 1.767-1.264 2.859-.016 1.094.4 2.121 1.174 2.894l18.79 18.791c.757.757 1.763 1.174 2.833 1.174 1.071 0 2.077-.417 2.834-1.174l18.79-18.79c.773-.773 1.189-1.801 1.174-2.895-.017-1.093-.465-2.108-1.264-2.859-1.56-1.468-4.147-1.343-5.771.28l-7.487 7.487c-.714.715-1.786.93-2.725.542-.934-.387-1.543-1.299-1.543-2.31v-19.43c0-15.297-10.962-28.413-25.807-31.289 10.958 6.605 17.792 18.479 17.792 31.557v19.164c0 1.011-.609 1.923-1.543 2.31-.937.388-2.01.173-2.725-.542l-7.487-7.487c-.865-.865-2.004-1.306-3.115-1.306z"/><path d="m94.773 229.426c-.182 0-.365-.012-.55-.035l-3.393-.44c-18.312-2.38-32.121-18.1-32.121-36.565v-13.396l-3.22 3.22c-3.515 3.515-9.228 3.688-12.734.385-1.791-1.687-2.798-3.969-2.834-6.425-.037-2.458.899-4.768 2.637-6.505l18.79-18.79c3.513-3.513 9.227-3.511 12.737 0l18.79 18.79c1.738 1.736 2.675 4.047 2.638 6.505-.037 2.456-1.044 4.738-2.835 6.425-3.508 3.305-9.219 3.129-12.734-.384l-3.22-3.221v13.129c0 12.904 7.696 24.451 19.606 29.416 1.921.802 2.924 2.843 2.384 4.852-.49 1.828-2.1 3.039-3.941 3.039zm-33.562-58.972c.321 0 .646.062.956.19.934.387 1.543 1.299 1.543 2.31v19.431c0 15.297 10.963 28.413 25.808 31.29-10.959-6.604-17.793-18.478-17.793-31.557v-19.164c0-1.011.609-1.923 1.543-2.31.938-.387 2.011-.172 2.725.542l7.487 7.487c1.624 1.622 4.213 1.748 5.771.28.799-.752 1.247-1.768 1.264-2.86.016-1.094-.4-2.121-1.174-2.894l-18.79-18.791c-1.562-1.562-4.104-1.563-5.667 0l-18.79 18.79c-.772.773-1.189 1.801-1.173 2.895.017 1.093.465 2.108 1.263 2.859 1.56 1.47 4.147 1.345 5.771-.279l7.487-7.487c.479-.478 1.118-.732 1.769-.732z"/><path d="m190.351 221.557c-5.85.001-11.694-1.58-16.973-4.729-10.089-6.019-16.111-16.617-16.111-28.35 0-11.73 6.021-22.326 16.104-28.343 10.115-6.034 22.306-6.315 32.615-.753 1.215.656 1.668 2.173 1.013 3.388-.656 1.215-2.175 1.668-3.388 1.013-8.742-4.719-19.091-4.478-27.678.646-8.558 5.105-13.667 14.096-13.667 24.049 0 9.955 5.111 18.947 13.673 24.056 8.582 5.12 18.927 5.361 27.672.64 1.213-.653 2.731-.204 3.388 1.013.655 1.215.202 2.731-1.013 3.388-4.925 2.656-10.283 3.982-15.635 3.982z"/><path d="m191.185 183.125h-37.701c-1.381 0-2.5-1.119-2.5-2.5s1.119-2.5 2.5-2.5h37.701c1.381 0 2.5 1.119 2.5 2.5s-1.12 2.5-2.5 2.5z"/><path d="m191.185 198.834h-37.701c-1.381 0-2.5-1.119-2.5-2.5s1.119-2.5 2.5-2.5h37.701c1.381 0 2.5 1.119 2.5 2.5s-1.12 2.5-2.5 2.5z"/></svg>