<?xml version="1.0" encoding="UTF-8" standalone="no"?>
<!DOCTYPE svg PUBLIC "-//W3C//DTD SVG 1.1//EN" "http://www.w3.org/Graphics/SVG/1.1/DTD/svg11.dtd">
<svg version="1.1" xmlns="http://www.w3.org/2000/svg" xmlns:xlink="http://www.w3.org/1999/xlink" preserveAspectRatio="xMidYMid meet" viewBox="0 0 512 512" width="512" height="512"><defs><path d="M113.6 33.23C59.68 33.23 15.96 76.49 15.96 129.86C15.96 183.22 59.68 226.48 113.6 226.48C167.52 226.48 211.24 183.22 211.24 129.86C211.24 76.49 167.52 33.23 113.6 33.23Z" id="aRhJs8zW"></path><path d="M251.88 294.23C197.95 294.23 154.24 337.49 154.24 390.85C154.24 444.22 197.95 487.48 251.88 487.48C305.8 487.48 349.51 444.22 349.51 390.85C349.51 337.49 305.8 294.23 251.88 294.23Z" id="dYYUS9MRy"></path><path d="M113.6 49.63C68.83 49.63 32.53 85.55 32.53 129.86C32.53 174.16 68.83 210.08 113.6 210.08C158.37 210.08 194.67 174.16 194.67 129.86C194.67 85.55 158.37 49.63 113.6 49.63Z" id="aGfZ5pche"></path><path d="M251.88 310.63C207.1 310.63 170.81 346.55 170.81 390.85C170.81 435.16 207.1 471.08 251.88 471.08C296.65 471.08 332.95 435.16 332.95 390.85C332.95 346.55 296.65 310.63 251.88 310.63Z" id="a39YdfXCLp"></path><path d="M393.23 335.31C397.62 335.86 401.2 332.69 401.13 328.28C401.05 324.01 397.38 320.26 393.11 319.73C392.27 319.62 388.04 319.1 380.43 318.15C390.43 309.53 395.99 304.75 397.1 303.79C411.92 291.04 413.72 268.09 401.33 250.17C401.08 249.82 399.12 246.98 398.87 246.62C397.53 244.68 394.72 245.93 395.55 248.11C401.67 264.22 397.9 281.38 386 291.63C384.9 292.57 379.42 297.29 369.56 305.78C369.66 298.19 369.72 293.98 369.73 293.14C369.79 288.88 366.55 284.76 362.29 284.1C357.87 283.42 354.21 286.49 354.15 290.86C354.11 294.04 353.77 319.42 353.73 322.59C353.68 326.88 357.12 330.8 361.42 331.34C367.78 332.13 390.05 334.91 393.23 335.31Z" id="d3pUOsWS4U"></path><path d="M103.96 336.14C99.53 335.76 96.27 331.84 96.79 327.44C97.29 323.19 101.34 320.22 105.65 320.59C106.5 320.66 110.77 321.03 118.46 321.68C109.34 310.96 104.28 305.01 103.27 303.82C89.77 287.94 90.28 264.62 104.45 249.32C104.73 249.02 106.98 246.6 107.26 246.29C108.79 244.64 111.46 246.48 110.42 248.48C102.7 263.29 104.73 281.24 115.57 294C116.57 295.17 121.56 301.05 130.55 311.62C131.21 304.01 131.58 299.79 131.65 298.94C132.02 294.68 135.67 291.24 139.99 291.48C144.46 291.73 147.8 295.58 147.42 299.96C147.14 303.14 144.93 328.58 144.65 331.77C144.28 336.06 140.45 339.25 136.1 338.88C129.67 338.33 107.17 336.41 103.96 336.14Z" id="g89kkBSKBY"></path><path d="M83.55 162.31C81.48 162.31 79.8 160.65 79.8 158.6C79.8 156.55 81.48 154.88 83.55 154.88C86.93 154.88 113.96 154.88 117.34 154.88C125.78 154.88 132.65 148.08 132.65 139.72C132.65 131.37 125.78 124.56 117.34 124.56C115.22 124.56 98.32 124.56 96.21 124.56C83.62 124.56 73.39 114.43 73.39 101.98C73.39 89.52 83.62 79.39 96.21 79.39C99.21 79.39 123.16 79.39 126.15 79.39C128.23 79.39 129.91 81.05 129.91 83.1C129.91 85.16 128.23 86.82 126.15 86.82C123.16 86.82 99.21 86.82 96.21 86.82C87.77 86.82 80.89 93.62 80.89 101.98C80.89 110.33 87.77 117.13 96.21 117.13C98.32 117.13 115.22 117.13 117.34 117.13C129.92 117.13 140.16 127.27 140.16 139.72C140.16 152.18 129.92 162.31 117.34 162.31C110.58 162.31 86.93 162.31 83.55 162.31Z" id="e1tShbj7vX"></path><path d="M103.02 171.51C103.02 161.38 103.02 80.32 103.02 70.19C103.02 68.14 104.7 66.47 106.77 66.47C108.85 66.47 110.53 68.14 110.53 70.19C110.53 80.32 110.53 161.38 110.53 171.51C110.53 173.56 108.85 175.22 106.77 175.22C104.7 175.22 103.02 173.56 103.02 171.51Z" id="babQvcHN5"></path><path d="M120.55 46.19L123.96 46.54L127.34 47.02L130.67 47.62L133.96 48.36L137.2 49.22L140.38 50.2L143.51 51.3L146.59 52.52L149.6 53.85L152.55 55.3L155.43 56.85L158.25 58.51L160.99 60.27L163.66 62.13L166.26 64.09L168.77 66.15L171.2 68.29L173.55 70.53L175.81 72.85L177.98 75.26L180.06 77.75L182.04 80.31L183.92 82.96L185.7 85.67L187.37 88.46L188.94 91.31L190.4 94.23L191.75 97.21L192.98 100.25L194.09 103.35L195.09 106.5L195.96 109.71L196.7 112.96L197.31 116.26L197.8 119.6L198.14 122.98L198.35 126.4L198.43 129.86L198.35 133.31L198.14 136.73L197.8 140.11L197.31 143.45L196.7 146.75L195.96 150L195.09 153.21L194.09 156.36L192.98 159.46L191.75 162.5L190.4 165.48L188.94 168.4L187.37 171.25L185.7 174.04L183.92 176.76L182.04 179.4L180.06 181.97L177.98 184.45L175.81 186.86L173.55 189.18L171.2 191.42L168.77 193.57L166.26 195.62L163.66 197.58L160.99 199.44L158.25 201.2L155.43 202.86L152.55 204.42L149.6 205.86L146.59 207.19L143.51 208.41L140.38 209.51L137.2 210.5L133.96 211.36L130.67 212.09L127.34 212.7L123.96 213.18L120.55 213.52L117.09 213.73L113.6 213.8L110.11 213.73L106.65 213.52L103.24 213.18L99.86 212.7L96.53 212.09L93.24 211.36L90 210.5L86.82 209.51L83.69 208.41L80.61 207.19L77.6 205.86L74.65 204.42L71.77 202.86L68.95 201.2L66.21 199.44L63.54 197.58L60.94 195.62L58.43 193.57L56 191.42L53.65 189.18L51.39 186.86L49.22 184.45L47.14 181.97L45.16 179.4L43.28 176.76L41.5 174.04L39.83 171.25L38.26 168.4L36.8 165.48L35.45 162.5L34.22 159.46L33.11 156.36L32.11 153.21L31.24 150L30.5 146.75L29.89 143.45L29.41 140.11L29.06 136.73L28.85 133.31L28.78 129.86L28.85 126.4L29.06 122.98L29.41 119.6L29.89 116.26L30.5 112.96L31.24 109.71L32.11 106.5L33.11 103.35L34.22 100.25L35.45 97.21L36.8 94.23L38.26 91.31L39.83 88.46L41.5 85.67L43.28 82.96L45.16 80.31L47.14 77.75L49.22 75.26L51.39 72.85L53.65 70.53L56 68.29L58.43 66.15L60.94 64.09L63.54 62.13L66.21 60.27L68.95 58.51L71.77 56.85L74.65 55.3L77.6 53.85L80.61 52.52L83.69 51.3L86.82 50.2L90 49.22L93.24 48.36L96.53 47.62L99.86 47.02L103.24 46.54L106.65 46.19L110.11 45.98L113.6 45.91L117.09 45.98L120.55 46.19ZM107.27 53.6L104.15 53.91L101.08 54.35L98.04 54.9L95.04 55.57L92.09 56.36L89.19 57.25L86.33 58.26L83.53 59.37L80.79 60.58L78.1 61.9L75.47 63.31L72.9 64.82L70.4 66.43L67.97 68.13L65.6 69.91L63.31 71.78L61.09 73.74L58.95 75.78L56.9 77.9L54.92 80.09L53.03 82.36L51.22 84.7L49.51 87.11L47.88 89.58L46.36 92.12L44.93 94.72L43.6 97.38L42.37 100.1L41.25 102.87L40.23 105.7L39.33 108.57L38.53 111.49L37.86 114.45L37.3 117.46L36.86 120.51L36.54 123.59L36.35 126.71L36.28 129.85L36.35 133L36.54 136.12L36.86 139.2L37.3 142.25L37.86 145.26L38.53 148.22L39.33 151.14L40.23 154.01L41.25 156.84L42.37 159.61L43.6 162.33L44.93 164.99L46.36 167.59L47.88 170.13L49.51 172.6L51.22 175.01L53.03 177.35L54.92 179.62L56.9 181.82L58.96 183.93L61.09 185.97L63.31 187.93L65.6 189.8L67.97 191.59L70.4 193.28L72.9 194.89L75.47 196.4L78.1 197.81L80.79 199.13L83.53 200.35L86.34 201.46L89.19 202.46L92.09 203.36L95.04 204.14L98.04 204.81L101.08 205.36L104.15 205.8L107.27 206.11L110.42 206.3L113.6 206.37L116.78 206.3L119.93 206.11L123.05 205.8L126.12 205.36L129.16 204.81L132.16 204.14L135.11 203.36L138.01 202.46L140.87 201.46L143.67 200.35L146.41 199.13L149.1 197.81L151.73 196.4L154.3 194.89L156.8 193.28L159.23 191.59L161.6 189.8L163.89 187.93L166.11 185.97L168.25 183.93L170.31 181.81L172.28 179.62L174.17 177.35L175.98 175.01L177.69 172.6L179.32 170.13L180.84 167.59L182.27 164.99L183.6 162.33L184.83 159.61L185.95 156.84L186.97 154.01L187.87 151.14L188.67 148.22L189.34 145.26L189.9 142.25L190.34 139.2L190.66 136.12L190.85 133L190.92 129.85L190.85 126.71L190.66 123.59L190.34 120.51L189.9 117.46L189.34 114.45L188.67 111.49L187.87 108.57L186.97 105.7L185.95 102.87L184.83 100.1L183.6 97.38L182.27 94.72L180.84 92.12L179.32 89.58L177.69 87.11L175.98 84.7L174.17 82.36L172.28 80.09L170.3 77.9L168.25 75.78L166.11 73.74L163.89 71.78L161.6 69.91L159.23 68.13L156.8 66.43L154.3 64.82L151.73 63.31L149.1 61.9L146.41 60.58L143.67 59.37L140.86 58.26L138.01 57.25L135.11 56.36L132.16 55.57L129.16 54.9L126.12 54.35L123.05 53.91L119.93 53.6L116.78 53.41L113.6 53.34L110.42 53.41L107.27 53.6Z" id="e12Aq5qpTR"></path><path d="M121.9 29.85L125.99 30.26L130.02 30.83L134.01 31.56L137.94 32.44L141.81 33.47L145.61 34.64L149.36 35.96L153.03 37.41L156.63 39.01L160.16 40.73L163.6 42.59L166.97 44.57L170.25 46.68L173.44 48.9L176.54 51.24L179.55 53.7L182.46 56.27L185.26 58.94L187.96 61.72L190.56 64.59L193.04 67.57L195.4 70.64L197.65 73.79L199.78 77.04L201.78 80.37L203.66 83.78L205.4 87.27L207.01 90.84L208.48 94.47L209.82 98.18L211 101.94L212.04 105.77L212.93 109.66L213.66 113.6L214.24 117.6L214.66 121.64L214.91 125.73L214.99 129.86L214.91 133.99L214.66 138.07L214.24 142.12L213.66 146.11L212.93 150.05L212.04 153.94L211 157.77L209.82 161.54L208.48 165.24L207.01 168.88L205.4 172.44L203.66 175.93L201.78 179.34L199.78 182.67L197.65 185.92L195.4 189.08L193.04 192.14L190.56 195.12L187.96 198L185.26 200.77L182.46 203.45L179.55 206.01L176.54 208.47L173.44 210.81L170.25 213.03L166.97 215.14L163.6 217.12L160.16 218.98L156.63 220.7L153.03 222.3L149.35 223.75L145.61 225.07L141.81 226.24L137.94 227.27L134.01 228.15L130.02 228.88L125.99 229.45L121.9 229.86L117.77 230.11L113.6 230.19L109.43 230.11L105.3 229.86L101.21 229.45L97.18 228.88L93.19 228.15L89.26 227.27L85.39 226.24L81.59 225.07L77.84 223.75L74.17 222.3L70.57 220.7L67.04 218.98L63.6 217.12L60.23 215.14L56.95 213.03L53.76 210.81L50.66 208.47L47.65 206.01L44.74 203.44L41.94 200.77L39.24 198L36.64 195.12L34.16 192.14L31.79 189.08L29.55 185.92L27.42 182.67L25.42 179.34L23.54 175.93L21.8 172.44L20.19 168.87L18.71 165.24L17.38 161.54L16.2 157.77L15.16 153.94L14.27 150.05L13.53 146.11L12.96 142.11L12.54 138.07L12.29 133.98L12.21 129.85L12.29 125.73L12.54 121.64L12.96 117.59L13.53 113.6L14.27 109.66L15.16 105.77L16.2 101.94L17.38 98.17L18.71 94.47L20.19 90.84L21.8 87.27L23.54 83.78L25.42 80.37L27.42 77.04L29.55 73.79L31.79 70.63L34.16 67.57L36.64 64.59L39.24 61.71L41.94 58.94L44.74 56.27L47.65 53.7L50.66 51.24L53.76 48.9L56.95 46.68L60.23 44.57L63.6 42.59L67.04 40.73L70.57 39.01L74.17 37.41L77.84 35.96L81.59 34.64L85.39 33.47L89.26 32.44L93.19 31.56L97.17 30.83L101.21 30.26L105.3 29.85L109.43 29.6L113.6 29.52L117.77 29.6L121.9 29.85ZM105.91 37.26L102.13 37.64L98.39 38.17L94.7 38.84L91.06 39.65L87.48 40.6L83.96 41.69L80.49 42.91L77.09 44.26L73.76 45.74L70.49 47.33L67.3 49.05L64.18 50.89L61.14 52.84L58.19 54.9L55.32 57.07L52.53 59.34L49.84 61.72L47.24 64.19L44.74 66.76L42.34 69.43L40.04 72.18L37.85 75.02L35.77 77.95L33.8 80.95L31.95 84.04L30.21 87.2L28.59 90.43L27.1 93.73L25.74 97.09L24.51 100.52L23.41 104.01L22.45 107.56L21.62 111.16L20.95 114.81L20.41 118.5L20.03 122.25L19.79 126.03L19.71 129.86L19.79 133.68L20.03 137.47L20.41 141.21L20.95 144.91L21.62 148.56L22.45 152.16L23.41 155.7L24.51 159.19L25.74 162.62L27.1 165.99L28.59 169.29L30.21 172.52L31.95 175.68L33.8 178.76L35.77 181.77L37.85 184.69L40.04 187.53L42.34 190.29L44.74 192.95L47.24 195.52L49.84 198L52.53 200.37L55.32 202.65L58.19 204.82L61.14 206.88L64.18 208.83L67.3 210.66L70.49 212.38L73.76 213.98L77.09 215.45L80.49 216.8L83.96 218.02L87.48 219.11L91.06 220.06L94.7 220.87L98.39 221.55L102.13 222.08L105.91 222.46L109.74 222.69L113.6 222.76L117.46 222.69L121.29 222.46L125.07 222.08L128.81 221.55L132.5 220.87L136.13 220.06L139.72 219.11L143.24 218.02L146.71 216.8L150.11 215.45L153.44 213.98L156.71 212.38L159.9 210.66L163.02 208.83L166.06 206.88L169.01 204.82L171.88 202.65L174.67 200.37L177.36 198L179.96 195.52L182.46 192.95L184.86 190.29L187.16 187.53L189.35 184.69L191.43 181.77L193.4 178.76L195.25 175.68L196.99 172.52L198.6 169.29L200.1 165.99L201.46 162.62L202.69 159.19L203.79 155.7L204.75 152.16L205.57 148.56L206.25 144.91L206.79 141.21L207.17 137.47L207.41 133.68L207.49 129.86L207.41 126.03L207.17 122.25L206.79 118.5L206.25 114.81L205.57 111.16L204.75 107.56L203.79 104.01L202.69 100.52L201.46 97.09L200.1 93.73L198.6 90.43L196.99 87.2L195.25 84.04L193.4 80.95L191.43 77.95L189.35 75.02L187.15 72.18L184.86 69.43L182.46 66.76L179.95 64.19L177.36 61.72L174.66 59.34L171.88 57.07L169.01 54.9L166.05 52.84L163.02 50.89L159.9 49.05L156.71 47.33L153.44 45.74L150.11 44.26L146.71 42.91L143.24 41.69L139.72 40.6L136.13 39.65L132.5 38.84L128.81 38.17L125.07 37.64L121.29 37.26L117.46 37.03L113.6 36.95L109.74 37.03L105.91 37.26Z" id="atrx1aZAw"></path><path d="M259.55 307.19L262.97 307.54L266.35 308.01L269.68 308.62L272.96 309.36L276.2 310.22L279.39 311.2L282.52 312.3L285.59 313.52L288.6 314.85L291.55 316.3L294.44 317.85L297.25 319.51L300 321.27L302.67 323.13L305.26 325.09L307.78 327.15L310.21 329.29L312.56 331.53L314.82 333.85L316.98 336.26L319.06 338.75L321.04 341.31L322.92 343.96L324.7 346.67L326.38 349.46L327.95 352.31L329.4 355.23L330.75 358.21L331.98 361.25L333.1 364.35L334.09 367.5L334.96 370.71L335.7 373.96L336.32 377.26L336.8 380.6L337.15 383.98L337.36 387.4L337.43 390.86L337.36 394.31L337.15 397.73L336.8 401.11L336.32 404.45L335.7 407.75L334.96 411L334.09 414.21L333.1 417.36L331.98 420.46L330.75 423.5L329.41 426.48L327.95 429.4L326.38 432.25L324.7 435.04L322.92 437.76L321.04 440.4L319.06 442.97L316.98 445.45L314.82 447.86L312.56 450.18L310.21 452.42L307.78 454.57L305.26 456.62L302.67 458.58L300 460.44L297.25 462.2L294.44 463.86L291.55 465.41L288.6 466.86L285.59 468.19L282.52 469.41L279.39 470.51L276.2 471.49L272.97 472.35L269.68 473.09L266.35 473.7L262.97 474.17L259.55 474.52L256.1 474.73L252.61 474.8L249.11 474.73L245.66 474.52L242.24 474.17L238.86 473.7L235.53 473.09L232.25 472.35L229.01 471.49L225.82 470.51L222.69 469.41L219.62 468.19L216.61 466.86L213.66 465.41L210.77 463.86L207.96 462.2L205.21 460.44L202.54 458.58L199.95 456.62L197.43 454.57L195 452.42L192.65 450.18L190.39 447.86L188.23 445.45L186.15 442.97L184.17 440.4L182.29 437.76L180.51 435.04L178.83 432.25L177.26 429.4L175.8 426.48L174.46 423.5L173.23 420.46L172.11 417.36L171.12 414.21L170.25 411L169.51 407.75L168.89 404.45L168.41 401.11L168.06 397.73L167.85 394.31L167.78 390.86L167.85 387.4L168.06 383.98L168.41 380.6L168.89 377.26L169.51 373.96L170.25 370.71L171.12 367.5L172.11 364.35L173.23 361.25L174.46 358.21L175.8 355.23L177.26 352.31L178.83 349.46L180.51 346.67L182.29 343.96L184.17 341.31L186.15 338.75L188.23 336.26L190.39 333.85L192.65 331.53L195 329.29L197.43 327.15L199.95 325.09L202.54 323.13L205.21 321.27L207.96 319.51L210.77 317.85L213.66 316.3L216.61 314.85L219.62 313.52L222.69 312.3L225.82 311.2L229.01 310.22L232.25 309.36L235.53 308.62L238.86 308.01L242.24 307.54L245.66 307.19L249.11 306.98L252.61 306.91L256.1 306.98L259.55 307.19ZM246.27 314.6L243.16 314.91L240.08 315.35L237.04 315.9L234.05 316.57L231.1 317.35L228.19 318.25L225.34 319.25L222.54 320.37L219.79 321.58L217.1 322.9L214.48 324.31L211.91 325.82L209.41 327.43L206.97 329.12L204.61 330.91L202.32 332.78L200.1 334.74L197.96 336.78L195.9 338.9L193.92 341.09L192.03 343.36L190.23 345.7L188.51 348.11L186.89 350.58L185.36 353.12L183.93 355.72L182.6 358.38L181.37 361.1L180.25 363.87L179.24 366.7L178.33 369.57L177.54 372.49L176.86 375.45L176.3 378.46L175.86 381.51L175.55 384.59L175.35 387.71L175.29 390.85L175.35 394L175.55 397.12L175.86 400.2L176.3 403.25L176.86 406.25L177.54 409.22L178.33 412.14L179.24 415.01L180.25 417.84L181.38 420.61L182.6 423.32L183.93 425.99L185.36 428.59L186.89 431.13L188.51 433.6L190.23 436.01L192.03 438.35L193.92 440.62L195.9 442.81L197.96 444.93L200.1 446.97L202.32 448.92L204.61 450.8L206.97 452.58L209.41 454.28L211.91 455.89L214.48 457.4L217.1 458.81L219.79 460.13L222.54 461.34L225.34 462.45L228.19 463.46L231.1 464.35L234.05 465.14L237.04 465.81L240.08 466.36L243.16 466.8L246.27 467.11L249.42 467.3L252.61 467.36L255.79 467.3L258.94 467.11L262.05 466.8L265.13 466.36L268.17 465.81L271.16 465.14L274.11 464.35L277.02 463.46L279.87 462.45L282.67 461.34L285.42 460.13L288.11 458.81L290.73 457.4L293.3 455.89L295.8 454.28L298.24 452.58L300.6 450.8L302.89 448.92L305.11 446.97L307.25 444.93L309.31 442.81L311.29 440.62L313.18 438.35L314.98 436.01L316.7 433.6L318.32 431.13L319.85 428.59L321.28 425.98L322.61 423.32L323.83 420.61L324.96 417.83L325.97 415.01L326.88 412.14L327.67 409.22L328.35 406.25L328.91 403.25L329.35 400.2L329.66 397.12L329.85 394L329.92 390.85L329.85 387.71L329.66 384.59L329.35 381.51L328.91 378.46L328.35 375.45L327.67 372.49L326.88 369.57L325.97 366.7L324.96 363.87L323.83 361.1L322.61 358.38L321.28 355.72L319.85 353.12L318.32 350.58L316.7 348.11L314.98 345.7L313.18 343.36L311.29 341.09L309.31 338.9L307.25 336.78L305.11 334.74L302.89 332.78L300.6 330.91L298.24 329.12L295.8 327.43L293.3 325.82L290.73 324.31L288.11 322.9L285.42 321.58L282.67 320.37L279.87 319.25L277.02 318.25L274.11 317.35L271.16 316.57L268.17 315.9L265.13 315.35L262.05 314.91L258.94 314.6L255.79 314.41L252.61 314.34L249.42 314.41L246.27 314.6Z" id="a1IZj4fyFv"></path><path d="M260.18 290.85L264.27 291.26L268.3 291.83L272.29 292.56L276.21 293.44L280.08 294.47L283.89 295.64L287.63 296.96L291.31 298.41L294.91 300.01L298.43 301.73L301.88 303.59L305.25 305.57L308.53 307.68L311.72 309.9L314.82 312.24L317.83 314.7L320.73 317.27L323.54 319.94L326.24 322.72L328.83 325.59L331.31 328.57L333.68 331.63L335.93 334.79L338.06 338.04L340.06 341.37L341.93 344.78L343.68 348.27L345.29 351.84L346.76 355.47L348.09 359.17L349.28 362.94L350.32 366.77L351.21 370.66L351.94 374.6L352.52 378.59L352.93 382.64L353.18 386.72L353.27 390.85L353.18 394.98L352.93 399.07L352.52 403.11L351.94 407.11L351.21 411.05L350.32 414.94L349.28 418.77L348.09 422.53L346.76 426.24L345.29 429.87L343.68 433.44L341.93 436.93L340.06 440.34L338.06 443.67L335.93 446.92L333.68 450.07L331.31 453.14L328.83 456.12L326.24 458.99L323.54 461.77L320.73 464.44L317.83 467.01L314.82 469.47L311.72 471.81L308.53 474.03L305.25 476.14L301.88 478.12L298.43 479.98L294.91 481.7L291.31 483.29L287.63 484.75L283.89 486.07L280.08 487.24L276.21 488.27L272.29 489.15L268.3 489.88L264.27 490.45L260.18 490.86L256.05 491.11L251.88 491.19L247.7 491.11L243.57 490.86L239.49 490.45L235.45 489.88L231.47 489.15L227.54 488.27L223.67 487.24L219.86 486.07L216.12 484.75L212.45 483.29L208.85 481.7L205.32 479.98L201.87 478.12L198.51 476.14L195.23 474.03L192.04 471.81L188.94 469.47L185.93 467.01L183.02 464.44L180.22 461.77L177.52 458.99L174.92 456.12L172.44 453.14L170.07 450.07L167.83 446.92L165.7 443.67L163.69 440.34L161.82 436.93L160.08 433.44L158.47 429.87L156.99 426.24L155.66 422.53L154.48 418.77L153.44 414.94L152.55 411.05L151.81 407.11L151.24 403.11L150.82 399.07L150.57 394.98L150.49 390.85L150.57 386.72L150.82 382.64L151.24 378.59L151.81 374.6L152.55 370.66L153.44 366.77L154.48 362.94L155.66 359.17L156.99 355.47L158.47 351.84L160.08 348.27L161.82 344.78L163.69 341.37L165.7 338.04L167.82 334.79L170.07 331.63L172.44 328.57L174.92 325.59L177.51 322.72L180.22 319.94L183.02 317.27L185.93 314.7L188.93 312.24L192.04 309.9L195.23 307.68L198.51 305.57L201.87 303.59L205.32 301.73L208.85 300.01L212.45 298.41L216.12 296.96L219.86 295.64L223.67 294.47L227.54 293.44L231.47 292.56L235.45 291.83L239.49 291.26L243.57 290.85L247.7 290.6L251.88 290.52L256.05 290.6L260.18 290.85ZM244.19 298.26L240.41 298.64L236.67 299.17L232.98 299.84L229.34 300.65L225.76 301.61L222.23 302.69L218.77 303.91L215.37 305.26L212.03 306.74L208.77 308.33L205.58 310.05L202.46 311.89L199.42 313.84L196.47 315.9L193.6 318.07L190.81 320.34L188.12 322.72L185.52 325.19L183.02 327.76L180.62 330.43L178.32 333.18L176.13 336.02L174.05 338.95L172.08 341.95L170.22 345.04L168.49 348.2L166.87 351.43L165.38 354.73L164.02 358.09L162.79 361.52L161.69 365.01L160.73 368.56L159.9 372.16L159.22 375.81L158.69 379.5L158.31 383.25L158.07 387.03L157.99 390.86L158.07 394.68L158.31 398.46L158.69 402.21L159.22 405.91L159.9 409.56L160.73 413.16L161.69 416.7L162.79 420.19L164.02 423.62L165.38 426.99L166.87 430.29L168.49 433.52L170.22 436.68L172.08 439.76L174.05 442.77L176.13 445.69L178.32 448.53L180.62 451.29L183.02 453.95L185.52 456.52L188.12 459L190.81 461.37L193.6 463.65L196.47 465.81L199.42 467.87L202.46 469.82L205.58 471.66L208.77 473.38L212.03 474.98L215.37 476.45L218.77 477.8L222.23 479.02L225.76 480.11L229.34 481.06L232.98 481.87L236.67 482.55L240.41 483.07L244.19 483.45L248.01 483.69L251.88 483.76L255.74 483.69L259.57 483.45L263.35 483.07L267.09 482.55L270.77 481.87L274.41 481.06L277.99 480.11L281.52 479.02L284.98 477.8L288.39 476.45L291.72 474.98L294.99 473.38L298.18 471.66L301.29 469.82L304.33 467.87L307.29 465.81L310.16 463.65L312.94 461.37L315.63 459L318.23 456.52L320.73 453.95L323.13 451.29L325.43 448.53L327.62 445.69L329.7 442.77L331.67 439.76L333.53 436.68L335.27 433.52L336.88 430.29L338.37 426.99L339.73 423.62L340.97 420.19L342.07 416.7L343.03 413.16L343.85 409.56L344.53 405.91L345.06 402.21L345.45 398.46L345.68 394.68L345.76 390.86L345.68 387.03L345.45 383.25L345.06 379.5L344.53 375.81L343.85 372.16L343.03 368.56L342.07 365.01L340.97 361.52L339.73 358.09L338.37 354.73L336.88 351.43L335.27 348.2L333.53 345.04L331.67 341.95L329.7 338.95L327.62 336.02L325.43 333.18L323.13 330.43L320.73 327.76L318.23 325.19L315.63 322.72L312.94 320.34L310.16 318.07L307.29 315.9L304.33 313.84L301.29 311.89L298.18 310.05L294.99 308.33L291.72 306.74L288.39 305.26L284.98 303.91L281.52 302.69L277.99 301.61L274.41 300.65L270.77 299.84L267.09 299.17L263.35 298.64L259.57 298.26L255.74 298.03L251.88 297.95L248.01 298.03L244.19 298.26Z" id="c54lZPFWVf"></path><path d="M397.15 242.67L397.33 242.68L397.5 242.7L397.67 242.73L397.85 242.76L398.02 242.8L398.19 242.85L398.36 242.9L398.53 242.96L398.69 243.02L398.86 243.09L399.02 243.17L399.18 243.25L399.34 243.33L399.5 243.43L399.65 243.52L399.8 243.63L399.95 243.73L400.1 243.85L400.24 243.97L400.38 244.09L400.52 244.22L400.66 244.35L400.79 244.49L400.91 244.63L401.03 244.78L401.15 244.94L401.27 245.1L403.72 248.64L404.69 250.09L405.6 251.56L406.45 253.04L407.25 254.54L407.98 256.06L408.67 257.58L409.29 259.12L409.86 260.67L410.38 262.23L410.83 263.8L411.24 265.37L411.58 266.94L411.88 268.52L412.11 270.09L412.29 271.67L412.42 273.24L412.49 274.81L412.5 276.37L412.46 277.93L412.37 279.48L412.22 281.01L412.02 282.54L411.76 284.05L411.45 285.55L411.08 287.03L410.66 288.49L410.19 289.93L409.66 291.35L409.08 292.75L408.45 294.12L407.76 295.47L407.02 296.79L406.22 298.08L405.38 299.34L404.48 300.57L403.53 301.76L402.52 302.92L401.46 304.04L400.35 305.13L399.19 306.17L387.7 316.06L393.15 316.74L393.6 316.81L394.04 316.89L394.47 316.99L394.9 317.1L395.33 317.23L395.75 317.37L396.16 317.53L396.57 317.7L396.97 317.89L397.36 318.09L397.75 318.31L398.13 318.53L398.5 318.77L398.86 319.02L399.21 319.29L399.56 319.56L399.89 319.85L400.21 320.14L400.53 320.45L400.83 320.77L401.12 321.09L401.41 321.43L401.67 321.77L401.93 322.12L402.18 322.48L402.41 322.85L402.63 323.22L402.83 323.6L403.03 323.99L403.2 324.38L403.37 324.78L403.51 325.18L403.65 325.59L403.76 326.01L403.87 326.42L403.95 326.84L404.02 327.27L404.07 327.7L404.11 328.13L404.12 328.56L404.12 328.78L404.12 329L404.11 329.22L404.1 329.43L404.09 329.65L404.07 329.86L404.04 330.07L404.01 330.29L403.98 330.49L403.94 330.7L403.9 330.91L403.86 331.11L403.81 331.32L403.75 331.52L403.7 331.72L403.63 331.92L403.57 332.11L403.5 332.31L403.42 332.5L403.35 332.69L403.26 332.88L403.18 333.06L403.09 333.25L403 333.43L402.9 333.61L402.8 333.78L402.69 333.96L402.58 334.13L402.47 334.3L402.35 334.47L402.23 334.63L402.11 334.8L401.98 334.96L401.85 335.11L401.71 335.27L401.57 335.42L401.43 335.57L401.28 335.71L401.13 335.86L400.98 336L400.82 336.13L400.66 336.27L400.5 336.4L400.33 336.52L400.17 336.64L400 336.76L399.83 336.87L399.65 336.98L399.48 337.09L399.3 337.19L399.12 337.29L398.94 337.38L398.75 337.47L398.57 337.55L398.38 337.63L398.19 337.71L398 337.78L397.8 337.85L397.61 337.92L397.41 337.98L397.21 338.03L397.01 338.09L396.81 338.13L396.61 338.18L396.4 338.22L396.2 338.25L395.99 338.28L395.78 338.31L395.57 338.33L395.36 338.35L395.15 338.37L394.93 338.38L394.72 338.38L394.5 338.38L394.29 338.38L394.07 338.37L393.85 338.36L393.63 338.34L393.41 338.32L393.19 338.29L361.38 334.32L361.17 334.29L360.95 334.26L360.74 334.22L360.52 334.18L360.31 334.13L360.1 334.08L359.89 334.03L359.68 333.97L359.47 333.91L359.26 333.85L359.06 333.78L358.85 333.71L358.65 333.63L358.45 333.55L358.24 333.47L358.04 333.38L357.85 333.29L357.65 333.19L357.45 333.09L357.26 332.99L357.07 332.89L356.88 332.78L356.69 332.66L356.5 332.55L356.32 332.43L356.14 332.3L355.95 332.17L355.78 332.04L355.6 331.91L355.42 331.77L355.25 331.63L355.08 331.49L354.91 331.34L354.74 331.19L354.58 331.04L354.42 330.88L354.26 330.72L354.1 330.55L353.95 330.39L353.8 330.22L353.65 330.04L353.5 329.87L353.36 329.69L353.22 329.52L353.09 329.34L352.95 329.15L352.83 328.97L352.7 328.78L352.58 328.6L352.46 328.41L352.35 328.22L352.24 328.02L352.14 327.83L352.03 327.64L351.94 327.44L351.84 327.24L351.75 327.04L351.66 326.84L351.58 326.64L351.5 326.44L351.42 326.23L351.35 326.03L351.28 325.82L351.22 325.62L351.16 325.41L351.1 325.2L351.05 324.99L351 324.78L350.96 324.57L350.92 324.36L350.88 324.15L350.85 323.93L350.82 323.72L350.8 323.51L350.78 323.29L350.76 323.08L350.75 322.86L350.74 322.65L350.74 322.43L350.74 322.22L351.16 290.49L351.17 290.27L351.18 290.05L351.19 289.83L351.21 289.62L351.23 289.4L351.26 289.19L351.29 288.98L351.32 288.77L351.36 288.56L351.4 288.36L351.45 288.15L351.5 287.95L351.56 287.75L351.62 287.55L351.68 287.35L351.75 287.16L351.82 286.97L351.9 286.78L351.98 286.59L352.06 286.4L352.15 286.22L352.24 286.03L352.34 285.85L352.44 285.67L352.54 285.5L352.65 285.33L352.76 285.16L352.87 284.99L352.99 284.82L353.11 284.66L353.24 284.5L353.37 284.34L353.5 284.18L353.64 284.03L353.78 283.88L353.92 283.74L354.07 283.59L354.22 283.45L354.38 283.31L354.54 283.18L354.7 283.05L354.86 282.92L355.03 282.79L355.2 282.68L355.37 282.56L355.54 282.45L355.72 282.34L355.89 282.24L356.07 282.14L356.26 282.04L356.44 281.95L356.62 281.86L356.81 281.78L357 281.7L357.19 281.63L357.39 281.55L357.58 281.49L357.78 281.43L357.97 281.37L358.17 281.31L358.38 281.26L358.58 281.22L358.78 281.18L358.99 281.14L359.19 281.1L359.4 281.08L359.61 281.05L359.82 281.03L360.03 281.01L360.24 281L360.46 281L360.67 280.99L360.89 280.99L361.1 281L361.32 281.01L361.54 281.02L361.76 281.04L361.98 281.07L362.2 281.09L362.42 281.13L362.85 281.2L363.27 281.29L363.69 281.4L364.11 281.53L364.52 281.67L364.92 281.83L365.32 282L365.71 282.19L366.09 282.39L366.47 282.6L366.84 282.83L367.2 283.07L367.55 283.33L367.9 283.59L368.23 283.87L368.56 284.16L368.87 284.46L369.18 284.77L369.48 285.1L369.76 285.43L370.04 285.77L370.3 286.12L370.55 286.48L370.79 286.84L371.02 287.22L371.23 287.6L371.43 287.99L371.62 288.39L371.8 288.79L371.96 289.2L372.1 289.61L372.24 290.03L372.35 290.45L372.45 290.88L372.54 291.31L372.61 291.74L372.66 292.18L372.7 292.62L372.72 293.06L372.72 293.51L372.65 298.95L383.91 289.25L384.73 288.52L385.52 287.77L386.27 287L387 286.21L387.7 285.39L388.38 284.56L389.02 283.71L389.63 282.83L390.21 281.94L390.77 281.03L391.29 280.11L391.78 279.16L392.24 278.2L392.68 277.23L393.08 276.24L393.45 275.24L393.79 274.23L394.1 273.2L394.38 272.17L394.62 271.12L394.84 270.06L395.02 268.99L395.18 267.91L395.3 266.83L395.38 265.74L395.44 264.64L395.46 263.53L395.46 262.42L395.41 261.3L395.34 260.18L395.23 259.06L395.09 257.93L394.92 256.8L394.71 255.67L394.47 254.54L394.2 253.41L393.89 252.28L393.55 251.15L393.18 250.02L392.77 248.9L392.7 248.71L392.64 248.53L392.59 248.35L392.55 248.17L392.51 247.99L392.48 247.81L392.45 247.63L392.43 247.45L392.42 247.28L392.41 247.1L392.41 246.92L392.42 246.75L392.43 246.58L392.45 246.41L392.48 246.24L392.51 246.07L392.55 245.91L392.59 245.75L392.64 245.59L392.69 245.43L392.75 245.28L392.82 245.12L392.89 244.98L392.97 244.83L393.05 244.69L393.14 244.55L393.24 244.42L393.34 244.28L393.44 244.16L393.55 244.03L393.67 243.91L393.79 243.8L393.91 243.69L394.04 243.58L394.18 243.48L394.32 243.38L394.47 243.29L394.62 243.21L394.78 243.12L394.94 243.05L395.1 242.98L395.27 242.92L395.43 242.86L395.6 242.81L395.77 242.77L395.94 242.73L396.11 242.7L396.29 242.68L396.46 242.67L396.63 242.66L396.81 242.65L396.98 242.66L397.15 242.67ZM400.76 256.08L400.95 257.23L401.1 258.37L401.23 259.51L401.33 260.65L401.4 261.79L401.44 262.92L401.45 264.04L401.44 265.17L401.39 266.28L401.32 267.39L401.21 268.5L401.08 269.6L400.92 270.69L400.74 271.77L400.52 272.84L400.28 273.91L400.01 274.96L399.71 276.01L399.38 277.04L399.03 278.07L398.64 279.08L398.24 280.08L397.8 281.07L397.34 282.04L396.85 283L396.33 283.95L395.79 284.88L395.22 285.8L394.62 286.7L394 287.58L393.35 288.45L392.68 289.3L391.98 290.13L391.25 290.94L390.5 291.74L389.72 292.51L388.92 293.27L388.09 294L371.65 308.16L371.58 308.21L371.52 308.26L371.45 308.31L371.38 308.36L371.31 308.41L371.23 308.45L371.16 308.49L371.08 308.53L371.01 308.56L370.93 308.59L370.85 308.62L370.77 308.65L370.69 308.68L370.61 308.7L370.53 308.72L370.45 308.74L370.36 308.75L370.28 308.76L370.19 308.77L370.11 308.78L370.02 308.79L369.94 308.79L369.85 308.79L369.76 308.79L369.67 308.78L369.59 308.77L369.5 308.76L369.41 308.75L369.33 308.74L369.24 308.72L369.15 308.7L369.06 308.67L368.98 308.65L368.89 308.62L368.8 308.59L368.72 308.56L368.63 308.52L368.55 308.48L368.46 308.44L368.38 308.4L368.3 308.35L368.22 308.3L368.14 308.25L368.06 308.2L367.98 308.14L367.91 308.09L367.83 308.03L367.76 307.97L367.69 307.91L367.62 307.84L367.56 307.78L367.49 307.71L367.43 307.64L367.37 307.57L367.31 307.5L367.26 307.43L367.2 307.36L367.15 307.28L367.1 307.21L367.05 307.13L367 307.05L366.96 306.97L366.92 306.89L366.88 306.81L366.84 306.72L366.81 306.64L366.77 306.56L366.74 306.47L366.71 306.38L366.69 306.3L366.66 306.21L366.64 306.12L366.63 306.04L366.61 305.95L366.6 305.86L366.59 305.77L366.58 305.68L366.57 305.59L366.57 305.5L366.57 305.41L366.74 292.76L366.74 292.65L366.74 292.54L366.73 292.44L366.72 292.33L366.72 292.22L366.71 292.11L366.69 292L366.68 291.9L366.66 291.79L366.64 291.68L366.62 291.58L366.6 291.47L366.58 291.37L366.55 291.26L366.52 291.16L366.49 291.06L366.46 290.95L366.42 290.85L366.39 290.75L366.35 290.65L366.31 290.55L366.27 290.45L366.23 290.35L366.18 290.26L366.14 290.16L366.09 290.06L366.04 289.97L365.99 289.88L365.93 289.78L365.88 289.69L365.82 289.6L365.77 289.51L365.71 289.42L365.65 289.34L365.59 289.25L365.52 289.17L365.46 289.08L365.39 289L365.32 288.92L365.25 288.84L365.19 288.77L365.13 288.7L365.07 288.64L365 288.57L364.94 288.51L364.87 288.44L364.8 288.38L364.73 288.32L364.67 288.26L364.6 288.2L364.52 288.14L364.45 288.08L364.38 288.03L364.31 287.97L364.23 287.92L364.16 287.87L364.08 287.82L364 287.77L363.93 287.72L363.85 287.68L363.77 287.63L363.69 287.59L363.61 287.55L363.53 287.51L363.45 287.47L363.37 287.43L363.28 287.39L363.2 287.36L363.12 287.33L363.03 287.3L362.95 287.27L362.86 287.24L362.77 287.21L362.69 287.19L362.6 287.16L362.51 287.14L362.42 287.12L362.34 287.1L362.25 287.09L362.16 287.07L362.06 287.06L361.96 287.05L361.86 287.04L361.77 287.03L361.67 287.02L361.57 287.02L361.48 287.01L361.38 287.01L361.28 287.01L361.19 287.02L361.1 287.02L361 287.03L360.91 287.04L360.81 287.05L360.72 287.06L360.63 287.08L360.54 287.09L360.45 287.11L360.36 287.13L360.27 287.15L360.18 287.18L360.09 287.2L360 287.23L359.92 287.26L359.83 287.29L359.75 287.33L359.66 287.36L359.58 287.4L359.5 287.44L359.41 287.48L359.33 287.52L359.25 287.56L359.17 287.61L359.1 287.66L359.02 287.71L358.94 287.76L358.87 287.81L358.79 287.87L358.72 287.92L358.65 287.98L358.58 288.04L358.51 288.1L358.44 288.17L358.38 288.23L358.31 288.3L358.25 288.36L358.19 288.43L358.13 288.5L358.07 288.57L358.02 288.64L357.96 288.71L357.91 288.79L357.86 288.86L357.81 288.94L357.76 289.02L357.71 289.09L357.67 289.17L357.63 289.25L357.59 289.33L357.55 289.42L357.51 289.5L357.47 289.58L357.44 289.67L357.41 289.75L357.38 289.84L357.35 289.93L357.32 290.02L357.3 290.11L357.28 290.2L357.26 290.29L357.24 290.38L357.22 290.47L357.2 290.56L357.19 290.66L357.18 290.75L357.17 290.85L357.16 290.94L357.15 291.04L357.15 291.14L357.15 291.24L356.73 322.97L356.73 323.06L356.73 323.16L356.73 323.25L356.74 323.35L356.74 323.44L356.75 323.54L356.76 323.64L356.77 323.73L356.79 323.82L356.81 323.92L356.82 324.01L356.84 324.11L356.86 324.2L356.89 324.29L356.91 324.39L356.94 324.48L356.97 324.57L357 324.66L357.03 324.75L357.06 324.84L357.1 324.93L357.14 325.02L357.18 325.11L357.22 325.2L357.26 325.29L357.3 325.38L357.35 325.46L357.39 325.55L357.44 325.64L357.49 325.72L357.55 325.8L357.6 325.89L357.65 325.97L357.71 326.05L357.77 326.13L357.83 326.21L357.89 326.29L357.95 326.37L358.02 326.45L358.09 326.53L358.15 326.6L358.22 326.68L358.29 326.75L358.36 326.82L358.43 326.89L358.51 326.96L358.58 327.02L358.66 327.09L358.73 327.15L358.81 327.22L358.89 327.28L358.97 327.34L359.05 327.4L359.13 327.45L359.21 327.51L359.29 327.56L359.37 327.61L359.46 327.66L359.54 327.71L359.63 327.76L359.71 327.81L359.8 327.85L359.89 327.89L359.98 327.93L360.06 327.97L360.15 328.01L360.24 328.04L360.33 328.08L360.43 328.11L360.52 328.14L360.61 328.17L360.7 328.2L360.8 328.22L360.89 328.25L360.98 328.27L361.08 328.29L361.17 328.31L361.27 328.32L361.36 328.34L361.46 328.35L393.27 332.33L393.37 332.34L393.47 332.35L393.57 332.35L393.66 332.36L393.76 332.36L393.86 332.37L393.95 332.36L394.05 332.36L394.14 332.36L394.24 332.35L394.33 332.34L394.42 332.33L394.52 332.32L394.61 332.31L394.7 332.29L394.79 332.27L394.88 332.25L394.97 332.23L395.06 332.21L395.15 332.19L395.24 332.16L395.32 332.13L395.41 332.1L395.49 332.07L395.58 332.03L395.66 332L395.75 331.96L395.83 331.92L395.91 331.88L395.99 331.83L396.07 331.79L396.15 331.74L396.22 331.69L396.3 331.64L396.38 331.59L396.45 331.54L396.52 331.48L396.6 331.42L396.67 331.36L396.74 331.3L396.81 331.24L396.87 331.18L396.94 331.11L397 331.05L397.06 330.98L397.12 330.91L397.18 330.84L397.24 330.77L397.29 330.7L397.35 330.62L397.4 330.55L397.45 330.47L397.5 330.4L397.55 330.32L397.59 330.24L397.63 330.16L397.68 330.08L397.72 330L397.75 329.92L397.79 329.83L397.83 329.75L397.86 329.66L397.89 329.58L397.92 329.49L397.95 329.4L397.97 329.31L398 329.22L398.02 329.13L398.04 329.04L398.06 328.95L398.07 328.86L398.09 328.76L398.1 328.67L398.11 328.57L398.12 328.48L398.13 328.38L398.13 328.28L398.13 328.19L398.13 328.09L398.13 327.99L398.13 327.8L398.11 327.61L398.09 327.42L398.06 327.23L398.02 327.04L397.97 326.86L397.92 326.67L397.85 326.49L397.79 326.31L397.71 326.13L397.63 325.96L397.54 325.79L397.45 325.62L397.35 325.45L397.24 325.29L397.13 325.12L397.01 324.97L396.88 324.81L396.75 324.67L396.62 324.52L396.48 324.38L396.33 324.24L396.18 324.11L396.03 323.98L395.87 323.86L395.71 323.74L395.54 323.63L395.37 323.52L395.2 323.42L395.02 323.32L394.84 323.23L394.65 323.15L394.46 323.07L394.27 323L394.08 322.94L393.88 322.88L393.68 322.83L393.48 322.78L393.28 322.74L393.07 322.72L380.4 321.13L380.31 321.12L380.22 321.1L380.13 321.09L380.04 321.07L379.95 321.04L379.86 321.02L379.78 320.99L379.69 320.96L379.61 320.93L379.52 320.89L379.44 320.85L379.36 320.81L379.28 320.77L379.2 320.73L379.12 320.68L379.04 320.64L378.96 320.58L378.89 320.53L378.81 320.48L378.74 320.42L378.67 320.36L378.6 320.3L378.53 320.24L378.47 320.18L378.4 320.11L378.34 320.05L378.28 319.98L378.22 319.91L378.16 319.83L378.1 319.76L378.05 319.68L378 319.61L377.95 319.53L377.9 319.45L377.85 319.37L377.81 319.29L377.77 319.2L377.73 319.12L377.69 319.03L377.66 318.94L377.62 318.85L377.59 318.77L377.57 318.68L377.54 318.59L377.52 318.5L377.5 318.41L377.49 318.32L377.47 318.23L377.46 318.14L377.45 318.06L377.45 317.97L377.44 317.88L377.44 317.79L377.44 317.71L377.45 317.62L377.46 317.53L377.46 317.45L377.48 317.36L377.49 317.28L377.51 317.2L377.53 317.11L377.55 317.03L377.57 316.95L377.6 316.87L377.63 316.79L377.66 316.71L377.69 316.64L377.73 316.56L377.77 316.49L377.81 316.42L377.85 316.34L377.9 316.27L377.95 316.21L378 316.14L378.05 316.07L378.11 316.01L378.16 315.95L378.22 315.89L378.28 315.83L378.35 315.77L395.01 301.42L395.98 300.56L396.9 299.66L397.78 298.73L398.62 297.78L399.42 296.8L400.17 295.78L400.88 294.75L401.56 293.69L402.18 292.6L402.77 291.49L403.32 290.37L403.82 289.22L404.28 288.05L404.7 286.87L405.07 285.66L405.4 284.45L405.69 283.22L405.94 281.97L406.14 280.72L406.3 279.46L406.42 278.18L406.49 276.9L406.52 275.61L406.51 274.31L406.45 273.01L406.35 271.71L406.2 270.41L406.02 269.1L405.78 267.8L405.51 266.49L405.19 265.19L404.82 263.89L404.41 262.6L403.96 261.31L403.46 260.03L402.92 258.76L402.33 257.5L401.7 256.25L401.02 255.02L400.3 253.79L400.54 254.94L400.76 256.08Z" id="al7F2gPYz"></path><path d="M108.93 242.66L109.09 242.67L109.25 242.69L109.41 242.71L109.57 242.73L109.73 242.76L109.88 242.8L110.04 242.84L110.2 242.89L110.35 242.94L110.5 243L110.66 243.06L110.81 243.13L110.96 243.2L111.11 243.28L111.25 243.37L111.4 243.46L111.54 243.55L111.69 243.66L111.84 243.78L111.98 243.89L112.12 244.02L112.25 244.14L112.37 244.27L112.49 244.41L112.61 244.54L112.72 244.68L112.82 244.83L112.92 244.97L113.01 245.12L113.1 245.28L113.18 245.43L113.25 245.59L113.32 245.75L113.38 245.91L113.44 246.07L113.49 246.24L113.54 246.41L113.58 246.58L113.61 246.75L113.64 246.92L113.66 247.09L113.67 247.26L113.68 247.44L113.68 247.61L113.68 247.78L113.67 247.96L113.65 248.13L113.62 248.31L113.59 248.48L113.56 248.66L113.51 248.83L113.46 249.01L113.41 249.18L113.35 249.35L113.28 249.52L113.2 249.69L113.12 249.86L112.59 250.9L112.11 251.94L111.65 253L111.23 254.07L110.84 255.14L110.49 256.22L110.17 257.31L109.88 258.4L109.63 259.49L109.41 260.6L109.23 261.7L109.07 262.81L108.95 263.92L108.86 265.03L108.81 266.14L108.79 267.25L108.8 268.36L108.84 269.47L108.92 270.57L109.03 271.68L109.17 272.78L109.34 273.87L109.55 274.96L109.78 276.05L110.05 277.13L110.35 278.2L110.69 279.26L111.05 280.32L111.45 281.37L111.88 282.4L112.34 283.43L112.83 284.44L113.35 285.44L113.91 286.43L114.5 287.41L115.11 288.37L115.76 289.32L116.44 290.25L117.15 291.17L117.89 292.06L128.15 304.13L128.63 298.68L128.67 298.24L128.74 297.8L128.82 297.37L128.92 296.94L129.03 296.52L129.16 296.11L129.3 295.7L129.46 295.31L129.64 294.92L129.82 294.53L130.03 294.16L130.24 293.79L130.47 293.44L130.71 293.09L130.96 292.75L131.23 292.43L131.5 292.11L131.79 291.81L132.09 291.51L132.39 291.23L132.71 290.96L133.04 290.7L133.38 290.45L133.72 290.22L134.08 290L134.44 289.79L134.81 289.6L135.19 289.42L135.57 289.25L135.96 289.1L136.36 288.97L136.76 288.85L137.17 288.74L137.59 288.65L138 288.58L138.43 288.53L138.85 288.49L139.28 288.47L139.72 288.47L140.16 288.48L140.38 288.5L140.6 288.51L140.82 288.54L141.04 288.56L141.26 288.6L141.48 288.63L141.69 288.67L141.91 288.72L142.12 288.76L142.33 288.82L142.55 288.87L142.75 288.93L142.96 289L143.17 289.07L143.37 289.14L143.58 289.22L143.78 289.3L143.98 289.38L144.17 289.47L144.37 289.56L144.56 289.66L144.75 289.76L144.94 289.86L145.13 289.97L145.32 290.08L145.5 290.2L145.68 290.32L145.86 290.44L146.04 290.57L146.21 290.7L146.38 290.83L146.55 290.97L146.72 291.11L146.88 291.25L147.04 291.4L147.2 291.55L147.36 291.71L147.51 291.87L147.66 292.03L147.81 292.19L147.95 292.36L148.1 292.53L148.23 292.71L148.37 292.88L148.5 293.06L148.62 293.24L148.74 293.42L148.86 293.6L148.97 293.79L149.08 293.98L149.19 294.16L149.29 294.36L149.39 294.55L149.48 294.74L149.57 294.94L149.66 295.14L149.74 295.33L149.81 295.53L149.89 295.74L149.96 295.94L150.02 296.14L150.08 296.35L150.14 296.56L150.19 296.76L150.24 296.97L150.28 297.18L150.32 297.4L150.36 297.61L150.39 297.82L150.42 298.04L150.44 298.25L150.46 298.47L150.47 298.68L150.48 298.9L150.48 299.12L150.49 299.34L150.48 299.56L150.47 299.78L150.46 300L150.44 300.22L147.67 332.02L147.62 332.46L147.56 332.9L147.48 333.33L147.38 333.76L147.26 334.17L147.13 334.58L146.98 334.98L146.82 335.38L146.64 335.76L146.45 336.14L146.24 336.51L146.02 336.87L145.79 337.22L145.54 337.56L145.29 337.89L145.01 338.2L144.73 338.51L144.44 338.81L144.13 339.09L143.82 339.37L143.49 339.63L143.15 339.88L142.81 340.12L142.45 340.34L142.09 340.55L141.72 340.74L141.34 340.93L140.95 341.09L140.55 341.25L140.15 341.39L139.74 341.51L139.33 341.62L138.91 341.71L138.48 341.78L138.05 341.84L137.62 341.88L137.18 341.91L136.73 341.91L136.29 341.9L135.84 341.87L103.7 339.13L103.48 339.11L103.25 339.08L103.03 339.05L102.82 339.02L102.6 338.98L102.38 338.94L102.17 338.89L101.95 338.84L101.74 338.79L101.53 338.73L101.32 338.67L101.12 338.6L100.91 338.53L100.71 338.45L100.51 338.38L100.31 338.29L100.11 338.21L99.91 338.12L99.72 338.02L99.52 337.92L99.33 337.82L99.15 337.72L98.96 337.61L98.78 337.49L98.59 337.38L98.41 337.25L98.24 337.13L98.06 337L97.89 336.87L97.72 336.74L97.55 336.6L97.39 336.45L97.22 336.31L97.07 336.16L96.91 336.01L96.75 335.85L96.6 335.69L96.45 335.53L96.31 335.36L96.16 335.19L96.03 335.02L95.89 334.84L95.76 334.67L95.63 334.49L95.51 334.31L95.39 334.12L95.27 333.94L95.16 333.75L95.05 333.56L94.95 333.37L94.85 333.18L94.75 332.99L94.66 332.79L94.57 332.6L94.49 332.4L94.41 332.2L94.33 332L94.26 331.79L94.2 331.59L94.13 331.38L94.07 331.18L94.02 330.97L93.97 330.76L93.92 330.55L93.88 330.34L93.85 330.13L93.81 329.92L93.78 329.7L93.76 329.49L93.74 329.27L93.72 329.06L93.71 328.84L93.7 328.62L93.7 328.41L93.7 328.19L93.71 327.97L93.72 327.75L93.73 327.53L93.75 327.31L93.78 327.09L93.84 326.66L93.91 326.24L94.01 325.82L94.12 325.41L94.24 325.01L94.39 324.62L94.55 324.23L94.72 323.85L94.91 323.47L95.11 323.11L95.33 322.75L95.56 322.41L95.8 322.07L96.06 321.74L96.33 321.43L96.61 321.12L96.9 320.82L97.2 320.53L97.52 320.26L97.84 320L98.17 319.74L98.52 319.5L98.87 319.28L99.23 319.06L99.6 318.86L99.98 318.67L100.37 318.5L100.76 318.33L101.16 318.19L101.57 318.06L101.98 317.94L102.4 317.84L102.83 317.75L103.25 317.68L103.69 317.62L104.12 317.58L104.57 317.56L105.01 317.55L105.46 317.57L105.91 317.6L111.41 318.07L100.95 305.75L99.89 304.46L98.89 303.15L97.95 301.8L97.07 300.43L96.24 299.04L95.46 297.62L94.74 296.18L94.08 294.72L93.47 293.25L92.92 291.75L92.43 290.25L91.99 288.73L91.61 287.2L91.28 285.66L91.01 284.11L90.79 282.55L90.63 280.99L90.53 279.42L90.48 277.85L90.48 276.29L90.55 274.72L90.66 273.16L90.84 271.6L91.06 270.04L91.35 268.5L91.68 266.96L92.08 265.44L92.53 263.92L93.03 262.42L93.59 260.94L94.21 259.47L94.87 258.02L95.6 256.59L96.38 255.19L97.21 253.8L98.1 252.44L99.05 251.11L100.05 249.81L101.1 248.54L102.21 247.29L105.02 244.26L105.03 244.25L105.04 244.24L105.06 244.22L105.08 244.2L105.09 244.19L105.1 244.18L105.11 244.17L105.12 244.15L105.13 244.14L105.15 244.13L105.16 244.12L105.17 244.11L105.18 244.1L105.19 244.08L105.21 244.07L105.22 244.06L105.23 244.05L105.24 244.04L105.25 244.03L105.27 244.02L105.28 244L105.3 243.98L105.31 243.97L105.33 243.96L105.34 243.95L105.36 243.93L105.38 243.91L105.39 243.9L105.4 243.89L105.41 243.88L105.43 243.87L105.44 243.86L105.45 243.85L105.48 243.83L105.49 243.82L105.5 243.81L105.63 243.7L105.76 243.6L105.9 243.51L106.04 243.42L106.17 243.33L106.32 243.25L106.46 243.18L106.61 243.11L106.75 243.04L106.9 242.98L107.05 242.93L107.2 242.88L107.36 242.83L107.51 242.79L107.67 242.76L107.82 242.73L107.98 242.7L108.14 242.68L108.3 242.67L108.45 242.66L108.61 242.65L108.77 242.65L108.93 242.66ZM103.47 255.32L102.71 256.44L102 257.58L101.33 258.73L100.7 259.9L100.12 261.09L99.58 262.3L99.09 263.52L98.64 264.75L98.23 266L97.87 267.25L97.55 268.52L97.27 269.79L97.04 271.07L96.85 272.36L96.71 273.65L96.61 274.95L96.55 276.25L96.54 277.54L96.57 278.84L96.65 280.14L96.77 281.43L96.94 282.73L97.14 284.01L97.4 285.29L97.69 286.56L98.04 287.83L98.42 289.08L98.85 290.32L99.33 291.55L99.84 292.77L100.41 293.98L101.01 295.16L101.67 296.33L102.36 297.48L103.1 298.62L103.89 299.73L104.72 300.82L105.59 301.88L120.78 319.75L120.84 319.82L120.89 319.89L120.95 319.96L121 320.04L121.04 320.11L121.09 320.19L121.13 320.27L121.17 320.35L121.21 320.43L121.25 320.51L121.28 320.59L121.31 320.67L121.34 320.75L121.37 320.84L121.39 320.92L121.41 321.01L121.43 321.09L121.45 321.18L121.46 321.26L121.47 321.35L121.48 321.44L121.49 321.52L121.49 321.61L121.49 321.7L121.49 321.79L121.48 321.87L121.48 321.96L121.47 322.05L121.46 322.14L121.44 322.22L121.42 322.31L121.4 322.4L121.38 322.48L121.36 322.57L121.33 322.65L121.3 322.74L121.27 322.82L121.23 322.9L121.19 322.98L121.15 323.06L121.14 323.09L121.12 323.12L121.11 323.14L121.09 323.17L121.08 323.2L121.06 323.22L121.05 323.25L121.03 323.27L121.01 323.3L121 323.32L120.98 323.35L120.96 323.37L120.95 323.4L120.93 323.42L120.91 323.45L120.89 323.47L120.88 323.49L120.86 323.52L120.84 323.54L120.82 323.56L120.8 323.59L120.78 323.61L120.76 323.63L120.75 323.65L120.73 323.67L120.71 323.7L120.69 323.72L120.67 323.74L120.65 323.76L120.63 323.78L120.6 323.8L120.58 323.82L120.56 323.84L120.54 323.86L120.52 323.88L120.5 323.9L120.48 323.92L120.45 323.94L120.43 323.96L120.41 323.98L120.36 324.02L120.32 324.05L120.27 324.09L120.22 324.12L120.18 324.16L120.13 324.19L120.08 324.22L120.03 324.25L119.98 324.28L119.92 324.31L119.87 324.34L119.82 324.36L119.77 324.39L119.71 324.41L119.66 324.44L119.61 324.46L119.55 324.48L119.49 324.5L119.44 324.52L119.38 324.54L119.33 324.56L119.27 324.57L119.21 324.59L119.15 324.6L119.1 324.62L119.04 324.63L118.98 324.64L118.92 324.65L118.86 324.66L118.8 324.67L118.74 324.67L118.68 324.68L118.62 324.68L118.56 324.68L118.5 324.68L118.44 324.69L118.38 324.68L118.32 324.68L118.26 324.68L118.19 324.67L105.39 323.58L105.18 323.57L104.97 323.56L104.77 323.56L104.56 323.57L104.36 323.59L104.16 323.61L103.97 323.64L103.77 323.68L103.58 323.73L103.39 323.78L103.2 323.84L103.01 323.9L102.83 323.97L102.66 324.05L102.48 324.13L102.31 324.22L102.14 324.32L101.98 324.42L101.82 324.53L101.67 324.64L101.52 324.75L101.38 324.88L101.24 325L101.1 325.13L100.97 325.27L100.85 325.41L100.73 325.56L100.62 325.71L100.52 325.86L100.42 326.02L100.32 326.18L100.24 326.35L100.16 326.51L100.09 326.69L100.02 326.86L99.96 327.04L99.91 327.22L99.87 327.41L99.84 327.6L99.81 327.79L99.8 327.89L99.79 327.98L99.78 328.08L99.78 328.18L99.78 328.28L99.77 328.37L99.78 328.47L99.78 328.57L99.78 328.66L99.79 328.76L99.8 328.86L99.81 328.95L99.82 329.05L99.84 329.14L99.86 329.24L99.87 329.33L99.89 329.42L99.92 329.52L99.94 329.61L99.97 329.7L99.99 329.79L100.02 329.88L100.06 329.97L100.09 330.06L100.12 330.15L100.16 330.24L100.2 330.33L100.24 330.41L100.28 330.5L100.33 330.58L100.37 330.67L100.42 330.75L100.47 330.84L100.52 330.92L100.58 331L100.63 331.08L100.69 331.16L100.75 331.24L100.81 331.32L100.87 331.39L100.93 331.47L101 331.54L101.06 331.62L101.13 331.69L101.2 331.76L101.27 331.82L101.34 331.89L101.41 331.96L101.49 332.02L101.56 332.08L101.64 332.14L101.71 332.2L101.79 332.26L101.87 332.31L101.95 332.37L102.03 332.42L102.11 332.47L102.2 332.52L102.28 332.56L102.37 332.61L102.45 332.65L102.54 332.7L102.63 332.74L102.71 332.77L102.8 332.81L102.89 332.85L102.98 332.88L103.07 332.91L103.17 332.94L103.26 332.97L103.35 333L103.45 333.02L103.54 333.04L103.64 333.06L103.73 333.08L103.83 333.1L103.93 333.11L104.02 333.13L104.12 333.14L104.22 333.15L136.36 335.89L136.56 335.9L136.76 335.91L136.96 335.91L137.15 335.89L137.35 335.88L137.54 335.85L137.73 335.82L137.92 335.78L138.1 335.73L138.28 335.67L138.46 335.61L138.64 335.54L138.81 335.47L138.98 335.39L139.14 335.3L139.3 335.21L139.46 335.11L139.62 335L139.77 334.89L139.91 334.78L140.05 334.65L140.19 334.53L140.32 334.4L140.45 334.26L140.57 334.12L140.68 333.97L140.79 333.82L140.89 333.66L140.99 333.5L141.08 333.34L141.17 333.17L141.25 333L141.32 332.83L141.39 332.65L141.45 332.46L141.5 332.28L141.54 332.09L141.58 331.9L141.61 331.7L141.63 331.51L144.4 299.7L144.41 299.6L144.41 299.5L144.42 299.41L144.42 299.31L144.42 299.21L144.41 299.11L144.41 299.02L144.4 298.92L144.4 298.83L144.39 298.73L144.37 298.63L144.36 298.54L144.34 298.44L144.33 298.35L144.31 298.26L144.29 298.16L144.26 298.07L144.24 297.98L144.21 297.89L144.18 297.8L144.15 297.71L144.12 297.62L144.08 297.53L144.05 297.44L144.01 297.35L143.97 297.26L143.93 297.18L143.89 297.09L143.84 297.01L143.79 296.92L143.74 296.84L143.69 296.76L143.64 296.68L143.59 296.6L143.53 296.52L143.47 296.44L143.42 296.36L143.35 296.28L143.29 296.21L143.23 296.13L143.16 296.06L143.09 295.99L143.03 295.92L142.96 295.85L142.89 295.78L142.81 295.71L142.74 295.65L142.67 295.59L142.59 295.52L142.51 295.47L142.44 295.41L142.36 295.35L142.28 295.3L142.2 295.24L142.12 295.19L142.03 295.14L141.95 295.09L141.87 295.05L141.78 295L141.7 294.96L141.61 294.92L141.52 294.88L141.43 294.84L141.34 294.81L141.25 294.77L141.16 294.74L141.07 294.71L140.98 294.68L140.88 294.65L140.79 294.63L140.69 294.61L140.6 294.58L140.5 294.56L140.41 294.55L140.31 294.53L140.21 294.52L140.11 294.5L140.02 294.49L139.92 294.49L139.82 294.48L139.62 294.47L139.43 294.47L139.24 294.48L139.05 294.5L138.86 294.53L138.68 294.56L138.49 294.6L138.31 294.65L138.13 294.71L137.95 294.77L137.78 294.84L137.61 294.92L137.44 295L137.28 295.09L137.11 295.19L136.96 295.29L136.8 295.4L136.65 295.51L136.51 295.63L136.36 295.76L136.23 295.89L136.09 296.02L135.97 296.16L135.84 296.31L135.72 296.46L135.61 296.62L135.5 296.78L135.4 296.94L135.31 297.11L135.22 297.28L135.13 297.46L135.05 297.64L134.98 297.82L134.92 298.01L134.86 298.2L134.81 298.4L134.76 298.59L134.73 298.79L134.7 299L134.68 299.2L133.57 311.87L133.56 311.96L133.55 312.05L133.54 312.14L133.52 312.23L133.5 312.32L133.48 312.4L133.45 312.49L133.42 312.57L133.39 312.66L133.36 312.74L133.33 312.82L133.29 312.9L133.25 312.98L133.21 313.06L133.17 313.13L133.12 313.21L133.07 313.28L133.02 313.35L132.97 313.42L132.92 313.49L132.86 313.56L132.8 313.62L132.74 313.69L132.68 313.75L132.62 313.81L132.55 313.87L132.49 313.93L132.42 313.98L132.35 314.04L132.27 314.09L132.2 314.14L132.12 314.18L132.05 314.23L131.97 314.27L131.89 314.31L131.8 314.35L131.72 314.39L131.64 314.42L131.55 314.45L131.46 314.48L131.38 314.51L131.29 314.53L131.2 314.55L131.11 314.57L131.02 314.58L130.93 314.6L130.84 314.61L130.75 314.61L130.66 314.62L130.57 314.62L130.49 314.62L130.4 314.62L130.31 314.61L130.22 314.6L130.13 314.59L130.05 314.58L129.96 314.56L129.87 314.54L129.79 314.52L129.7 314.5L129.62 314.47L129.53 314.45L129.45 314.42L129.37 314.38L129.29 314.35L129.21 314.31L129.13 314.27L129.05 314.23L128.97 314.18L128.9 314.14L128.83 314.09L128.75 314.04L128.68 313.98L128.61 313.93L128.54 313.87L128.48 313.81L128.41 313.75L128.35 313.68L128.28 313.62L128.22 313.55L113.25 295.93L112.49 295.02L111.77 294.1L111.07 293.16L110.4 292.2L109.76 291.24L109.14 290.26L108.55 289.27L107.99 288.26L107.46 287.25L106.96 286.22L106.48 285.18L106.03 284.14L105.61 283.08L105.22 282.02L104.86 280.95L104.52 279.87L104.22 278.78L103.94 277.69L103.69 276.59L103.47 275.49L103.27 274.38L103.11 273.27L102.97 272.15L102.86 271.04L102.79 269.91L102.74 268.79L102.72 267.67L102.73 266.54L102.76 265.41L102.83 264.29L102.93 263.16L103.05 262.04L103.21 260.92L103.39 259.8L103.6 258.68L103.85 257.57L104.12 256.46L104.42 255.35L104.75 254.25L105.11 253.16L104.27 254.23L103.47 255.32Z" id="a1M49SJHYm"></path><path d="M275.12 367.13C274.2 357.32 269.4 348.21 262.38 342.6C265.27 342.6 288.38 342.6 291.27 342.6C293.01 342.6 294.44 341.03 294.44 339.1C294.44 337.17 293.01 335.6 291.27 335.6C284.54 335.6 230.75 335.6 224.03 335.6C222.28 335.6 220.85 337.17 220.85 339.1C220.85 341.03 222.28 342.6 224.03 342.6C225.95 342.6 241.36 342.6 243.28 342.6C256.37 342.6 267.18 353.47 268.74 367.13C264.27 367.13 228.5 367.13 224.03 367.13C222.28 367.13 220.85 368.71 220.85 370.64C220.85 372.56 222.28 374.14 224.03 374.14C228.5 374.14 264.27 374.14 268.74 374.14C267.15 388.33 256.22 398.98 243.28 399.02C241.36 399.02 225.98 399.02 224.06 399.02C222.28 399.05 220.85 400.67 220.88 402.63C220.88 403.57 221.26 404.48 221.86 405.15C226.67 410.16 265.14 450.28 269.94 455.29C271.22 456.62 273.22 456.55 274.42 455.15C275.63 453.72 275.57 451.51 274.3 450.14C271.48 447.2 257.38 432.5 232 406.03C238.75 406.03 242.5 406.03 243.25 406.03C259.84 406.03 273.53 392.01 275.12 374.14C276.74 374.14 289.65 374.14 291.27 374.14C293.01 374.14 294.44 372.56 294.44 370.64C294.44 368.71 293.01 367.13 291.27 367.13C288.04 367.13 276.74 367.13 275.12 367.13Z" id="c4Bl7cC3X"></path><path d="M398.67 36.95C344.75 36.95 301.03 80.21 301.03 133.57C301.03 186.94 344.75 230.2 398.67 230.2C452.6 230.2 496.31 186.94 496.31 133.57C496.31 80.21 452.6 36.95 398.67 36.95Z" id="a1Eve1EKe"></path><path d="M398.67 53.35C353.9 53.35 317.6 89.26 317.6 133.57C317.6 177.88 353.9 213.8 398.67 213.8C443.45 213.8 479.74 177.88 479.74 133.57C479.74 89.26 443.45 53.35 398.67 53.35Z" id="cHU9DXJqq"></path><path d="M354.17 126.75C352.27 126.75 350.74 125.32 350.74 123.56C350.74 121.8 352.27 120.38 354.17 120.38C359.34 120.38 400.7 120.38 405.87 120.38C407.76 120.38 409.29 121.8 409.29 123.56C409.29 125.32 407.76 126.75 405.87 126.75C395.53 126.75 359.34 126.75 354.17 126.75Z" id="c3mJ5y4Hgw"></path><path d="M381.45 169.7C367.61 162.03 359.35 148.52 359.35 133.57C359.35 118.62 367.61 105.12 381.44 97.45C395.31 89.76 412.03 89.41 426.16 96.49C427.83 97.33 428.45 99.26 427.55 100.81C426.65 102.36 424.57 102.94 422.91 102.1C410.92 96.09 396.73 96.4 384.95 102.93C373.22 109.43 366.21 120.89 366.21 133.57C366.21 146.26 373.22 157.71 384.96 164.23C396.73 170.75 410.91 171.06 422.91 165.04C424.57 164.21 426.65 164.78 427.55 166.33C428.45 167.88 427.83 169.81 426.16 170.65C419.41 174.03 412.06 175.72 404.72 175.72C396.7 175.72 388.69 173.71 381.45 169.7Z" id="gYIWZ5pUB"></path><path d="M354.17 146.77C352.27 146.77 350.74 145.34 350.74 143.58C350.74 141.82 352.27 140.4 354.17 140.4C359.34 140.4 400.7 140.4 405.87 140.4C407.76 140.4 409.29 141.82 409.29 143.58C409.29 145.34 407.76 146.77 405.87 146.77C395.53 146.77 359.34 146.77 354.17 146.77Z" id="b1ztZxbLNY"></path><path d="M405.62 49.91L409.04 50.25L412.41 50.73L415.75 51.34L419.03 52.08L422.27 52.94L425.45 53.92L428.58 55.02L431.66 56.24L434.67 57.57L437.62 59.01L440.5 60.57L443.32 62.23L446.06 63.99L448.74 65.85L451.33 67.81L453.84 69.86L456.28 72.01L458.62 74.25L460.88 76.57L463.05 78.97L465.13 81.46L467.11 84.03L468.99 86.67L470.77 89.39L472.45 92.18L474.01 95.03L475.47 97.95L476.82 100.93L478.05 103.97L479.17 107.07L480.16 110.22L481.03 113.42L481.77 116.68L482.38 119.98L482.87 123.32L483.22 126.7L483.43 130.12L483.5 133.57L483.43 137.03L483.22 140.45L482.87 143.83L482.38 147.17L481.77 150.47L481.03 153.72L480.16 156.92L479.17 160.08L478.05 163.17L476.82 166.22L475.47 169.2L474.01 172.12L472.45 174.97L470.77 177.76L468.99 180.47L467.11 183.12L465.13 185.68L463.05 188.17L460.88 190.58L458.62 192.9L456.28 195.14L453.84 197.28L451.33 199.34L448.74 201.3L446.06 203.16L443.32 204.92L440.5 206.58L437.62 208.13L434.67 209.58L431.66 210.91L428.58 212.13L425.45 213.23L422.27 214.21L419.03 215.07L415.75 215.81L412.41 216.42L409.04 216.89L405.62 217.24L402.16 217.45L398.67 217.52L395.18 217.45L391.72 217.24L388.31 216.89L384.93 216.42L381.6 215.81L378.31 215.07L375.07 214.21L371.89 213.23L368.76 212.13L365.69 210.91L362.67 209.58L359.72 208.13L356.84 206.58L354.02 204.92L351.28 203.16L348.61 201.3L346.01 199.34L343.5 197.28L341.07 195.14L338.72 192.9L336.46 190.58L334.29 188.17L332.21 185.68L330.23 183.12L328.35 180.47L326.57 177.76L324.9 174.97L323.33 172.12L321.87 169.2L320.52 166.22L319.29 163.17L318.18 160.08L317.19 156.92L316.32 153.72L315.57 150.47L314.96 147.17L314.48 143.83L314.13 140.45L313.92 137.03L313.85 133.57L313.92 130.12L314.13 126.7L314.48 123.32L314.96 119.98L315.57 116.68L316.32 113.42L317.19 110.22L318.18 107.07L319.29 103.97L320.52 100.93L321.87 97.95L323.33 95.03L324.9 92.18L326.57 89.39L328.35 86.67L330.23 84.03L332.21 81.46L334.29 78.97L336.46 76.57L338.72 74.25L341.07 72.01L343.5 69.86L346.01 67.81L348.61 65.85L351.28 63.99L354.02 62.23L356.84 60.57L359.72 59.01L362.67 57.57L365.69 56.24L368.76 55.02L371.89 53.92L375.07 52.94L378.31 52.08L381.6 51.34L384.93 50.73L388.31 50.25L391.72 49.91L395.18 49.7L398.67 49.63L402.16 49.7L405.62 49.91ZM392.34 57.31L389.22 57.63L386.15 58.06L383.11 58.62L380.11 59.29L377.16 60.07L374.26 60.97L371.41 61.97L368.61 63.08L365.86 64.3L363.17 65.61L360.54 67.03L357.98 68.54L355.47 70.15L353.04 71.84L350.67 73.63L348.38 75.5L346.17 77.46L344.03 79.5L341.97 81.61L339.99 83.81L338.1 86.08L336.29 88.41L334.58 90.82L332.96 93.3L331.43 95.84L330 98.44L328.67 101.1L327.44 103.82L326.32 106.59L325.3 109.41L324.4 112.29L323.61 115.21L322.93 118.17L322.37 121.18L321.93 124.22L321.61 127.31L321.42 130.42L321.36 133.57L321.42 136.72L321.61 139.84L321.93 142.92L322.37 145.97L322.93 148.97L323.61 151.94L324.4 154.86L325.3 157.73L326.32 160.55L327.44 163.33L328.67 166.04L330 168.7L331.43 171.31L332.96 173.85L334.58 176.32L336.29 178.73L338.1 181.07L339.99 183.34L341.97 185.53L344.03 187.65L346.17 189.69L348.38 191.64L350.68 193.52L353.04 195.3L355.47 197L357.98 198.6L360.54 200.12L363.17 201.53L365.86 202.85L368.61 204.06L371.41 205.17L374.26 206.18L377.16 207.07L380.11 207.86L383.11 208.53L386.15 209.08L389.22 209.52L392.34 209.83L395.49 210.02L398.67 210.08L401.85 210.02L405 209.83L408.12 209.52L411.2 209.08L414.23 208.53L417.23 207.86L420.18 207.07L423.08 206.18L425.94 205.17L428.74 204.06L431.48 202.85L434.17 201.53L436.8 200.12L439.37 198.6L441.87 197L444.3 195.3L446.67 193.52L448.96 191.64L451.18 189.69L453.32 187.65L455.38 185.53L457.35 183.34L459.25 181.07L461.05 178.73L462.77 176.32L464.39 173.84L465.92 171.3L467.35 168.7L468.68 166.04L469.9 163.32L471.03 160.55L472.04 157.73L472.95 154.86L473.74 151.94L474.41 148.97L474.97 145.97L475.41 142.92L475.73 139.84L475.92 136.72L475.99 133.57L475.92 130.42L475.73 127.31L475.41 124.22L474.97 121.18L474.41 118.17L473.74 115.21L472.95 112.29L472.04 109.41L471.03 106.59L469.9 103.82L468.68 101.1L467.35 98.44L465.92 95.84L464.39 93.3L462.77 90.82L461.05 88.41L459.25 86.08L457.35 83.81L455.38 81.61L453.32 79.5L451.18 77.46L448.96 75.5L446.67 73.63L444.3 71.84L441.87 70.15L439.37 68.54L436.8 67.03L434.17 65.61L431.48 64.3L428.74 63.08L425.94 61.97L423.08 60.97L420.18 60.07L417.23 59.29L414.23 58.62L411.2 58.06L408.12 57.63L405 57.31L401.85 57.12L398.67 57.06L395.49 57.12L392.34 57.31Z" id="b2p7vcYvqh"></path><path d="M406.98 33.57L411.06 33.98L415.1 34.55L419.08 35.28L423.01 36.16L426.88 37.18L430.69 38.36L434.43 39.67L438.1 41.13L441.7 42.72L445.23 44.45L448.68 46.31L452.04 48.29L455.32 50.39L458.51 52.62L461.62 54.96L464.62 57.42L467.53 59.98L470.33 62.66L473.04 65.43L475.63 68.31L478.11 71.28L480.48 74.35L482.73 77.51L484.85 80.76L486.86 84.09L488.73 87.5L490.48 90.99L492.08 94.55L493.56 98.19L494.89 101.89L496.07 105.66L497.11 109.49L498 113.38L498.74 117.32L499.31 121.31L499.73 125.36L499.98 129.44L500.07 133.57L499.98 137.7L499.73 141.79L499.31 145.83L498.74 149.83L498 153.77L497.11 157.66L496.07 161.49L494.89 165.25L493.56 168.96L492.08 172.59L490.47 176.16L488.73 179.65L486.86 183.06L484.85 186.39L482.72 189.63L480.48 192.79L478.11 195.86L475.63 198.84L473.03 201.71L470.33 204.49L467.53 207.16L464.62 209.73L461.61 212.18L458.51 214.53L455.32 216.75L452.04 218.86L448.68 220.84L445.23 222.69L441.7 224.42L438.1 226.01L434.43 227.47L430.68 228.79L426.88 229.96L423.01 230.99L419.08 231.87L415.1 232.59L411.06 233.17L406.97 233.58L402.84 233.83L398.67 233.91L394.5 233.83L390.37 233.58L386.28 233.17L382.25 232.59L378.26 231.87L374.33 230.99L370.47 229.96L366.66 228.79L362.92 227.47L359.24 226.01L355.64 224.42L352.12 222.69L348.67 220.84L345.3 218.86L342.02 216.75L338.83 214.53L335.73 212.18L332.72 209.73L329.82 207.16L327.01 204.49L324.31 201.71L321.72 198.83L319.23 195.86L316.87 192.79L314.62 189.63L312.49 186.39L310.49 183.06L308.61 179.64L306.87 176.15L305.26 172.59L303.79 168.96L302.46 165.25L301.27 161.48L300.23 157.66L299.34 153.77L298.61 149.83L298.03 145.83L297.61 141.79L297.36 137.7L297.28 133.57L297.36 129.44L297.61 125.35L298.03 121.31L298.61 117.32L299.34 113.38L300.23 109.49L301.27 105.66L302.46 101.89L303.79 98.19L305.26 94.55L306.87 90.99L308.61 87.5L310.49 84.09L312.49 80.76L314.62 77.51L316.87 74.35L319.23 71.28L321.71 68.31L324.31 65.43L327.01 62.66L329.81 59.98L332.72 57.42L335.73 54.96L338.83 52.62L342.02 50.39L345.3 48.29L348.67 46.31L352.11 44.45L355.64 42.72L359.24 41.13L362.92 39.67L366.66 38.36L370.46 37.18L374.33 36.15L378.26 35.28L382.25 34.55L386.28 33.98L390.37 33.57L394.5 33.32L398.67 33.23L402.84 33.32L406.98 33.57ZM390.98 40.97L387.2 41.35L383.46 41.88L379.77 42.56L376.14 43.37L372.55 44.32L369.03 45.41L365.56 46.63L362.16 47.98L358.83 49.45L355.56 51.05L352.37 52.77L349.25 54.6L346.22 56.55L343.26 58.61L340.39 60.78L337.61 63.06L334.91 65.43L332.32 67.91L329.81 70.48L327.41 73.14L325.12 75.9L322.92 78.74L320.84 81.66L318.87 84.67L317.02 87.75L315.28 90.91L313.67 94.14L312.18 97.44L310.81 100.81L309.58 104.24L308.48 107.73L307.52 111.27L306.7 114.87L306.02 118.52L305.48 122.22L305.1 125.96L304.86 129.75L304.79 133.57L304.86 137.4L305.1 141.18L305.48 144.92L306.02 148.62L306.7 152.27L307.52 155.87L308.48 159.42L309.58 162.91L310.81 166.34L312.18 169.7L313.67 173L315.28 176.23L317.02 179.39L318.87 182.48L320.84 185.48L322.92 188.41L325.12 191.25L327.41 194L329.81 196.67L332.32 199.24L334.91 201.71L337.61 204.09L340.39 206.36L343.26 208.53L346.22 210.59L349.25 212.54L352.37 214.38L355.56 216.1L358.83 217.69L362.16 219.17L365.56 220.52L369.03 221.74L372.55 222.82L376.14 223.78L379.77 224.59L383.46 225.26L387.2 225.79L390.98 226.17L394.81 226.4L398.67 226.48L402.54 226.4L406.36 226.17L410.14 225.79L413.88 225.26L417.57 224.59L421.21 223.78L424.79 222.82L428.31 221.74L431.78 220.52L435.18 219.17L438.52 217.69L441.78 216.1L444.97 214.38L448.09 212.54L451.13 210.59L454.08 208.53L456.95 206.36L459.74 204.09L462.43 201.71L465.03 199.24L467.53 196.67L469.93 194L472.23 191.25L474.42 188.41L476.5 185.48L478.47 182.48L480.33 179.39L482.06 176.23L483.68 173L485.17 169.7L486.53 166.34L487.76 162.91L488.86 159.42L489.82 155.87L490.65 152.27L491.33 148.62L491.86 144.92L492.25 141.18L492.48 137.4L492.56 133.57L492.48 129.75L492.25 125.96L491.86 122.22L491.33 118.52L490.65 114.87L489.82 111.27L488.86 107.73L487.76 104.24L486.53 100.81L485.17 97.44L483.68 94.14L482.06 90.91L480.33 87.75L478.47 84.67L476.5 81.66L474.42 78.74L472.23 75.9L469.93 73.14L467.53 70.48L465.03 67.91L462.43 65.43L459.74 63.06L456.95 60.78L454.08 58.61L451.13 56.55L448.09 54.6L444.97 52.77L441.78 51.05L438.51 49.45L435.18 47.98L431.78 46.63L428.31 45.41L424.79 44.32L421.21 43.37L417.57 42.56L413.88 41.88L410.14 41.35L406.36 40.97L402.54 40.74L398.67 40.66L394.81 40.74L390.98 40.97Z" id="d554gxz57c"></path></defs><g><g><g><use xlink:href="#aRhJs8zW" opacity="1" fill="#facb35" fill-opacity="1"></use><g><use xlink:href="#aRhJs8zW" opacity="1" fill-opacity="0" stroke="#000000" stroke-width="1" stroke-opacity="0"></use></g></g><g><use xlink:href="#dYYUS9MRy" opacity="1" fill="#facb35" fill-opacity="1"></use><g><use xlink:href="#dYYUS9MRy" opacity="1" fill-opacity="0" stroke="#000000" stroke-width="1" stroke-opacity="0"></use></g></g><g><use xlink:href="#aGfZ5pche" opacity="1" fill="#fcac27" fill-opacity="1"></use><g><use xlink:href="#aGfZ5pche" opacity="1" fill-opacity="0" stroke="#000000" stroke-width="1" stroke-opacity="0"></use></g></g><g><use xlink:href="#a39YdfXCLp" opacity="1" fill="#fcac27" fill-opacity="1"></use><g><use xlink:href="#a39YdfXCLp" opacity="1" fill-opacity="0" stroke="#000000" stroke-width="1" stroke-opacity="0"></use></g></g><g><use xlink:href="#d3pUOsWS4U" opacity="1" fill="#45bdf0" fill-opacity="1"></use><g><use xlink:href="#d3pUOsWS4U" opacity="1" fill-opacity="0" stroke="#000000" stroke-width="1" stroke-opacity="0"></use></g></g><g><use xlink:href="#g89kkBSKBY" opacity="1" fill="#45bdf0" fill-opacity="1"></use><g><use xlink:href="#g89kkBSKBY" opacity="1" fill-opacity="0" stroke="#000000" stroke-width="1" stroke-opacity="0"></use></g></g><g><use xlink:href="#e1tShbj7vX" opacity="1" fill="#000000" fill-opacity="1"></use><g><use xlink:href="#e1tShbj7vX" opacity="1" fill-opacity="0" stroke="#000000" stroke-width="1" stroke-opacity="0"></use></g></g><g><use xlink:href="#babQvcHN5" opacity="1" fill="#000000" fill-opacity="1"></use><g><use xlink:href="#babQvcHN5" opacity="1" fill-opacity="0" stroke="#000000" stroke-width="1" stroke-opacity="0"></use></g></g><g><use xlink:href="#e12Aq5qpTR" opacity="1" fill="#000000" fill-opacity="1"></use><g><use xlink:href="#e12Aq5qpTR" opacity="1" fill-opacity="0" stroke="#000000" stroke-width="1" stroke-opacity="0"></use></g></g><g><use xlink:href="#atrx1aZAw" opacity="1" fill="#000000" fill-opacity="1"></use><g><use xlink:href="#atrx1aZAw" opacity="1" fill-opacity="0" stroke="#000000" stroke-width="1" stroke-opacity="0"></use></g></g><g><use xlink:href="#a1IZj4fyFv" opacity="1" fill="#000000" fill-opacity="1"></use><g><use xlink:href="#a1IZj4fyFv" opacity="1" fill-opacity="0" stroke="#000000" stroke-width="1" stroke-opacity="0"></use></g></g><g><use xlink:href="#c54lZPFWVf" opacity="1" fill="#000000" fill-opacity="1"></use><g><use xlink:href="#c54lZPFWVf" opacity="1" fill-opacity="0" stroke="#000000" stroke-width="1" stroke-opacity="0"></use></g></g><g><use xlink:href="#al7F2gPYz" opacity="1" fill="#000000" fill-opacity="1"></use><g><use xlink:href="#al7F2gPYz" opacity="1" fill-opacity="0" stroke="#000000" stroke-width="1" stroke-opacity="0"></use></g></g><g><use xlink:href="#a1M49SJHYm" opacity="1" fill="#000000" fill-opacity="1"></use><g><use xlink:href="#a1M49SJHYm" opacity="1" fill-opacity="0" stroke="#000000" stroke-width="1" stroke-opacity="0"></use></g></g><g><use xlink:href="#c4Bl7cC3X" opacity="1" fill="#000000" fill-opacity="1"></use><g><use xlink:href="#c4Bl7cC3X" opacity="1" fill-opacity="0" stroke="#000000" stroke-width="1" stroke-opacity="0"></use></g></g><g><use xlink:href="#a1Eve1EKe" opacity="1" fill="#facb35" fill-opacity="1"></use><g><use xlink:href="#a1Eve1EKe" opacity="1" fill-opacity="0" stroke="#000000" stroke-width="1" stroke-opacity="0"></use></g></g><g><use xlink:href="#cHU9DXJqq" opacity="1" fill="#fcac27" fill-opacity="1"></use><g><use xlink:href="#cHU9DXJqq" opacity="1" fill-opacity="0" stroke="#000000" stroke-width="1" stroke-opacity="0"></use></g></g><g><use xlink:href="#c3mJ5y4Hgw" opacity="1" fill="#000000" fill-opacity="1"></use><g><use xlink:href="#c3mJ5y4Hgw" opacity="1" fill-opacity="0" stroke="#000000" stroke-width="1" stroke-opacity="0"></use></g></g><g><use xlink:href="#gYIWZ5pUB" opacity="1" fill="#000000" fill-opacity="1"></use><g><use xlink:href="#gYIWZ5pUB" opacity="1" fill-opacity="0" stroke="#000000" stroke-width="1" stroke-opacity="0"></use></g></g><g><use xlink:href="#b1ztZxbLNY" opacity="1" fill="#000000" fill-opacity="1"></use><g><use xlink:href="#b1ztZxbLNY" opacity="1" fill-opacity="0" stroke="#000000" stroke-width="1" stroke-opacity="0"></use></g></g><g><use xlink:href="#b2p7vcYvqh" opacity="1" fill="#000000" fill-opacity="1"></use><g><use xlink:href="#b2p7vcYvqh" opacity="1" fill-opacity="0" stroke="#000000" stroke-width="1" stroke-opacity="0"></use></g></g><g><use xlink:href="#d554gxz57c" opacity="1" fill="#000000" fill-opacity="1"></use><g><use xlink:href="#d554gxz57c" opacity="1" fill-opacity="0" stroke="#000000" stroke-width="1" stroke-opacity="0"></use></g></g></g></g></svg>