<?xml version="1.0" encoding="UTF-8" standalone="no"?>
<!DOCTYPE svg PUBLIC "-//W3C//DTD SVG 1.1//EN" "http://www.w3.org/Graphics/SVG/1.1/DTD/svg11.dtd">
<svg version="1.1" xmlns="http://www.w3.org/2000/svg" xmlns:xlink="http://www.w3.org/1999/xlink" preserveAspectRatio="xMidYMid meet" viewBox="0 0 256 256" width="256" height="256"><defs><path d="M256 0C256 0 256 0 256 0C256 153.6 256 238.93 256 256C256 256 256 256 256 256C102.4 256 17.07 256 0 256C0 256 0 256 0 256C0 102.4 0 17.07 0 0C0 0 0 0 0 0C153.6 0 238.93 0 256 0Z" id="dvKAlcOfr"></path><path d="M69.18 2.5C33.27 2.5 4.16 31.61 4.16 67.52C4.16 103.43 33.27 132.54 69.18 132.54C105.09 132.54 134.2 103.43 134.2 67.52C134.2 31.61 105.09 2.5 69.18 2.5Z" id="cvXxcUwvQ"></path><path d="M186.82 123.46C150.91 123.46 121.8 152.57 121.8 188.48C121.8 224.39 150.91 253.5 186.82 253.5C222.73 253.5 251.84 224.39 251.84 188.48C251.84 152.57 222.73 123.46 186.82 123.46Z" id="b2B5V9vCiz"></path><path d="M69.18 13.54C39.36 13.54 15.19 37.71 15.19 67.52C15.19 97.34 39.36 121.51 69.18 121.51C98.99 121.51 123.17 97.34 123.17 67.52C123.17 37.71 98.99 13.54 69.18 13.54Z" id="abdFE5nel"></path><path d="M186.82 134.49C157.01 134.49 132.83 158.66 132.83 188.48C132.83 218.29 157.01 242.47 186.82 242.47C216.64 242.47 240.81 218.29 240.81 188.48C240.81 158.66 216.64 134.49 186.82 134.49Z" id="ag6xFkgQ0"></path><path d="M211.75 84.75C214.33 82.16 214.29 77.94 211.6 75.41C209.01 72.96 204.87 73.22 202.35 75.74C201.85 76.24 199.35 78.73 194.86 83.23C194.86 71.57 194.86 65.09 194.86 63.8C194.86 46.52 182.05 31.94 164.92 29.71C164.58 29.67 161.87 29.31 161.53 29.27C159.67 29.03 158.98 31.62 160.7 32.34C173.51 37.68 181.85 50.19 181.85 64.06C181.85 65.34 181.85 71.73 181.85 83.23C177.35 78.74 174.86 76.24 174.36 75.74C171.84 73.22 167.7 72.97 165.11 75.41C162.42 77.94 162.37 82.16 164.96 84.75C166.84 86.63 181.87 101.66 183.75 103.54C186.29 106.08 190.41 106.08 192.96 103.54C196.71 99.78 209.87 86.63 211.75 84.75Z" id="e2osIDzY60"></path><path d="M44.33 171.43C41.74 174.02 41.79 178.25 44.47 180.77C47.06 183.22 51.2 182.96 53.72 180.44C54.22 179.94 56.72 177.45 61.21 172.95C61.21 184.61 61.21 191.09 61.21 192.39C61.21 209.66 74.03 224.25 91.15 226.47C91.49 226.51 94.21 226.87 94.55 226.91C96.4 227.15 97.1 224.56 95.37 223.84C82.57 218.5 74.22 205.99 74.22 192.12C74.22 190.84 74.22 184.45 74.22 172.95C78.72 177.45 81.21 179.94 81.71 180.44C84.23 182.96 88.37 183.22 90.96 180.77C93.65 178.25 93.7 174.02 91.11 171.43C89.23 169.55 74.2 154.52 72.32 152.64C69.78 150.1 65.66 150.1 63.12 152.64C59.36 156.4 46.21 169.55 44.33 171.43Z" id="fiAK682to"></path><path d="M53.71 95.42C52.33 95.42 51.21 94.3 51.21 92.92C51.21 91.54 52.33 90.42 53.71 90.42C55.96 90.42 73.96 90.42 76.21 90.42C81.84 90.42 86.41 85.85 86.41 80.22C86.41 74.6 81.84 70.02 76.21 70.02C74.81 70.02 63.55 70.02 62.15 70.02C53.76 70.02 46.95 63.2 46.95 54.82C46.95 46.44 53.76 39.62 62.15 39.62C64.14 39.62 80.09 39.62 82.08 39.62C83.47 39.62 84.58 40.74 84.58 42.12C84.58 43.5 83.47 44.62 82.08 44.62C80.09 44.62 64.14 44.62 62.15 44.62C56.52 44.62 51.95 49.2 51.95 54.82C51.95 60.44 56.52 65.02 62.15 65.02C63.55 65.02 74.81 65.02 76.21 65.02C84.6 65.02 91.41 71.84 91.41 80.22C91.41 88.6 84.6 95.42 76.21 95.42C71.71 95.42 55.96 95.42 53.71 95.42Z" id="b4oIwiUeXq"></path><path d="M66.68 101.61C66.68 94.79 66.68 40.25 66.68 33.43C66.68 32.05 67.8 30.93 69.18 30.93C70.56 30.93 71.68 32.05 71.68 33.43C71.68 40.25 71.68 94.79 71.68 101.61C71.68 102.99 70.56 104.11 69.18 104.11C67.8 104.11 66.68 102.99 66.68 101.61Z" id="cDIcYMSKk"></path><path d="M73.8 11.22L76.08 11.46L78.33 11.78L80.55 12.19L82.74 12.68L84.89 13.26L87.01 13.92L89.1 14.66L91.14 15.48L93.15 16.38L95.12 17.35L97.04 18.39L98.91 19.51L100.74 20.7L102.52 21.95L104.24 23.27L105.92 24.65L107.54 26.09L109.1 27.6L110.61 29.16L112.05 30.78L113.43 32.46L114.75 34.18L116 35.96L117.19 37.79L118.31 39.66L119.35 41.58L120.32 43.55L121.22 45.56L122.04 47.6L122.78 49.69L123.44 51.81L124.02 53.96L124.52 56.15L124.92 58.37L125.25 60.62L125.48 62.9L125.62 65.2L125.67 67.52L125.62 69.85L125.48 72.15L125.25 74.42L124.92 76.67L124.52 78.89L124.02 81.08L123.44 83.23L122.78 85.36L122.04 87.44L121.22 89.49L120.32 91.49L119.35 93.46L118.31 95.38L117.19 97.25L116 99.08L114.75 100.86L113.43 102.59L112.05 104.26L110.61 105.88L109.1 107.44L107.54 108.95L105.92 110.39L104.24 111.78L102.52 113.09L100.74 114.35L98.91 115.53L97.04 116.65L95.12 117.69L93.15 118.66L91.14 119.56L89.1 120.38L87.01 121.12L84.89 121.78L82.74 122.36L80.55 122.86L78.33 123.27L76.08 123.59L73.8 123.82L71.5 123.96L69.18 124.01L66.85 123.96L64.55 123.82L62.28 123.59L60.03 123.27L57.81 122.86L55.62 122.36L53.47 121.78L51.34 121.12L49.26 120.38L47.21 119.56L45.21 118.66L43.24 117.69L41.32 116.65L39.45 115.53L37.62 114.35L35.84 113.09L34.11 111.78L32.44 110.39L30.82 108.95L29.26 107.44L27.75 105.88L26.31 104.26L24.93 102.59L23.61 100.86L22.35 99.08L21.17 97.25L20.05 95.38L19.01 93.46L18.04 91.49L17.14 89.49L16.32 87.44L15.58 85.36L14.92 83.23L14.34 81.08L13.84 78.89L13.43 76.67L13.11 74.42L12.88 72.15L12.74 69.85L12.69 67.52L12.74 65.2L12.88 62.9L13.11 60.62L13.43 58.37L13.84 56.15L14.34 53.96L14.92 51.81L15.58 49.69L16.32 47.6L17.14 45.56L18.04 43.55L19.01 41.58L20.05 39.66L21.17 37.79L22.35 35.96L23.61 34.18L24.93 32.46L26.31 30.78L27.75 29.16L29.26 27.6L30.82 26.09L32.44 24.65L34.11 23.27L35.84 21.95L37.62 20.7L39.45 19.51L41.32 18.39L43.24 17.35L45.21 16.38L47.21 15.48L49.26 14.66L51.34 13.92L53.47 13.26L55.62 12.68L57.81 12.19L60.03 11.78L62.28 11.46L64.55 11.22L66.85 11.08L69.18 11.04L71.5 11.08L73.8 11.22ZM64.96 16.21L62.89 16.42L60.84 16.71L58.82 17.08L56.82 17.53L54.86 18.06L52.92 18.66L51.02 19.34L49.16 20.09L47.33 20.9L45.54 21.79L43.79 22.74L42.08 23.76L40.41 24.84L38.79 25.98L37.22 27.18L35.69 28.44L34.22 29.76L32.79 31.13L31.42 32.56L30.1 34.03L28.84 35.56L27.64 37.13L26.5 38.75L25.42 40.42L24.4 42.13L23.45 43.88L22.56 45.67L21.75 47.5L21 49.36L20.32 51.26L19.72 53.2L19.19 55.16L18.74 57.16L18.37 59.18L18.08 61.23L17.86 63.3L17.74 65.4L17.69 67.52L17.74 69.64L17.87 71.74L18.08 73.81L18.37 75.86L18.74 77.88L19.19 79.88L19.72 81.84L20.32 83.78L21 85.68L21.75 87.54L22.56 89.37L23.45 91.16L24.4 92.91L25.42 94.62L26.5 96.29L27.64 97.91L28.84 99.48L30.1 101.01L31.42 102.48L32.79 103.91L34.22 105.28L35.69 106.6L37.22 107.86L38.79 109.06L40.41 110.2L42.08 111.28L43.79 112.3L45.54 113.25L47.33 114.14L49.16 114.95L51.02 115.7L52.92 116.38L54.86 116.98L56.82 117.51L58.82 117.96L60.84 118.33L62.89 118.62L64.96 118.84L67.06 118.96L69.18 119.01L71.3 118.96L73.4 118.83L75.47 118.62L77.52 118.33L79.54 117.96L81.54 117.51L83.5 116.98L85.44 116.38L87.34 115.7L89.2 114.95L91.03 114.14L92.82 113.25L94.57 112.3L96.28 111.28L97.95 110.2L99.57 109.06L101.14 107.86L102.67 106.6L104.14 105.28L105.57 103.91L106.94 102.48L108.26 101.01L109.52 99.48L110.72 97.91L111.86 96.29L112.94 94.62L113.96 92.91L114.91 91.16L115.8 89.37L116.61 87.54L117.36 85.68L118.04 83.78L118.64 81.84L119.17 79.88L119.62 77.88L119.99 75.86L120.28 73.81L120.49 71.74L120.62 69.64L120.67 67.52L120.62 65.4L120.49 63.3L120.28 61.23L119.99 59.18L119.62 57.16L119.17 55.16L118.64 53.2L118.04 51.26L117.36 49.36L116.61 47.5L115.8 45.67L114.91 43.88L113.96 42.13L112.94 40.42L111.86 38.75L110.72 37.13L109.52 35.56L108.26 34.03L106.94 32.56L105.57 31.13L104.14 29.76L102.67 28.44L101.14 27.18L99.57 25.98L97.95 24.84L96.28 23.76L94.57 22.74L92.82 21.79L91.03 20.9L89.2 20.09L87.34 19.34L85.43 18.66L83.5 18.06L81.54 17.53L79.54 17.08L77.52 16.71L75.47 16.42L73.4 16.21L71.3 16.08L69.18 16.04L67.06 16.08L64.96 16.21Z" id="bubM6Cs8K"></path><path d="M74.71 0.23L77.43 0.5L80.12 0.89L82.77 1.38L85.39 1.97L87.96 2.66L90.5 3.45L92.99 4.34L95.44 5.32L97.83 6.39L100.18 7.55L102.48 8.8L104.72 10.13L106.9 11.55L109.03 13.05L111.09 14.62L113.1 16.27L115.03 18L116.9 19.8L118.7 21.67L120.43 23.6L122.08 25.61L123.65 27.67L125.15 29.8L126.57 31.98L127.9 34.22L129.15 36.52L130.31 38.87L131.38 41.26L132.36 43.71L133.25 46.2L134.04 48.74L134.73 51.31L135.32 53.93L135.81 56.58L136.2 59.27L136.47 61.99L136.64 64.74L136.7 67.52L136.64 70.3L136.47 73.05L136.2 75.77L135.81 78.46L135.32 81.11L134.73 83.73L134.04 86.3L133.25 88.84L132.36 91.33L131.38 93.78L130.31 96.18L129.15 98.52L127.9 100.82L126.57 103.06L125.15 105.24L123.65 107.37L122.08 109.44L120.42 111.44L118.7 113.37L116.9 115.24L115.03 117.04L113.09 118.77L111.09 120.42L109.03 121.99L106.9 123.49L104.72 124.91L102.48 126.24L100.18 127.49L97.83 128.65L95.43 129.72L92.99 130.7L90.5 131.59L87.96 132.38L85.38 133.07L82.77 133.66L80.12 134.15L77.43 134.54L74.71 134.81L71.96 134.98L69.18 135.04L66.4 134.98L63.65 134.81L60.93 134.54L58.24 134.15L55.59 133.66L52.97 133.07L50.4 132.38L47.86 131.59L45.37 130.7L42.92 129.72L40.52 128.65L38.18 127.49L35.88 126.24L33.64 124.91L31.46 123.49L29.33 121.99L27.26 120.42L25.26 118.77L23.33 117.04L21.46 115.24L19.66 113.37L17.93 111.44L16.28 109.43L14.7 107.37L13.21 105.24L11.79 103.06L10.46 100.82L9.21 98.52L8.05 96.17L6.97 93.78L5.99 91.33L5.11 88.84L4.32 86.3L3.63 83.73L3.03 81.11L2.55 78.46L2.16 75.77L1.88 73.05L1.72 70.3L1.66 67.52L1.72 64.74L1.88 61.99L2.16 59.27L2.55 56.58L3.03 53.93L3.63 51.31L4.32 48.74L5.11 46.2L5.99 43.71L6.97 41.26L8.05 38.87L9.21 36.52L10.46 34.22L11.79 31.98L13.21 29.8L14.7 27.67L16.28 25.61L17.93 23.6L19.66 21.67L21.46 19.8L23.33 18L25.26 16.27L27.26 14.62L29.33 13.05L31.45 11.55L33.64 10.13L35.88 8.8L38.18 7.55L40.52 6.39L42.92 5.32L45.37 4.34L47.86 3.45L50.4 2.66L52.97 1.97L55.59 1.38L58.24 0.89L60.93 0.5L63.65 0.23L66.4 0.06L69.18 0L71.96 0.06L74.71 0.23ZM64.06 5.21L61.54 5.47L59.05 5.82L56.6 6.27L54.17 6.82L51.79 7.46L49.44 8.19L47.13 9.02L44.87 9.92L42.65 10.92L40.47 11.99L38.35 13.15L36.27 14.38L34.25 15.69L32.28 17.08L30.37 18.54L28.51 20.07L26.72 21.67L24.99 23.33L23.33 25.06L21.73 26.86L20.2 28.71L18.74 30.62L17.35 32.59L16.04 34.61L14.8 36.69L13.65 38.81L12.57 40.99L11.58 43.21L10.67 45.47L9.85 47.78L9.12 50.13L8.48 52.51L7.93 54.94L7.48 57.39L7.12 59.88L6.87 62.4L6.71 64.95L6.66 67.52L6.71 70.09L6.87 72.64L7.12 75.16L7.48 77.65L7.93 80.1L8.48 82.53L9.12 84.91L9.85 87.26L10.67 89.57L11.58 91.83L12.57 94.05L13.65 96.23L14.8 98.35L16.04 100.43L17.35 102.45L18.74 104.42L20.2 106.33L21.73 108.19L23.33 109.98L24.99 111.71L26.72 113.37L28.51 114.97L30.37 116.5L32.28 117.96L34.25 119.35L36.27 120.66L38.35 121.9L40.47 123.05L42.65 124.13L44.87 125.12L47.13 126.03L49.44 126.85L51.79 127.58L54.17 128.22L56.6 128.77L59.05 129.22L61.54 129.58L64.06 129.83L66.61 129.99L69.18 130.04L71.75 129.99L74.3 129.83L76.82 129.58L79.31 129.22L81.76 128.77L84.19 128.22L86.57 127.58L88.92 126.85L91.23 126.03L93.49 125.12L95.71 124.13L97.89 123.05L100.01 121.9L102.09 120.66L104.11 119.35L106.08 117.96L107.99 116.5L109.84 114.97L111.64 113.37L113.37 111.71L115.03 109.98L116.63 108.19L118.16 106.33L119.62 104.42L121.01 102.45L122.32 100.43L123.55 98.35L124.71 96.23L125.78 94.05L126.78 91.83L127.68 89.57L128.51 87.26L129.24 84.91L129.88 82.53L130.43 80.1L130.88 77.65L131.23 75.16L131.49 72.64L131.65 70.09L131.7 67.52L131.65 64.95L131.49 62.4L131.23 59.88L130.88 57.39L130.43 54.94L129.88 52.51L129.24 50.13L128.51 47.78L127.68 45.47L126.78 43.21L125.78 40.99L124.71 38.81L123.55 36.69L122.32 34.61L121.01 32.59L119.62 30.62L118.16 28.71L116.63 26.86L115.03 25.06L113.37 23.33L111.64 21.67L109.84 20.07L107.99 18.54L106.08 17.08L104.11 15.69L102.09 14.38L100.01 13.15L97.89 11.99L95.71 10.92L93.49 9.92L91.23 9.02L88.92 8.19L86.57 7.46L84.18 6.82L81.76 6.27L79.31 5.82L76.82 5.47L74.3 5.21L71.75 5.05L69.18 5L66.61 5.05L64.06 5.21Z" id="bnech3BQZ"></path><path d="M191.45 132.18L193.72 132.41L195.97 132.73L198.19 133.14L200.38 133.64L202.53 134.22L204.66 134.88L206.74 135.62L208.79 136.44L210.79 137.34L212.76 138.31L214.68 139.35L216.55 140.47L218.38 141.65L220.16 142.91L221.89 144.23L223.56 145.61L225.18 147.05L226.74 148.56L228.25 150.12L229.69 151.74L231.07 153.41L232.39 155.14L233.65 156.92L234.83 158.75L235.95 160.62L236.99 162.54L237.96 164.51L238.86 166.51L239.68 168.56L240.42 170.65L241.08 172.77L241.66 174.92L242.16 177.11L242.57 179.33L242.89 181.58L243.12 183.85L243.26 186.16L243.31 188.48L243.26 190.8L243.12 193.11L242.89 195.38L242.57 197.63L242.16 199.85L241.66 202.04L241.08 204.19L240.42 206.31L239.68 208.4L238.86 210.45L237.96 212.45L236.99 214.42L235.95 216.34L234.83 218.21L233.65 220.04L232.39 221.82L231.08 223.55L229.69 225.22L228.25 226.84L226.74 228.4L225.18 229.91L223.56 231.35L221.89 232.73L220.16 234.05L218.38 235.31L216.55 236.49L214.68 237.61L212.76 238.65L210.79 239.62L208.79 240.52L206.74 241.34L204.66 242.08L202.53 242.74L200.38 243.32L198.19 243.82L195.97 244.22L193.72 244.55L191.45 244.78L189.15 244.92L186.82 244.97L184.5 244.92L182.2 244.78L179.92 244.55L177.67 244.22L175.45 243.82L173.26 243.32L171.11 242.74L168.99 242.08L166.9 241.34L164.86 240.52L162.85 239.62L160.88 238.65L158.96 237.61L157.09 236.49L155.26 235.31L153.48 234.05L151.76 232.73L150.08 231.35L148.46 229.91L146.9 228.4L145.39 226.84L143.95 225.22L142.57 223.55L141.25 221.82L140 220.04L138.81 218.21L137.69 216.34L136.65 214.42L135.68 212.45L134.78 210.45L133.96 208.4L133.22 206.31L132.56 204.19L131.98 202.04L131.48 199.85L131.08 197.63L130.75 195.38L130.52 193.11L130.38 190.8L130.34 188.48L130.38 186.16L130.52 183.85L130.75 181.58L131.08 179.33L131.48 177.11L131.98 174.92L132.56 172.77L133.22 170.65L133.96 168.56L134.78 166.51L135.68 164.51L136.65 162.54L137.69 160.62L138.81 158.75L140 156.92L141.25 155.14L142.57 153.41L143.95 151.74L145.39 150.12L146.9 148.56L148.46 147.05L150.08 145.61L151.76 144.23L153.48 142.91L155.26 141.65L157.09 140.47L158.96 139.35L160.88 138.31L162.85 137.34L164.86 136.44L166.9 135.62L168.99 134.88L171.11 134.22L173.26 133.64L175.45 133.14L177.67 132.73L179.92 132.41L182.2 132.18L184.5 132.04L186.82 131.99L189.15 132.04L191.45 132.18ZM182.6 137.16L180.53 137.38L178.48 137.67L176.46 138.04L174.46 138.49L172.5 139.02L170.56 139.62L168.66 140.3L166.8 141.05L164.97 141.86L163.18 142.75L161.43 143.7L159.72 144.72L158.05 145.8L156.43 146.94L154.86 148.14L153.33 149.4L151.86 150.72L150.43 152.09L149.06 153.51L147.74 154.99L146.48 156.52L145.28 158.09L144.14 159.71L143.06 161.38L142.04 163.09L141.09 164.84L140.2 166.63L139.39 168.46L138.64 170.32L137.96 172.22L137.36 174.16L136.83 176.12L136.38 178.12L136.01 180.14L135.72 182.19L135.51 184.26L135.38 186.36L135.34 188.48L135.38 190.6L135.51 192.7L135.72 194.77L136.01 196.82L136.38 198.84L136.83 200.84L137.36 202.8L137.96 204.73L138.64 206.63L139.39 208.5L140.2 210.33L141.09 212.12L142.04 213.87L143.06 215.58L144.14 217.24L145.28 218.87L146.48 220.44L147.74 221.97L149.06 223.44L150.43 224.87L151.86 226.24L153.33 227.56L154.86 228.82L156.43 230.02L158.05 231.16L159.72 232.24L161.43 233.26L163.18 234.21L164.97 235.09L166.8 235.91L168.66 236.66L170.57 237.33L172.5 237.94L174.46 238.47L176.46 238.92L178.48 239.29L180.53 239.58L182.6 239.79L184.7 239.92L186.82 239.96L188.94 239.92L191.04 239.79L193.11 239.58L195.16 239.29L197.18 238.92L199.18 238.47L201.14 237.94L203.08 237.33L204.98 236.66L206.84 235.91L208.67 235.09L210.46 234.21L212.21 233.26L213.92 232.24L215.59 231.16L217.21 230.02L218.78 228.82L220.31 227.56L221.78 226.24L223.21 224.87L224.58 223.44L225.9 221.97L227.16 220.44L228.36 218.87L229.5 217.24L230.58 215.58L231.6 213.87L232.55 212.12L233.44 210.33L234.25 208.5L235 206.63L235.68 204.73L236.28 202.8L236.81 200.84L237.26 198.84L237.63 196.82L237.92 194.77L238.14 192.7L238.26 190.6L238.31 188.48L238.26 186.36L238.14 184.26L237.92 182.19L237.63 180.14L237.26 178.12L236.81 176.12L236.28 174.16L235.68 172.22L235 170.32L234.25 168.46L233.44 166.63L232.55 164.84L231.6 163.09L230.58 161.38L229.5 159.71L228.36 158.09L227.16 156.52L225.9 154.99L224.58 153.51L223.21 152.09L221.79 150.72L220.31 149.4L218.78 148.14L217.21 146.94L215.59 145.8L213.92 144.72L212.21 143.7L210.46 142.75L208.67 141.86L206.84 141.05L204.98 140.3L203.08 139.62L201.14 139.02L199.18 138.49L197.18 138.04L195.16 137.67L193.11 137.38L191.04 137.16L188.94 137.04L186.82 136.99L184.7 137.04L182.6 137.16Z" id="d6Tvj0951"></path><path d="M192.35 121.18L195.07 121.46L197.76 121.85L200.41 122.33L203.03 122.93L205.6 123.62L208.14 124.41L210.63 125.29L213.08 126.27L215.48 127.35L217.82 128.51L220.12 129.76L222.36 131.09L224.55 132.51L226.67 134L228.74 135.58L230.74 137.23L232.67 138.96L234.54 140.76L236.34 142.63L238.07 144.56L239.72 146.56L241.3 148.63L242.79 150.75L244.21 152.94L245.54 155.18L246.79 157.48L247.95 159.82L249.03 162.22L250.01 164.67L250.89 167.16L251.68 169.7L252.37 172.27L252.97 174.89L253.45 177.54L253.84 180.23L254.12 182.95L254.28 185.7L254.34 188.48L254.28 191.26L254.12 194.01L253.84 196.73L253.45 199.42L252.97 202.07L252.37 204.69L251.68 207.26L250.89 209.8L250.01 212.29L249.03 214.74L247.95 217.13L246.79 219.48L245.54 221.78L244.21 224.02L242.79 226.2L241.3 228.33L239.72 230.39L238.07 232.4L236.34 234.33L234.54 236.2L232.67 238L230.74 239.73L228.74 241.38L226.67 242.95L224.55 244.45L222.36 245.87L220.12 247.2L217.82 248.45L215.48 249.61L213.08 250.68L210.63 251.66L208.14 252.55L205.6 253.34L203.03 254.03L200.41 254.62L197.76 255.11L195.07 255.5L192.35 255.77L189.6 255.94L186.82 256L184.04 255.94L181.29 255.77L178.57 255.5L175.88 255.11L173.23 254.62L170.62 254.03L168.04 253.34L165.5 252.55L163.01 251.66L160.57 250.68L158.17 249.61L155.82 248.45L153.52 247.2L151.28 245.87L149.1 244.45L146.97 242.95L144.91 241.38L142.91 239.73L140.97 238L139.1 236.2L137.3 234.33L135.58 232.4L133.92 230.39L132.35 228.33L130.85 226.2L129.43 224.02L128.1 221.78L126.85 219.48L125.69 217.13L124.62 214.74L123.64 212.29L122.75 209.8L121.96 207.26L121.27 204.69L120.68 202.07L120.19 199.42L119.8 196.73L119.53 194.01L119.36 191.26L119.3 188.48L119.36 185.7L119.53 182.95L119.8 180.23L120.19 177.54L120.68 174.89L121.27 172.27L121.96 169.7L122.75 167.16L123.64 164.67L124.62 162.22L125.69 159.82L126.85 157.48L128.1 155.18L129.43 152.94L130.85 150.75L132.35 148.63L133.92 146.56L135.57 144.56L137.3 142.63L139.1 140.76L140.97 138.96L142.9 137.23L144.91 135.58L146.97 134L149.1 132.51L151.28 131.09L153.52 129.76L155.82 128.51L158.17 127.35L160.56 126.27L163.01 125.29L165.5 124.41L168.04 123.62L170.61 122.93L173.23 122.33L175.88 121.85L178.57 121.46L181.29 121.18L184.04 121.02L186.82 120.96L189.6 121.02L192.35 121.18ZM181.7 126.17L179.18 126.43L176.69 126.78L174.24 127.23L171.81 127.78L169.43 128.42L167.08 129.15L164.77 129.97L162.51 130.88L160.29 131.87L158.11 132.95L155.99 134.11L153.91 135.34L151.89 136.65L149.92 138.04L148.01 139.5L146.16 141.03L144.36 142.63L142.63 144.29L140.97 146.02L139.37 147.82L137.84 149.67L136.38 151.58L134.99 153.55L133.68 155.57L132.45 157.65L131.29 159.77L130.22 161.95L129.22 164.17L128.32 166.43L127.49 168.74L126.76 171.09L126.12 173.47L125.57 175.9L125.12 178.35L124.77 180.84L124.51 183.36L124.35 185.91L124.3 188.48L124.35 191.05L124.51 193.6L124.77 196.12L125.12 198.61L125.57 201.06L126.12 203.49L126.76 205.87L127.49 208.22L128.32 210.53L129.22 212.79L130.22 215.01L131.29 217.19L132.45 219.31L133.68 221.39L134.99 223.41L136.38 225.38L137.84 227.29L139.37 229.14L140.97 230.94L142.63 232.67L144.36 234.33L146.16 235.93L148.01 237.46L149.92 238.92L151.89 240.31L153.91 241.62L155.99 242.85L158.11 244.01L160.29 245.09L162.51 246.08L164.77 246.99L167.08 247.81L169.43 248.54L171.81 249.18L174.24 249.73L176.69 250.18L179.18 250.53L181.7 250.79L184.25 250.95L186.82 251L189.39 250.95L191.94 250.79L194.46 250.53L196.95 250.18L199.4 249.73L201.83 249.18L204.21 248.54L206.56 247.81L208.87 246.99L211.13 246.08L213.35 245.09L215.53 244.01L217.65 242.85L219.73 241.62L221.75 240.31L223.72 238.92L225.63 237.46L227.49 235.93L229.28 234.33L231.01 232.67L232.67 230.94L234.27 229.14L235.8 227.29L237.26 225.38L238.65 223.41L239.96 221.39L241.2 219.31L242.35 217.19L243.43 215.01L244.42 212.79L245.33 210.53L246.15 208.22L246.88 205.87L247.52 203.49L248.07 201.06L248.52 198.61L248.88 196.12L249.13 193.6L249.29 191.05L249.34 188.48L249.29 185.91L249.13 183.36L248.88 180.84L248.52 178.35L248.07 175.9L247.52 173.47L246.88 171.09L246.15 168.74L245.33 166.43L244.42 164.17L243.43 161.95L242.35 159.77L241.2 157.65L239.96 155.57L238.65 153.55L237.26 151.58L235.8 149.67L234.27 147.82L232.67 146.02L231.01 144.29L229.28 142.63L227.49 141.03L225.63 139.5L223.72 138.04L221.75 136.65L219.73 135.34L217.65 134.11L215.53 132.95L213.35 131.87L211.13 130.88L208.87 129.97L206.56 129.15L204.21 128.42L201.83 127.78L199.4 127.23L196.95 126.78L194.46 126.43L191.94 126.17L189.39 126.01L186.82 125.96L184.25 126.01L181.7 126.17Z" id="eVvVXxzK0"></path><path d="M161.54 26.76L161.69 26.77L161.85 26.79L165.24 27.23L166.61 27.43L167.95 27.69L169.28 27.99L170.59 28.33L171.88 28.73L173.15 29.17L174.39 29.65L175.61 30.17L176.81 30.74L177.99 31.35L179.13 32L180.25 32.69L181.35 33.41L182.41 34.18L183.45 34.98L184.46 35.81L185.43 36.68L186.38 37.58L187.29 38.51L188.17 39.48L189.01 40.47L189.82 41.5L190.59 42.55L191.33 43.63L192.03 44.74L192.69 45.87L193.31 47.02L193.88 48.2L194.42 49.4L194.92 50.63L195.37 51.87L195.78 53.13L196.14 54.41L196.46 55.71L196.73 57.02L196.96 58.35L197.13 59.69L197.26 61.05L197.34 62.41L197.36 63.79L197.36 77.19L200.58 73.97L200.85 73.71L201.13 73.47L201.41 73.24L201.7 73.02L201.99 72.81L202.3 72.61L202.61 72.43L202.92 72.26L203.24 72.11L203.56 71.96L203.89 71.83L204.22 71.71L204.55 71.61L204.89 71.51L205.23 71.43L205.57 71.36L205.92 71.31L206.26 71.27L206.61 71.24L206.95 71.22L207.3 71.22L207.64 71.23L207.99 71.25L208.33 71.28L208.67 71.33L209.01 71.39L209.35 71.46L209.68 71.55L210.01 71.65L210.34 71.76L210.66 71.88L210.98 72.02L211.3 72.17L211.6 72.33L211.91 72.51L212.2 72.7L212.49 72.9L212.77 73.11L213.05 73.34L213.32 73.58L213.45 73.71L213.58 73.84L213.71 73.97L213.83 74.11L213.95 74.24L214.07 74.38L214.18 74.52L214.3 74.66L214.4 74.81L214.51 74.95L214.61 75.1L214.71 75.25L214.81 75.4L214.9 75.56L214.99 75.71L215.08 75.87L215.16 76.03L215.24 76.18L215.32 76.35L215.39 76.51L215.46 76.67L215.53 76.84L215.59 77L215.65 77.17L215.71 77.34L215.76 77.51L215.81 77.68L215.86 77.86L215.9 78.03L215.94 78.21L215.98 78.38L216.01 78.56L216.04 78.74L216.07 78.92L216.09 79.1L216.11 79.28L216.13 79.46L216.14 79.64L216.15 79.83L216.15 80.01L216.15 80.19L216.15 80.38L216.14 80.56L216.13 80.74L216.12 80.92L216.1 81.1L216.08 81.28L216.06 81.46L216.03 81.64L216 81.82L215.96 82L215.93 82.17L215.88 82.34L215.84 82.52L215.79 82.69L215.74 82.86L215.68 83.03L215.63 83.2L215.56 83.37L215.5 83.53L215.43 83.7L215.36 83.86L215.28 84.02L215.2 84.18L215.12 84.34L215.04 84.5L214.95 84.65L214.86 84.81L214.76 84.96L214.66 85.11L214.56 85.26L214.46 85.41L214.35 85.55L214.24 85.7L214.13 85.84L214.01 85.98L213.89 86.11L213.77 86.25L213.64 86.38L213.51 86.51L194.72 105.3L194.59 105.43L194.46 105.55L194.33 105.67L194.2 105.79L194.06 105.91L193.92 106.02L193.78 106.13L193.64 106.23L193.49 106.34L193.35 106.44L193.2 106.53L193.05 106.63L192.9 106.72L192.75 106.8L192.59 106.89L192.44 106.97L192.28 107.05L192.12 107.12L191.96 107.19L191.8 107.26L191.64 107.33L191.48 107.39L191.31 107.45L191.15 107.51L190.98 107.56L190.81 107.61L190.64 107.65L190.47 107.7L190.3 107.74L190.13 107.77L189.95 107.8L189.78 107.83L189.6 107.86L189.43 107.88L189.25 107.9L189.07 107.92L188.89 107.93L188.71 107.94L188.53 107.94L188.35 107.95L188.17 107.94L187.99 107.94L187.82 107.93L187.64 107.92L187.46 107.9L187.28 107.88L187.11 107.86L186.93 107.83L186.76 107.8L186.58 107.77L186.41 107.74L186.24 107.7L186.07 107.65L185.9 107.61L185.73 107.56L185.56 107.51L185.4 107.45L185.23 107.39L185.07 107.33L184.91 107.26L184.74 107.19L184.59 107.12L184.43 107.05L184.27 106.97L184.11 106.89L183.96 106.8L183.81 106.72L183.66 106.63L183.51 106.53L183.36 106.44L183.21 106.34L183.07 106.23L182.93 106.13L182.79 106.02L182.65 105.91L182.51 105.79L182.38 105.68L182.25 105.56L182.11 105.43L181.99 105.31L163.2 86.52L163.07 86.38L162.94 86.25L162.82 86.12L162.7 85.98L162.58 85.84L162.47 85.7L162.36 85.55L162.25 85.41L162.15 85.26L162.05 85.11L161.95 84.96L161.85 84.81L161.76 84.66L161.67 84.5L161.59 84.34L161.51 84.18L161.43 84.02L161.35 83.86L161.28 83.7L161.21 83.53L161.15 83.37L161.08 83.2L161.03 83.03L160.97 82.86L160.92 82.69L160.87 82.52L160.82 82.35L160.78 82.17L160.75 82L160.71 81.82L160.68 81.64L160.65 81.47L160.63 81.29L160.61 81.11L160.59 80.93L160.58 80.74L160.57 80.56L160.56 80.38L160.56 80.2L160.56 80.01L160.56 79.83L160.57 79.64L160.58 79.46L160.6 79.28L160.62 79.1L160.64 78.92L160.67 78.74L160.7 78.56L160.73 78.38L160.76 78.21L160.8 78.03L160.85 77.86L160.9 77.69L160.95 77.51L161 77.34L161.06 77.17L161.12 77.01L161.18 76.84L161.25 76.67L161.32 76.51L161.39 76.35L161.47 76.19L161.55 76.03L161.63 75.87L161.72 75.71L161.81 75.56L161.9 75.4L162 75.25L162.1 75.1L162.2 74.96L162.31 74.81L162.41 74.67L162.53 74.52L162.64 74.38L162.76 74.25L162.88 74.11L163 73.98L163.13 73.84L163.26 73.71L163.39 73.59L163.66 73.34L163.94 73.12L164.22 72.9L164.51 72.7L164.8 72.51L165.11 72.33L165.41 72.17L165.73 72.02L166.05 71.88L166.37 71.76L166.7 71.65L167.03 71.55L167.36 71.46L167.7 71.39L168.04 71.33L168.38 71.28L168.72 71.25L169.07 71.23L169.41 71.22L169.76 71.22L170.1 71.24L170.45 71.27L170.79 71.31L171.14 71.37L171.48 71.43L171.82 71.51L172.16 71.61L172.49 71.71L172.82 71.83L173.15 71.96L173.47 72.11L173.79 72.26L174.1 72.43L174.41 72.62L174.72 72.81L175.01 73.02L175.3 73.24L175.58 73.47L175.86 73.71L176.13 73.97L179.35 77.19L179.35 64.06L179.33 63.1L179.29 62.14L179.22 61.18L179.12 60.24L178.99 59.3L178.84 58.37L178.66 57.44L178.45 56.53L178.22 55.62L177.96 54.72L177.67 53.83L177.36 52.96L177.03 52.09L176.67 51.24L176.28 50.39L175.88 49.56L175.44 48.75L174.99 47.94L174.51 47.15L174.01 46.38L173.49 45.62L172.94 44.87L172.38 44.14L171.79 43.43L171.18 42.73L170.55 42.05L169.9 41.39L169.23 40.75L168.54 40.13L167.83 39.52L167.1 38.94L166.35 38.37L165.59 37.83L164.8 37.31L164 36.81L163.18 36.33L162.35 35.87L161.5 35.44L160.63 35.03L159.74 34.65L159.6 34.58L159.46 34.52L159.32 34.45L159.19 34.37L159.06 34.29L158.94 34.21L158.82 34.12L158.7 34.03L158.59 33.93L158.48 33.83L158.38 33.73L158.28 33.62L158.18 33.52L158.09 33.4L158 33.29L157.92 33.17L157.84 33.05L157.76 32.93L157.69 32.8L157.63 32.67L157.57 32.54L157.51 32.41L157.46 32.28L157.41 32.14L157.37 32L157.33 31.86L157.3 31.72L157.27 31.58L157.25 31.43L157.23 31.29L157.22 31.14L157.21 30.99L157.21 30.85L157.22 30.7L157.23 30.55L157.24 30.4L157.26 30.25L157.29 30.1L157.32 29.95L157.36 29.8L157.4 29.65L157.45 29.5L157.5 29.36L157.56 29.22L157.62 29.08L157.69 28.94L157.76 28.81L157.83 28.69L157.91 28.56L158 28.44L158.08 28.32L158.18 28.21L158.27 28.1L158.37 27.99L158.47 27.89L158.58 27.79L158.69 27.7L158.8 27.61L158.92 27.52L159.03 27.44L159.15 27.36L159.28 27.29L159.41 27.22L159.53 27.15L159.67 27.09L159.8 27.04L159.94 26.99L160.07 26.94L160.21 26.9L160.35 26.87L160.5 26.83L160.64 26.81L160.79 26.79L160.94 26.77L161.09 26.76L161.24 26.76L161.39 26.76L161.54 26.76ZM168.17 33.54L168.95 34.08L169.72 34.64L170.47 35.22L171.2 35.82L171.92 36.44L172.61 37.07L173.3 37.72L173.96 38.39L174.6 39.07L175.23 39.76L175.84 40.48L176.43 41.2L177 41.95L177.55 42.7L178.08 43.47L178.6 44.25L179.09 45.05L179.56 45.86L180.01 46.68L180.44 47.51L180.85 48.35L181.24 49.21L181.61 50.07L181.95 50.95L182.28 51.83L182.58 52.73L182.85 53.63L183.11 54.54L183.34 55.47L183.55 56.39L183.73 57.33L183.9 58.27L184.03 59.22L184.15 60.18L184.23 61.14L184.3 62.11L184.34 63.09L184.35 64.06L184.35 83.23L184.35 83.3L184.34 83.38L184.34 83.45L184.33 83.53L184.32 83.6L184.31 83.67L184.29 83.75L184.28 83.82L184.26 83.89L184.24 83.96L184.22 84.03L184.19 84.1L184.16 84.17L184.14 84.23L184.11 84.3L184.07 84.37L184.04 84.43L184 84.49L183.97 84.56L183.93 84.62L183.89 84.68L183.84 84.74L183.8 84.79L183.75 84.85L183.7 84.9L183.65 84.96L183.6 85.01L183.55 85.06L183.5 85.11L183.44 85.16L183.38 85.2L183.32 85.25L183.26 85.29L183.2 85.33L183.14 85.37L183.08 85.41L183.01 85.44L182.94 85.48L182.87 85.51L182.81 85.54L182.73 85.57L182.66 85.59L182.59 85.62L182.52 85.64L182.45 85.66L182.38 85.67L182.3 85.69L182.23 85.7L182.16 85.71L182.08 85.72L182.01 85.72L181.94 85.73L181.87 85.73L181.79 85.73L181.72 85.73L181.65 85.72L181.57 85.71L181.5 85.7L181.43 85.69L181.36 85.68L181.29 85.67L181.22 85.65L181.15 85.63L181.08 85.61L181.01 85.58L180.94 85.56L180.87 85.53L180.81 85.5L180.74 85.47L180.68 85.44L180.61 85.4L180.55 85.36L180.49 85.32L180.42 85.28L180.36 85.24L180.3 85.2L180.25 85.15L180.19 85.1L180.13 85.05L180.08 85L172.59 77.51L172.53 77.44L172.46 77.38L172.39 77.32L172.33 77.26L172.26 77.2L172.19 77.15L172.12 77.09L172.04 77.04L171.97 76.99L171.9 76.94L171.82 76.89L171.75 76.85L171.67 76.8L171.6 76.76L171.52 76.72L171.44 76.68L171.36 76.64L171.29 76.6L171.21 76.57L171.13 76.53L171.05 76.5L170.97 76.47L170.89 76.44L170.81 76.41L170.72 76.39L170.64 76.36L170.56 76.34L170.48 76.32L170.39 76.3L170.31 76.29L170.23 76.27L170.15 76.26L170.06 76.24L169.98 76.23L169.9 76.22L169.81 76.22L169.73 76.21L169.64 76.21L169.56 76.2L169.48 76.2L169.4 76.2L169.33 76.21L169.26 76.21L169.19 76.21L169.11 76.22L169.04 76.23L168.97 76.23L168.9 76.24L168.83 76.25L168.75 76.27L168.68 76.28L168.61 76.29L168.54 76.31L168.47 76.33L168.4 76.35L168.33 76.37L168.26 76.39L168.19 76.41L168.13 76.43L168.06 76.46L167.99 76.48L167.92 76.51L167.86 76.54L167.79 76.57L167.73 76.6L167.66 76.63L167.6 76.67L167.53 76.7L167.47 76.74L167.41 76.78L167.35 76.82L167.28 76.86L167.22 76.9L167.16 76.94L167.11 76.99L167.05 77.03L166.99 77.08L166.93 77.13L166.88 77.18L166.82 77.23L166.76 77.28L166.7 77.34L166.65 77.4L166.59 77.46L166.54 77.52L166.49 77.58L166.44 77.64L166.39 77.71L166.34 77.77L166.29 77.84L166.24 77.9L166.2 77.97L166.16 78.04L166.12 78.1L166.08 78.17L166.04 78.24L166 78.31L165.96 78.38L165.93 78.46L165.9 78.53L165.87 78.6L165.84 78.68L165.81 78.75L165.78 78.82L165.75 78.9L165.73 78.98L165.71 79.05L165.69 79.13L165.67 79.21L165.65 79.28L165.63 79.36L165.62 79.44L165.61 79.52L165.59 79.6L165.58 79.68L165.58 79.76L165.57 79.84L165.56 79.92L165.56 80L165.56 80.09L165.56 80.17L165.56 80.25L165.56 80.33L165.57 80.41L165.57 80.49L165.58 80.57L165.59 80.65L165.6 80.73L165.61 80.81L165.63 80.89L165.64 80.97L165.66 81.05L165.68 81.13L165.7 81.2L165.72 81.28L165.74 81.35L165.77 81.43L165.79 81.51L165.82 81.58L165.85 81.65L165.88 81.73L165.91 81.8L165.94 81.87L165.98 81.94L166.02 82.01L166.05 82.08L166.09 82.15L166.13 82.22L166.18 82.29L166.22 82.36L166.26 82.42L166.31 82.49L166.36 82.55L166.41 82.62L166.46 82.68L166.51 82.74L166.56 82.8L166.62 82.86L166.67 82.92L166.73 82.98L185.52 101.77L185.58 101.83L185.64 101.88L185.7 101.94L185.76 101.99L185.82 102.04L185.88 102.09L185.94 102.14L186 102.18L186.07 102.23L186.13 102.27L186.2 102.32L186.27 102.36L186.33 102.4L186.4 102.44L186.47 102.48L186.54 102.51L186.61 102.55L186.68 102.58L186.75 102.61L186.82 102.64L186.89 102.67L186.97 102.7L187.04 102.72L187.11 102.75L187.19 102.77L187.26 102.8L187.34 102.82L187.41 102.83L187.49 102.85L187.57 102.87L187.64 102.88L187.72 102.9L187.8 102.91L187.88 102.92L187.96 102.93L188.04 102.93L188.12 102.94L188.2 102.94L188.27 102.94L188.36 102.95L188.44 102.94L188.52 102.94L188.59 102.94L188.67 102.93L188.75 102.93L188.83 102.92L188.91 102.91L188.99 102.9L189.07 102.88L189.14 102.87L189.22 102.85L189.3 102.83L189.37 102.82L189.45 102.8L189.52 102.77L189.6 102.75L189.67 102.72L189.74 102.7L189.82 102.67L189.89 102.64L189.96 102.61L190.03 102.58L190.1 102.55L190.17 102.51L190.24 102.48L190.31 102.44L190.38 102.4L190.45 102.36L190.51 102.32L190.58 102.27L190.64 102.23L190.71 102.18L190.77 102.14L190.83 102.09L190.89 102.04L190.95 101.99L191.01 101.94L191.07 101.88L191.13 101.83L191.19 101.77L209.98 82.98L210.04 82.92L210.09 82.86L210.15 82.8L210.2 82.74L210.25 82.68L210.3 82.62L210.35 82.55L210.4 82.49L210.45 82.42L210.49 82.36L210.53 82.29L210.58 82.22L210.62 82.15L210.66 82.08L210.69 82.01L210.73 81.94L210.77 81.87L210.8 81.8L210.83 81.73L210.86 81.65L210.89 81.58L210.92 81.51L210.94 81.43L210.97 81.36L210.99 81.28L211.01 81.2L211.03 81.13L211.05 81.05L211.07 80.97L211.08 80.89L211.1 80.81L211.11 80.73L211.12 80.65L211.13 80.57L211.14 80.49L211.14 80.41L211.15 80.33L211.15 80.25L211.15 80.17L211.15 80.09L211.15 80L211.15 79.92L211.14 79.84L211.14 79.76L211.13 79.68L211.12 79.6L211.1 79.52L211.09 79.44L211.08 79.36L211.06 79.28L211.04 79.21L211.02 79.13L211 79.05L210.98 78.97L210.96 78.9L210.93 78.82L210.9 78.75L210.88 78.67L210.85 78.6L210.81 78.53L210.78 78.46L210.75 78.38L210.71 78.31L210.67 78.24L210.64 78.17L210.6 78.1L210.55 78.04L210.51 77.97L210.47 77.9L210.42 77.84L210.37 77.77L210.33 77.71L210.28 77.64L210.22 77.58L210.17 77.52L210.12 77.46L210.06 77.4L210.01 77.34L209.95 77.28L209.89 77.23L209.77 77.12L209.65 77.02L209.52 76.92L209.39 76.83L209.26 76.75L209.12 76.67L208.99 76.6L208.85 76.54L208.7 76.48L208.56 76.42L208.41 76.38L208.26 76.33L208.11 76.3L207.96 76.27L207.81 76.24L207.65 76.22L207.5 76.21L207.34 76.2L207.18 76.2L207.03 76.21L206.87 76.22L206.71 76.23L206.56 76.26L206.4 76.28L206.25 76.32L206.09 76.36L205.94 76.4L205.79 76.45L205.63 76.51L205.49 76.57L205.34 76.64L205.19 76.71L205.05 76.79L204.91 76.88L204.77 76.97L204.63 77.07L204.5 77.17L204.37 77.27L204.24 77.39L204.12 77.51L196.63 84.99L196.58 85.05L196.52 85.1L196.46 85.15L196.41 85.19L196.35 85.24L196.29 85.28L196.23 85.32L196.16 85.36L196.1 85.4L196.04 85.43L195.97 85.47L195.9 85.5L195.84 85.53L195.77 85.56L195.7 85.58L195.63 85.61L195.56 85.63L195.49 85.65L195.42 85.66L195.35 85.68L195.28 85.69L195.21 85.7L195.14 85.71L195.07 85.72L194.99 85.72L194.92 85.73L194.85 85.73L194.77 85.73L194.7 85.72L194.63 85.72L194.55 85.71L194.48 85.7L194.41 85.68L194.34 85.67L194.26 85.65L194.19 85.63L194.12 85.61L194.05 85.59L193.98 85.56L193.91 85.54L193.84 85.51L193.77 85.47L193.7 85.44L193.64 85.4L193.57 85.37L193.51 85.33L193.45 85.29L193.39 85.24L193.33 85.2L193.27 85.15L193.22 85.11L193.16 85.06L193.11 85.01L193.06 84.95L193.01 84.9L192.96 84.85L192.91 84.79L192.87 84.73L192.83 84.67L192.78 84.62L192.74 84.55L192.71 84.49L192.67 84.43L192.64 84.36L192.6 84.3L192.57 84.23L192.55 84.17L192.52 84.1L192.5 84.03L192.47 83.96L192.45 83.89L192.43 83.82L192.42 83.75L192.4 83.67L192.39 83.6L192.38 83.53L192.37 83.45L192.37 83.38L192.36 83.3L192.36 83.23L192.36 63.8L192.34 62.65L192.28 61.52L192.18 60.39L192.04 59.28L191.86 58.18L191.65 57.09L191.39 56.01L191.1 54.94L190.78 53.89L190.42 52.86L190.02 51.84L189.59 50.84L189.13 49.85L188.64 48.88L188.11 47.93L187.55 47L186.97 46.09L186.35 45.2L185.7 44.34L185.03 43.49L184.32 42.67L183.59 41.88L182.84 41.1L182.05 40.36L181.25 39.64L180.41 38.94L179.56 38.28L178.68 37.64L177.77 37.04L176.85 36.46L175.91 35.91L174.94 35.4L173.95 34.91L172.95 34.47L171.93 34.05L170.89 33.67L169.83 33.32L168.75 33.01L167.66 32.74L166.56 32.51L167.37 33.01L168.17 33.54Z" id="a6Q0xpeSsp"></path><path d="M68.41 148.27L68.75 148.3L69.1 148.35L69.44 148.41L69.78 148.48L70.12 148.56L70.45 148.66L70.78 148.77L71.11 148.9L71.43 149.04L71.75 149.19L72.06 149.35L72.37 149.53L72.67 149.72L72.97 149.93L73.26 150.14L73.54 150.37L73.82 150.62L74.09 150.88L92.88 169.67L93 169.8L93.13 169.93L93.25 170.07L93.37 170.2L93.49 170.34L93.6 170.48L93.71 170.63L93.82 170.77L93.92 170.92L94.03 171.07L94.12 171.22L94.22 171.37L94.31 171.53L94.4 171.68L94.48 171.84L94.57 172L94.64 172.16L94.72 172.32L94.79 172.48L94.86 172.65L94.92 172.81L94.99 172.98L95.05 173.15L95.1 173.32L95.15 173.49L95.2 173.66L95.25 173.83L95.29 174.01L95.33 174.18L95.36 174.36L95.39 174.54L95.42 174.72L95.44 174.9L95.46 175.08L95.48 175.26L95.5 175.44L95.5 175.62L95.51 175.8L95.51 175.99L95.51 176.17L95.51 176.35L95.5 176.54L95.49 176.72L95.47 176.9L95.45 177.08L95.43 177.26L95.41 177.44L95.38 177.62L95.34 177.8L95.31 177.97L95.27 178.15L95.22 178.32L95.18 178.5L95.13 178.67L95.07 178.84L95.01 179.01L94.95 179.17L94.89 179.34L94.82 179.51L94.75 179.67L94.68 179.83L94.6 179.99L94.52 180.15L94.44 180.31L94.35 180.47L94.26 180.62L94.17 180.78L94.07 180.93L93.97 181.08L93.87 181.22L93.77 181.37L93.66 181.51L93.55 181.66L93.43 181.8L93.31 181.94L93.19 182.07L93.07 182.21L92.94 182.34L92.81 182.47L92.68 182.6L92.41 182.84L92.14 183.06L91.85 183.28L91.56 183.48L91.27 183.67L90.97 183.85L90.66 184.01L90.34 184.16L90.03 184.3L89.7 184.42L89.38 184.53L89.04 184.63L88.71 184.72L88.37 184.79L88.03 184.85L87.69 184.9L87.35 184.93L87 184.96L86.66 184.96L86.31 184.96L85.97 184.94L85.62 184.91L85.28 184.87L84.93 184.82L84.59 184.75L84.25 184.67L83.92 184.57L83.58 184.47L83.25 184.35L82.92 184.22L82.6 184.07L82.28 183.92L81.97 183.75L81.66 183.57L81.36 183.37L81.06 183.16L80.77 182.95L80.49 182.71L80.21 182.47L79.94 182.21L76.72 178.99L76.72 192.12L76.74 193.08L76.78 194.04L76.85 195L76.95 195.94L77.08 196.88L77.23 197.82L77.41 198.74L77.62 199.66L77.85 200.56L78.11 201.46L78.4 202.35L78.71 203.23L79.04 204.09L79.4 204.95L79.79 205.79L80.2 206.62L80.63 207.44L81.08 208.24L81.56 209.03L82.06 209.8L82.58 210.56L83.13 211.31L83.7 212.04L84.28 212.75L84.89 213.45L85.52 214.13L86.17 214.79L86.84 215.43L87.53 216.05L88.24 216.66L88.97 217.24L89.72 217.81L90.48 218.35L91.27 218.87L92.07 219.37L92.89 219.85L93.72 220.31L94.58 220.74L95.44 221.15L96.33 221.54L96.47 221.6L96.61 221.66L96.75 221.74L96.88 221.81L97.01 221.89L97.13 221.98L97.25 222.06L97.37 222.15L97.48 222.25L97.59 222.35L97.69 222.45L97.79 222.56L97.89 222.67L97.98 222.78L98.07 222.89L98.15 223.01L98.23 223.13L98.31 223.25L98.38 223.38L98.44 223.51L98.51 223.64L98.56 223.77L98.61 223.91L98.66 224.04L98.7 224.18L98.74 224.32L98.77 224.46L98.8 224.6L98.82 224.75L98.84 224.89L98.85 225.04L98.86 225.19L98.86 225.34L98.85 225.49L98.85 225.63L98.83 225.78L98.81 225.93L98.78 226.09L98.75 226.24L98.71 226.39L98.68 226.52L98.63 226.66L98.59 226.79L98.53 226.92L98.48 227.04L98.42 227.17L98.36 227.29L98.29 227.41L98.22 227.52L98.15 227.63L98.07 227.74L97.99 227.85L97.91 227.95L97.83 228.05L97.74 228.15L97.65 228.25L97.55 228.34L97.45 228.43L97.35 228.51L97.25 228.59L97.14 228.67L97.04 228.74L96.93 228.82L96.81 228.88L96.7 228.95L96.58 229.01L96.46 229.06L96.34 229.12L96.22 229.16L96.1 229.21L95.97 229.25L95.84 229.29L95.71 229.32L95.58 229.35L95.45 229.37L95.32 229.39L95.18 229.41L95.05 229.42L94.91 229.42L94.77 229.43L94.75 229.43L94.73 229.43L94.7 229.43L94.68 229.42L94.66 229.42L94.64 229.42L94.62 229.42L94.6 229.42L94.57 229.42L94.55 229.42L94.53 229.42L94.5 229.42L94.49 229.42L94.46 229.41L94.43 229.41L94.4 229.41L94.39 229.41L94.36 229.41L94.33 229.4L94.32 229.4L94.29 229.4L94.26 229.4L94.25 229.39L94.22 229.39L90.83 228.95L89.47 228.75L88.12 228.5L86.79 228.19L85.48 227.85L84.19 227.45L82.92 227.02L81.68 226.53L80.46 226.01L79.26 225.44L78.09 224.83L76.94 224.18L75.82 223.49L74.72 222.77L73.66 222L72.62 221.2L71.61 220.37L70.64 219.5L69.69 218.6L68.78 217.67L67.9 216.7L67.06 215.71L66.25 214.68L65.48 213.63L64.74 212.55L64.04 211.44L63.38 210.31L62.77 209.16L62.19 207.98L61.65 206.78L61.15 205.55L60.7 204.31L60.29 203.05L59.93 201.77L59.61 200.47L59.34 199.16L59.11 197.83L58.94 196.49L58.81 195.13L58.73 193.77L58.71 192.39L58.71 178.99L55.49 182.21L55.22 182.47L54.95 182.71L54.66 182.94L54.37 183.16L54.08 183.37L53.77 183.57L53.47 183.75L53.15 183.92L52.83 184.07L52.51 184.22L52.18 184.35L51.85 184.47L51.52 184.57L51.18 184.67L50.84 184.75L50.5 184.82L50.15 184.87L49.81 184.91L49.46 184.94L49.12 184.96L48.77 184.96L48.43 184.95L48.08 184.93L47.74 184.9L47.4 184.85L47.06 184.79L46.72 184.72L46.39 184.63L46.06 184.53L45.73 184.42L45.41 184.3L45.09 184.16L44.77 184.01L44.47 183.85L44.16 183.67L43.87 183.48L43.58 183.28L43.3 183.06L43.02 182.84L42.76 182.6L42.62 182.47L42.49 182.34L42.37 182.21L42.24 182.07L42.12 181.94L42 181.8L41.89 181.66L41.78 181.51L41.67 181.37L41.56 181.22L41.46 181.08L41.36 180.93L41.26 180.78L41.17 180.62L41.08 180.47L40.99 180.31L40.91 180.15L40.83 179.99L40.75 179.83L40.68 179.67L40.61 179.51L40.54 179.34L40.48 179.17L40.42 179.01L40.36 178.84L40.31 178.67L40.26 178.5L40.21 178.32L40.17 178.15L40.13 177.97L40.09 177.8L40.06 177.62L40.03 177.44L40 177.26L39.98 177.08L39.96 176.9L39.95 176.72L39.93 176.54L39.93 176.35L39.92 176.17L39.92 175.99L39.92 175.8L39.93 175.62L39.94 175.44L39.95 175.26L39.97 175.08L39.99 174.9L40.01 174.72L40.04 174.54L40.07 174.36L40.11 174.18L40.15 174.01L40.19 173.83L40.23 173.66L40.28 173.49L40.33 173.32L40.39 173.15L40.45 172.98L40.51 172.81L40.57 172.65L40.64 172.48L40.71 172.32L40.79 172.16L40.87 172L40.95 171.84L41.04 171.68L41.12 171.53L41.21 171.37L41.31 171.22L41.41 171.07L41.51 170.92L41.61 170.77L41.72 170.63L41.83 170.48L41.94 170.34L42.06 170.2L42.18 170.07L42.3 169.93L42.43 169.8L42.56 169.67L61.35 150.88L61.62 150.62L61.89 150.37L62.17 150.14L62.46 149.93L62.76 149.72L63.06 149.53L63.37 149.35L63.68 149.19L64 149.04L64.33 148.9L64.65 148.77L64.99 148.66L65.32 148.56L65.66 148.48L66 148.41L66.34 148.35L66.68 148.3L67.03 148.27L67.37 148.25L67.72 148.24L68.06 148.25L68.41 148.27ZM67.41 153.25L67.26 153.26L67.1 153.28L66.95 153.31L66.8 153.34L66.65 153.38L66.5 153.42L66.35 153.47L66.21 153.53L66.07 153.59L65.92 153.66L65.78 153.73L65.65 153.81L65.51 153.9L65.38 153.99L65.25 154.08L65.13 154.19L65 154.29L64.88 154.41L46.09 173.2L46.04 173.26L45.98 173.32L45.93 173.38L45.87 173.44L45.82 173.5L45.77 173.56L45.72 173.63L45.67 173.69L45.63 173.76L45.58 173.82L45.54 173.89L45.5 173.96L45.46 174.03L45.42 174.1L45.38 174.17L45.34 174.24L45.31 174.31L45.27 174.38L45.24 174.45L45.21 174.53L45.18 174.6L45.16 174.67L45.13 174.75L45.1 174.82L45.08 174.9L45.06 174.98L45.04 175.05L45.02 175.13L45 175.21L44.99 175.29L44.98 175.37L44.96 175.45L44.95 175.53L44.94 175.61L44.94 175.69L44.93 175.77L44.92 175.85L44.92 175.93L44.92 176.01L44.92 176.09L44.92 176.17L44.93 176.26L44.93 176.34L44.94 176.42L44.95 176.5L44.96 176.58L44.97 176.66L44.98 176.74L45 176.82L45.01 176.9L45.03 176.97L45.05 177.05L45.07 177.13L45.09 177.2L45.12 177.28L45.14 177.36L45.17 177.43L45.2 177.5L45.23 177.58L45.26 177.65L45.29 177.72L45.33 177.79L45.36 177.87L45.4 177.94L45.44 178.01L45.48 178.07L45.52 178.14L45.56 178.21L45.61 178.28L45.65 178.34L45.7 178.41L45.75 178.47L45.8 178.53L45.85 178.6L45.9 178.66L45.96 178.72L46.01 178.78L46.07 178.84L46.12 178.9L46.18 178.95L46.3 179.06L46.43 179.16L46.55 179.26L46.68 179.35L46.81 179.43L46.95 179.51L47.09 179.58L47.23 179.64L47.37 179.7L47.52 179.76L47.66 179.8L47.81 179.85L47.96 179.88L48.11 179.91L48.27 179.94L48.42 179.96L48.58 179.97L48.73 179.98L48.89 179.98L49.05 179.97L49.2 179.96L49.36 179.95L49.52 179.92L49.67 179.9L49.83 179.86L49.98 179.82L50.13 179.78L50.29 179.73L50.44 179.67L50.59 179.61L50.74 179.54L50.88 179.47L51.02 179.39L51.17 179.3L51.3 179.21L51.44 179.12L51.57 179.01L51.7 178.91L51.83 178.79L51.95 178.67L59.44 171.19L59.48 171.15L59.52 171.12L59.55 171.08L59.59 171.05L59.63 171.02L59.67 170.99L59.71 170.96L59.75 170.93L59.79 170.9L59.83 170.87L59.87 170.84L59.91 170.82L59.95 170.79L60 170.77L60.04 170.74L60.08 170.72L60.13 170.7L60.17 170.68L60.22 170.66L60.26 170.64L60.31 170.62L60.35 170.61L60.4 170.59L60.45 170.57L60.49 170.56L60.54 170.55L60.59 170.53L60.63 170.52L60.68 170.51L60.73 170.5L60.78 170.49L60.82 170.48L60.87 170.48L60.92 170.47L60.97 170.47L61.02 170.46L61.06 170.46L61.11 170.46L61.16 170.45L61.21 170.45L61.24 170.45L61.26 170.45L61.28 170.46L61.31 170.46L61.33 170.46L61.36 170.46L61.38 170.46L61.4 170.46L61.43 170.46L61.45 170.47L61.48 170.47L61.5 170.47L61.52 170.47L61.55 170.48L61.57 170.48L61.6 170.48L61.62 170.49L61.65 170.49L61.67 170.5L61.69 170.5L61.72 170.51L61.74 170.51L61.77 170.52L61.79 170.52L61.81 170.53L61.84 170.53L61.86 170.54L61.88 170.55L61.91 170.55L61.93 170.56L61.96 170.57L61.98 170.58L62 170.58L62.03 170.59L62.05 170.6L62.07 170.61L62.1 170.62L62.12 170.63L62.14 170.63L62.17 170.64L62.24 170.67L62.3 170.71L62.37 170.74L62.44 170.78L62.5 170.81L62.56 170.85L62.63 170.89L62.69 170.94L62.74 170.98L62.8 171.03L62.86 171.07L62.91 171.12L62.96 171.17L63.02 171.23L63.07 171.28L63.11 171.33L63.16 171.39L63.2 171.45L63.25 171.51L63.29 171.56L63.33 171.63L63.37 171.69L63.4 171.75L63.44 171.82L63.47 171.88L63.5 171.95L63.53 172.01L63.55 172.08L63.58 172.15L63.6 172.22L63.62 172.29L63.64 172.36L63.66 172.43L63.67 172.51L63.68 172.58L63.69 172.65L63.7 172.73L63.71 172.8L63.71 172.88L63.71 172.95L63.71 192.39L63.73 193.53L63.79 194.66L63.89 195.79L64.03 196.9L64.21 198L64.43 199.09L64.68 200.17L64.97 201.24L65.29 202.29L65.65 203.32L66.05 204.34L66.48 205.35L66.94 206.33L67.44 207.3L67.96 208.25L68.52 209.18L69.11 210.09L69.72 210.98L70.37 211.84L71.05 212.69L71.75 213.51L72.48 214.31L73.24 215.08L74.02 215.82L74.83 216.54L75.66 217.24L76.52 217.9L77.4 218.54L78.3 219.15L79.22 219.72L80.17 220.27L81.13 220.78L82.12 221.27L83.12 221.72L84.15 222.13L85.19 222.51L86.25 222.86L87.32 223.17L88.41 223.44L89.52 223.68L88.7 223.17L87.91 222.65L87.12 222.1L86.36 221.54L85.61 220.96L84.87 220.36L84.16 219.75L83.46 219.11L82.78 218.46L82.11 217.8L81.47 217.12L80.84 216.42L80.23 215.71L79.64 214.98L79.07 214.24L78.52 213.48L77.99 212.71L77.48 211.93L76.98 211.13L76.51 210.32L76.06 209.5L75.63 208.67L75.22 207.83L74.83 206.97L74.47 206.11L74.12 205.23L73.8 204.35L73.5 203.45L73.22 202.55L72.96 201.64L72.73 200.72L72.52 199.79L72.34 198.85L72.18 197.91L72.04 196.96L71.93 196L71.84 195.04L71.78 194.07L71.74 193.1L71.73 192.12L71.73 172.95L71.73 172.88L71.73 172.8L71.74 172.73L71.74 172.65L71.75 172.58L71.77 172.51L71.78 172.43L71.8 172.36L71.81 172.29L71.83 172.22L71.86 172.15L71.88 172.08L71.91 172.01L71.94 171.95L71.97 171.88L72 171.82L72.03 171.75L72.07 171.69L72.11 171.63L72.15 171.57L72.19 171.51L72.23 171.45L72.28 171.39L72.32 171.33L72.37 171.28L72.42 171.23L72.47 171.17L72.52 171.12L72.58 171.07L72.63 171.03L72.69 170.98L72.75 170.94L72.81 170.89L72.87 170.85L72.93 170.81L73 170.78L73.06 170.74L73.13 170.71L73.2 170.67L73.27 170.64L73.34 170.62L73.41 170.59L73.48 170.57L73.55 170.55L73.63 170.53L73.7 170.51L73.77 170.5L73.84 170.48L73.92 170.47L73.99 170.47L74.06 170.46L74.14 170.46L74.21 170.45L74.28 170.45L74.35 170.46L74.43 170.46L74.5 170.47L74.57 170.48L74.64 170.49L74.71 170.5L74.79 170.52L74.86 170.53L74.93 170.55L75 170.58L75.06 170.6L75.13 170.62L75.2 170.65L75.27 170.68L75.33 170.71L75.4 170.75L75.46 170.78L75.53 170.82L75.59 170.86L75.65 170.9L75.71 170.94L75.77 170.99L75.83 171.03L75.88 171.08L75.94 171.13L75.99 171.19L83.48 178.67L83.6 178.79L83.73 178.91L83.86 179.01L83.99 179.11L84.13 179.21L84.27 179.3L84.41 179.39L84.55 179.47L84.7 179.54L84.85 179.61L85 179.67L85.15 179.73L85.3 179.78L85.45 179.82L85.61 179.86L85.76 179.9L85.92 179.92L86.08 179.94L86.23 179.96L86.39 179.97L86.55 179.98L86.7 179.98L86.86 179.97L87.01 179.96L87.17 179.94L87.32 179.91L87.47 179.88L87.62 179.85L87.77 179.8L87.92 179.76L88.07 179.7L88.21 179.64L88.35 179.58L88.49 179.51L88.62 179.43L88.75 179.35L88.88 179.26L89.01 179.16L89.13 179.06L89.25 178.95L89.31 178.9L89.37 178.84L89.42 178.78L89.48 178.72L89.53 178.66L89.59 178.6L89.64 178.53L89.69 178.47L89.74 178.41L89.78 178.34L89.83 178.28L89.87 178.21L89.92 178.14L89.96 178.07L90 178.01L90.04 177.94L90.07 177.87L90.11 177.79L90.14 177.72L90.18 177.65L90.21 177.58L90.24 177.5L90.27 177.43L90.29 177.35L90.32 177.28L90.34 177.2L90.36 177.13L90.39 177.05L90.4 176.97L90.42 176.89L90.44 176.82L90.45 176.74L90.47 176.66L90.48 176.58L90.49 176.5L90.5 176.42L90.5 176.34L90.51 176.26L90.51 176.17L90.51 176.09L90.52 176.01L90.51 175.93L90.51 175.85L90.51 175.77L90.5 175.69L90.49 175.61L90.48 175.53L90.47 175.45L90.46 175.37L90.45 175.29L90.43 175.21L90.41 175.13L90.4 175.05L90.38 174.98L90.35 174.9L90.33 174.82L90.31 174.75L90.28 174.67L90.25 174.6L90.22 174.53L90.19 174.45L90.16 174.38L90.13 174.31L90.09 174.24L90.06 174.17L90.02 174.1L89.98 174.03L89.94 173.96L89.9 173.89L89.85 173.82L89.81 173.76L89.76 173.69L89.71 173.63L89.66 173.56L89.61 173.5L89.56 173.44L89.51 173.38L89.45 173.32L89.4 173.26L89.34 173.2L70.55 154.41L70.43 154.29L70.31 154.19L70.18 154.08L70.05 153.99L69.92 153.9L69.79 153.81L69.65 153.73L69.51 153.66L69.37 153.59L69.23 153.53L69.08 153.47L68.93 153.42L68.78 153.38L68.63 153.34L68.48 153.31L68.33 153.28L68.18 153.26L68.03 153.25L67.87 153.24L67.72 153.24L67.56 153.24L67.41 153.25Z" id="ddB5bVZqw"></path><path d="M200.79 174.03C200.17 167.43 196.98 161.3 192.3 157.53C194.22 157.53 209.61 157.53 211.54 157.53C212.7 157.53 213.65 156.46 213.65 155.17C213.65 153.87 212.7 152.81 211.54 152.81C207.06 152.81 171.24 152.81 166.76 152.81C165.59 152.81 164.64 153.87 164.64 155.17C164.64 156.46 165.59 157.53 166.76 157.53C168.04 157.53 178.3 157.53 179.58 157.53C188.3 157.53 195.5 164.84 196.53 174.03C193.56 174.03 169.74 174.03 166.76 174.03C165.59 174.03 164.64 175.09 164.64 176.39C164.64 177.69 165.59 178.75 166.76 178.75C169.74 178.75 193.56 178.75 196.53 178.75C195.47 188.3 188.2 195.46 179.58 195.49C178.3 195.49 168.06 195.49 166.78 195.49C165.59 195.51 164.64 196.6 164.66 197.92C164.66 198.55 164.92 199.17 165.32 199.61C168.52 202.99 194.14 229.98 197.34 233.36C198.18 234.25 199.52 234.2 200.32 233.26C201.12 232.29 201.08 230.81 200.24 229.89C198.36 227.91 188.97 218.02 172.07 200.2C176.56 200.2 179.06 200.2 179.56 200.2C190.61 200.2 199.73 190.77 200.79 178.75C201.86 178.75 210.46 178.75 211.54 178.75C212.7 178.75 213.65 177.69 213.65 176.39C213.65 175.09 212.7 174.03 211.54 174.03C209.39 174.03 201.86 174.03 200.79 174.03Z" id="aVfqzi5i2"></path></defs><g><g><g><use xlink:href="#dvKAlcOfr" opacity="1" fill="#000000" fill-opacity="0"></use><g><use xlink:href="#dvKAlcOfr" opacity="1" fill-opacity="0" stroke="#000000" stroke-width="1" stroke-opacity="0"></use></g></g><g><use xlink:href="#cvXxcUwvQ" opacity="1" fill="#facb35" fill-opacity="1"></use><g><use xlink:href="#cvXxcUwvQ" opacity="1" fill-opacity="0" stroke="#000000" stroke-width="1" stroke-opacity="0"></use></g></g><g><use xlink:href="#b2B5V9vCiz" opacity="1" fill="#facb35" fill-opacity="1"></use><g><use xlink:href="#b2B5V9vCiz" opacity="1" fill-opacity="0" stroke="#000000" stroke-width="1" stroke-opacity="0"></use></g></g><g><use xlink:href="#abdFE5nel" opacity="1" fill="#fcac27" fill-opacity="1"></use><g><use xlink:href="#abdFE5nel" opacity="1" fill-opacity="0" stroke="#000000" stroke-width="1" stroke-opacity="0"></use></g></g><g><use xlink:href="#ag6xFkgQ0" opacity="1" fill="#fcac27" fill-opacity="1"></use><g><use xlink:href="#ag6xFkgQ0" opacity="1" fill-opacity="0" stroke="#000000" stroke-width="1" stroke-opacity="0"></use></g></g><g><use xlink:href="#e2osIDzY60" opacity="1" fill="#45bdf0" fill-opacity="1"></use><g><use xlink:href="#e2osIDzY60" opacity="1" fill-opacity="0" stroke="#000000" stroke-width="1" stroke-opacity="0"></use></g></g><g><use xlink:href="#fiAK682to" opacity="1" fill="#45bdf0" fill-opacity="1"></use><g><use xlink:href="#fiAK682to" opacity="1" fill-opacity="0" stroke="#000000" stroke-width="1" stroke-opacity="0"></use></g></g><g><use xlink:href="#b4oIwiUeXq" opacity="1" fill="#000000" fill-opacity="1"></use><g><use xlink:href="#b4oIwiUeXq" opacity="1" fill-opacity="0" stroke="#000000" stroke-width="1" stroke-opacity="0"></use></g></g><g><use xlink:href="#cDIcYMSKk" opacity="1" fill="#000000" fill-opacity="1"></use><g><use xlink:href="#cDIcYMSKk" opacity="1" fill-opacity="0" stroke="#000000" stroke-width="1" stroke-opacity="0"></use></g></g><g><use xlink:href="#bubM6Cs8K" opacity="1" fill="#000000" fill-opacity="1"></use><g><use xlink:href="#bubM6Cs8K" opacity="1" fill-opacity="0" stroke="#000000" stroke-width="1" stroke-opacity="0"></use></g></g><g><use xlink:href="#bnech3BQZ" opacity="1" fill="#000000" fill-opacity="1"></use><g><use xlink:href="#bnech3BQZ" opacity="1" fill-opacity="0" stroke="#000000" stroke-width="1" stroke-opacity="0"></use></g></g><g><use xlink:href="#d6Tvj0951" opacity="1" fill="#000000" fill-opacity="1"></use><g><use xlink:href="#d6Tvj0951" opacity="1" fill-opacity="0" stroke="#000000" stroke-width="1" stroke-opacity="0"></use></g></g><g><use xlink:href="#eVvVXxzK0" opacity="1" fill="#000000" fill-opacity="1"></use><g><use xlink:href="#eVvVXxzK0" opacity="1" fill-opacity="0" stroke="#000000" stroke-width="1" stroke-opacity="0"></use></g></g><g><use xlink:href="#a6Q0xpeSsp" opacity="1" fill="#000000" fill-opacity="1"></use><g><use xlink:href="#a6Q0xpeSsp" opacity="1" fill-opacity="0" stroke="#000000" stroke-width="1" stroke-opacity="0"></use></g></g><g><use xlink:href="#ddB5bVZqw" opacity="1" fill="#000000" fill-opacity="1"></use><g><use xlink:href="#ddB5bVZqw" opacity="1" fill-opacity="0" stroke="#000000" stroke-width="1" stroke-opacity="0"></use></g></g><g><use xlink:href="#aVfqzi5i2" opacity="1" fill="#000000" fill-opacity="1"></use><g><use xlink:href="#aVfqzi5i2" opacity="1" fill-opacity="0" stroke="#000000" stroke-width="1" stroke-opacity="0"></use></g></g></g></g></svg>