<svg height="456pt" viewBox="0 -1 456.24 456" width="456pt" xmlns="http://www.w3.org/2000/svg"><path d="m144.5 283.378906c.003906 13.257813 7.078125 25.507813 18.558594 32.136719 11.480468 6.628906 25.628906 6.632813 37.113281.003906 15.597656 9.003907 35.40625 5.507813 46.984375-8.289062 11.574219-13.796875 11.574219-33.914063 0-47.710938-11.578125-13.796875-31.386719-17.292969-46.984375-8.289062-11.488281-6.628907-25.636719-6.628907-37.117187.003906-11.484376 6.632813-18.554688 18.882813-18.554688 32.144531zm-111.171875 70.511719h-27.328125v-267.222656h252.628906c15.933594.003906 28.847656 12.917969 28.851563 28.851562v209.519531c0 15.933594-12.917969 28.851563-28.851563 28.851563zm0 0" fill="#6fe3ff"/><path d="m181.621094 283.378906c-.007813-13.261718 7.0625-25.519531 18.550781-32.148437 11.484375 6.628906 18.558594 18.882812 18.558594 32.144531s-7.074219 25.515625-18.558594 32.144531c-11.484375-6.628906-18.554687-18.882812-18.550781-32.140625zm0 0" fill="#e2d574"/><path d="m200.171875 251.230469c15.597656-9.003907 35.40625-5.507813 46.984375 8.289062 11.574219 13.796875 11.574219 33.914063 0 47.710938-11.578125 13.796875-31.386719 17.292969-46.984375 8.289062 11.484375-6.628906 18.558594-18.882812 18.558594-32.144531s-7.074219-25.515625-18.558594-32.144531zm0 0" fill="#f8ec7d"/><path d="m181.621094 246.257812c6.511718-.011718 12.914062 1.703126 18.550781 4.972657-11.480469 6.632812-18.550781 18.886719-18.550781 32.144531s7.070312 25.511719 18.550781 32.144531c-13.515625 7.800781-30.464844 6.3125-42.414063-3.714843-11.953124-10.03125-16.355468-26.464844-11.015624-41.128907 5.335937-14.660156 19.273437-24.417969 34.878906-24.417969zm0 0" fill="#f8ec7d"/><path d="m6 353.890625h27.328125v72.039063h-27.328125zm0 0" fill="#e48e66"/><path d="m33.328125 86.667969h-27.328125v-72.027344h27.328125zm0 0" fill="#e48e66"/><g fill="#63316d"><path d="m258.628906 359.890625c19.238282-.023437 34.828125-15.613281 34.851563-34.851563v-209.519531c-.023438-19.238281-15.613281-34.828125-34.851563-34.851562h-219.300781v-66.027344c0-3.316406-2.683594-6-6-6h-27.328125c-3.3125 0-6 2.683594-6 6v411.289063c0 3.3125 2.6875 6 6 6h27.328125c3.316406 0 6-2.6875 6-6v-66.039063zm22.851563-244.371094v27.480469h-17.460938c-3.3125 0-6 2.683594-6 6 0 3.3125 2.6875 6 6 6h17.460938v170.039062c-.015625 12.613282-10.238281 22.835938-22.851563 22.851563h-246.628906v-192.890625h145.449219c3.316406 0 6-2.6875 6-6 0-3.316406-2.683594-6-6-6h-145.449219v-50.332031h246.628906c12.613282.015625 22.835938 10.238281 22.851563 22.851562zm-254.152344-94.878906v60.027344h-15.328125v-60.027344zm0 399.289063h-15.328125v-60.039063h15.328125zm0 0"/><path d="m200.171875 244.46875c-18.121094-8.65625-39.816406-3.65625-52.320313 12.058594-12.503906 15.714844-12.503906 37.980468 0 53.695312 12.503907 15.710938 34.199219 20.714844 52.320313 12.058594 18.121094 8.652344 39.816406 3.652344 52.320313-12.0625 12.503906-15.710938 12.503906-37.976562 0-53.691406-12.503907-15.710938-34.199219-20.710938-52.320313-12.058594zm0 63.863281c-7.894531-5.863281-12.550781-15.121093-12.550781-24.957031s4.65625-19.089844 12.550781-24.957031c7.902344 5.863281 12.558594 15.121093 12.558594 24.957031s-4.65625 19.09375-12.558594 24.957031zm-49.671875-24.953125c-.011719-9.410156 4.238281-18.316406 11.5625-24.226562 7.320312-5.90625 16.925781-8.179688 26.121094-6.183594-16.75 16.808594-16.75 44 0 60.808594-9.191406 2.003906-18.796875-.269532-26.121094-6.175782-7.320312-5.90625-11.574219-14.8125-11.558594-24.222656zm99.339844 0c.015625 9.40625-4.234375 18.3125-11.558594 24.222656-7.320312 5.90625-16.921875 8.179688-26.117188 6.175782 16.753907-16.804688 16.753907-43.996094 0-60.804688 9.195313-2.003906 18.800782.269532 26.121094 6.179688 7.320313 5.910156 11.570313 14.816406 11.554688 24.226562zm0 0"/><path d="m207.5 155h33.699219c3.316406 0 6-2.6875 6-6 0-3.316406-2.683594-6-6-6h-33.699219c-3.3125 0-6 2.683594-6 6 0 3.3125 2.6875 6 6 6zm0 0"/><path d="m179.910156 155h5.640625c3.3125 0 6-2.6875 6-6 0-3.316406-2.6875-6-6-6h-5.640625c-3.3125 0-6 2.683594-6 6 0 3.3125 2.6875 6 6 6zm0 0"/><path d="m207.054688 1.878906c-2.34375-2.34375-6.144532-2.34375-8.488282 0l-24.039062 24.039063c-2.339844 2.34375-2.339844 6.140625 0 8.484375l24.039062 24.039062c1.511719 1.550782 3.734375 2.167969 5.828125 1.617188 2.089844-.550782 3.726563-2.183594 4.277344-4.273438.550781-2.09375-.070313-4.320312-1.617187-5.828125l-13.800782-13.800781h81.324219c3.316406 0 6-2.683594 6-6 0-3.3125-2.683594-6-6-6h-81.316406l13.796875-13.800781c2.339844-2.34375 2.335937-6.136719-.003906-8.476563zm0 0"/><path d="m349.398438 36.160156c3.316406 0 6-2.6875 6-6 0-3.316406-2.683594-6-6-6h-1.058594c-3.3125 0-6 2.683594-6 6 0 3.3125 2.6875 6 6 6zm0 0"/><path d="m329.378906 36.160156c3.316406 0 6-2.6875 6-6 0-3.316406-2.683594-6-6-6h-.699218c-3.3125 0-6 2.683594-6 6 0 3.3125 2.6875 6 6 6zm0 0"/><path d="m301.519531 36.160156c3.3125 0 6-2.6875 6-6 0-3.316406-2.6875-6-6-6h-.328125c-3.316406 0-6 2.683594-6 6 0 3.3125 2.683594 6 6 6zm0 0"/><path d="m386.328125 417.179688h-1.058594c-3.3125 0-6 2.6875-6 6s2.6875 6 6 6h1.058594c3.316406 0 6-2.6875 6-6s-2.683594-6-6-6zm0 0"/><path d="m366.300781 417.179688h-.691406c-3.3125 0-6 2.6875-6 6s2.6875 6 6 6h.691406c3.3125 0 6-2.6875 6-6s-2.6875-6-6-6zm0 0"/><path d="m338.441406 417.179688h-.320312c-3.316406 0-6 2.6875-6 6s2.683594 6 6 6h.320312c3.3125 0 6-2.6875 6-6s-2.6875-6-6-6zm0 0"/><path d="m311.511719 417.179688h-129.40625l13.800781-13.800782c2.273438-2.355468 2.238281-6.097656-.074219-8.410156-2.316406-2.316406-6.058593-2.347656-8.410156-.074219l-24.039063 24.039063c-2.34375 2.34375-2.34375 6.144531 0 8.484375l24.039063 24.042969c2.351563 2.273437 6.09375 2.238281 8.410156-.074219 2.3125-2.316407 2.347657-6.058594.074219-8.410157l-13.800781-13.800781h129.40625c3.3125 0 6-2.6875 6-6s-2.6875-6-6-6zm0 0"/><path d="m338.839844 165.410156 24.039062 24.042969c1.5 1.585937 3.742188 2.230469 5.855469 1.683594 2.117187-.542969 3.765625-2.195313 4.3125-4.308594s-.101563-4.359375-1.6875-5.859375l-13.800781-13.800781h23.632812c3.3125 0 6-2.683594 6-6 0-3.3125-2.6875-6-6-6h-23.625l13.796875-13.796875c1.5625-1.507813 2.1875-3.738282 1.636719-5.835938-.546875-2.097656-2.1875-3.738281-4.285156-4.285156-2.097656-.550781-4.328125.074219-5.832032 1.636719l-24.042968 24.039062c-2.34375 2.34375-2.34375 6.140625 0 8.484375zm0 0"/><path d="m450.238281 155.167969h-1.058593c-3.3125 0-6 2.6875-6 6 0 3.316406 2.6875 6 6 6h1.058593c3.316407 0 6-2.683594 6-6 0-3.3125-2.683593-6-6-6zm0 0"/><path d="m430.21875 155.167969h-.699219c-3.3125 0-6 2.6875-6 6 0 3.316406 2.6875 6 6 6h.699219c3.316406 0 6-2.683594 6-6 0-3.3125-2.683594-6-6-6zm0 0"/><path d="m402.359375 155.167969h-.328125c-3.316406 0-6 2.6875-6 6 0 3.316406 2.683594 6 6 6h.328125c3.3125 0 6-2.683594 6-6 0-3.3125-2.6875-6-6-6zm0 0"/><path d="m446.199219 286.167969h-.6875c-3.316407 0-6 2.6875-6 6 0 3.316406 2.683593 6 6 6h.6875c3.316406 0 6-2.683594 6-6 0-3.3125-2.683594-6-6-6zm0 0"/><path d="m418.339844 286.167969h-.320313c-3.3125 0-6 2.6875-6 6 0 3.316406 2.6875 6 6 6h.320313c3.3125 0 6-2.683594 6-6 0-3.3125-2.6875-6-6-6zm0 0"/><path d="m397.171875 286.167969h-59l13.796875-13.796875c2.289062-2.355469 2.265625-6.109375-.054688-8.429688-2.324218-2.320312-6.078124-2.34375-8.429687-.054687l-24.039063 24.039062c-2.34375 2.34375-2.34375 6.140625 0 8.484375l24.039063 24.039063c2.367187 2.171875 6.027344 2.09375 8.300781-.179688 2.269532-2.273437 2.347656-5.933593.175782-8.300781l-13.800782-13.800781h59.011719c3.3125 0 6-2.683594 6-6 0-3.3125-2.6875-6-6-6zm0 0"/></g></svg>