<svg width="141.732" height="141.732" xmlns="http://www.w3.org/2000/svg">

 <g>
  <title>background</title>
  <rect fill="none" id="canvas_background" height="402" width="582" y="-1" x="-1"/>
 </g>
 <g>
  <title>Layer 1</title>
  <path fill="#ffffff" id="svg_1" d="m120.674,125.138l-99.881,0l0,16.594l99.881,0l0,-16.594zm-1.655,-66.362c-2.561,-2.562 -6.716,-2.562 -9.275,0l-32.534,32.536l0,-84.75c0,-3.626 -2.941,-6.562 -6.562,-6.562c-3.624,0 -6.56,2.937 -6.56,6.563l0,84.75l-32.096,-32.095c-2.562,-2.564 -6.715,-2.564 -9.277,0c-2.565,2.562 -2.565,6.716 0,9.279l43.294,43.293c0.15,0.154 0.314,0.299 0.481,0.438c0.076,0.062 0.155,0.113 0.234,0.176c0.094,0.065 0.186,0.142 0.279,0.206c0.097,0.063 0.192,0.114 0.286,0.174c0.088,0.054 0.174,0.105 0.265,0.153c0.1,0.056 0.199,0.1 0.298,0.147c0.097,0.045 0.19,0.091 0.283,0.132c0.098,0.04 0.196,0.072 0.295,0.105c0.104,0.038 0.207,0.078 0.312,0.109c0.101,0.03 0.197,0.052 0.297,0.077c0.108,0.023 0.214,0.058 0.324,0.078c0.115,0.021 0.231,0.033 0.346,0.054c0.097,0.015 0.192,0.032 0.289,0.042c0.43,0.042 0.865,0.042 1.295,0c0.1,-0.01 0.191,-0.027 0.289,-0.042c0.114,-0.021 0.233,-0.029 0.344,-0.054c0.109,-0.021 0.217,-0.055 0.324,-0.078c0.102,-0.025 0.199,-0.047 0.299,-0.077c0.105,-0.031 0.207,-0.071 0.312,-0.109c0.102,-0.03 0.195,-0.062 0.295,-0.105c0.096,-0.041 0.191,-0.087 0.283,-0.132c0.1,-0.048 0.199,-0.092 0.297,-0.147c0.091,-0.048 0.177,-0.104 0.264,-0.153c0.098,-0.06 0.193,-0.11 0.287,-0.174c0.096,-0.064 0.189,-0.141 0.281,-0.206c0.076,-0.062 0.156,-0.113 0.233,-0.176c0.249,-0.204 0.479,-0.437 0.694,-0.67c0.076,-0.067 0.154,-0.131 0.229,-0.203l43.294,-43.296c2.563,-2.568 2.563,-6.722 0.001,-9.283"/>
 </g>
</svg>