<svg width="128" height="128" xmlns="http://www.w3.org/2000/svg">

 <g>
  <title>background</title>
  <rect fill="none" id="canvas_background" height="402" width="582" y="-1" x="-1"/>
 </g>
 <g>
  <title>Layer 1</title>
  <path id="svg_4" fill="#ffffff" d="m80.016,96l-8.297,0l-7.969,-12.961l-7.969,12.961l-7.781,0l11.367,-17.672l-10.64,-16.594l8.016,0l7.383,12.328l7.242,-12.328l7.828,0l-10.758,16.993l11.578,17.273z"/>
  <path id="svg_7" fill="#ffffff" d="m104,80c-13.255,0 -24,10.745 -24,24s10.745,24 24,24s24,-10.745 24,-24s-10.745,-24 -24,-24zm10.882,16.988l-0.113,0.176l-8.232,11.438c-0.548,0.866 -1.508,1.398 -2.537,1.398s-1.989,-0.532 -2.536,-1.397l-8.346,-11.614c-0.529,-0.926 -0.524,-2.073 0.01,-2.994c0.535,-0.922 1.53,-1.494 2.596,-1.494l4.276,0l0,-6.501c0,-1.654 1.346,-3 3,-3l2,0c1.654,0 3,1.346 3,3l0,6.5l4.276,0c1.065,0 2.061,0.572 2.596,1.494c0.534,0.921 0.539,2.069 0.01,2.994z"/>
  <polygon id="svg_10" fill="#FF9A30" points="84,125.95 83.95,126 84,126      "/>
  <polygon id="svg_12" fill="#FF9A30" points="114,77 114,76.95 113.95,77      "/>
  <path id="svg_14" fill="#ffffff" d="m111.071,44.243l-39.314,-39.314c-1.888,-1.888 -4.4,-2.929 -7.07,-2.929l-40.687,0c-5.514,0 -10,4.486 -10,10l0,104c0,5.514 4.486,10 10,10l59.95,0l-4,-4l-55.95,0c-3.309,0 -6,-2.691 -6,-6l0,-104c0,-3.309 2.691,-6 6,-6l40.687,0c1.603,0 3.109,0.624 4.242,1.757l39.314,39.314c1.116,1.117 1.757,2.663 1.757,4.242l0,21.637l4,4l0,-25.637c0,-2.67 -1.04,-5.181 -2.929,-7.07z"/>
  <polyline id="svg_16" fill="#FFFFFF" points="113.95,77 114,76.95 110,72.95      "/>
 </g>
</svg>