<svg height="511pt" viewBox="0 -4 511.89514 511" width="511pt" xmlns="http://www.w3.org/2000/svg"><path d="m196.160156 452.609375c0 28.277344-22.921875 51.199219-51.199218 51.199219-28.277344 0-51.199219-22.921875-51.199219-51.199219s22.921875-51.199219 51.199219-51.199219c28.277343 0 51.199218 22.921875 51.199218 51.199219zm0 0" fill="#2c3e50"/><path d="m162.027344 452.609375c0 9.425781-7.640625 17.066406-17.066406 17.066406-9.425782 0-17.066407-7.640625-17.066407-17.066406s7.640625-17.066406 17.066407-17.066406c9.425781 0 17.066406 7.640625 17.066406 17.066406zm0 0" fill="#d1d4d1"/><path d="m452.160156 452.609375c0 28.277344-22.921875 51.199219-51.199218 51.199219-28.277344 0-51.199219-22.921875-51.199219-51.199219s22.921875-51.199219 51.199219-51.199219c28.277343 0 51.199218 22.921875 51.199218 51.199219zm0 0" fill="#2c3e50"/><path d="m418.027344 452.609375c0 9.425781-7.640625 17.066406-17.066406 17.066406-9.425782 0-17.066407-7.640625-17.066407-17.066406s7.640625-17.066406 17.066407-17.066406c9.425781 0 17.066406 7.640625 17.066406 17.066406zm0 0" fill="#d1d4d1"/><path d="m119.363281 230.742188h136.53125c9.425781 0 17.066407 7.640624 17.066407 17.066406v136.535156c0 9.425781-7.640626 17.066406-17.066407 17.066406h-136.53125c-9.425781 0-17.066406-7.640625-17.066406-17.066406v-136.535156c0-9.425782 7.640625-17.066406 17.066406-17.066406zm0 0" fill="#805333"/><path d="m204.695312 60.074219h136.53125c9.425782 0 17.070313 7.644531 17.070313 17.070312v136.53125c0 9.425781-7.644531 17.066407-17.070313 17.066407h-136.53125c-9.425781 0-17.066406-7.640626-17.066406-17.066407v-136.53125c0-9.425781 7.640625-17.070312 17.066406-17.070312zm0 0" fill="#fdd7ad"/><path d="m204.695312 60.074219h119.464844c9.425782 0 17.066406 7.644531 17.066406 17.070312v136.53125c0 9.425781-7.640624 17.066407-17.066406 17.066407h-119.464844c-9.425781 0-17.066406-7.640626-17.066406-17.066407v-136.53125c0-9.425781 7.640625-17.070312 17.066406-17.070312zm0 0" fill="#fdd7ad"/><path d="m290.027344 230.742188h136.535156c9.425781 0 17.066406 7.640624 17.066406 17.066406v136.535156c0 9.425781-7.640625 17.066406-17.066406 17.066406h-136.535156c-9.425782 0-17.066406-7.640625-17.066406-17.066406v-136.535156c0-9.425782 7.640624-17.066406 17.066406-17.066406zm0 0" fill="#cb8252"/><path d="m426.5625 247.808594v136.535156c.210938 9.179688-7.035156 16.804688-16.214844 17.066406h-121.171875c-9.179687-.261718-16.425781-7.886718-16.214843-17.066406v-136.535156c-.210938-9.179688 7.035156-16.804688 16.214843-17.066406h121.257813c9.144531.308593 16.339844 7.917968 16.128906 17.066406zm0 0" fill="#cb8252"/><path d="m255.894531 60.074219v85.335937l34.132813-25.601562 34.132812 25.601562v-85.335937zm0 0" fill="#e64c3c"/><path d="m136.429688 230.742188v85.332031l34.132812-25.597657 34.132812 25.597657v-85.332031zm0 0" fill="#c03a2b"/><path d="m341.226562 230.742188v85.332031l34.136719-25.597657 34.132813 25.597657v-85.332031zm0 0" fill="#c03a2b"/><g fill="#2c2f38"><path d="m221.761719 102.742188c0 4.714843-3.820313 8.535156-8.535157 8.535156h-25.597656v-17.066406h25.597656c4.714844 0 8.535157 3.820312 8.535157 8.53125zm0 0"/><path d="m221.761719 145.410156c0 4.710938-3.820313 8.53125-8.535157 8.53125h-25.597656v-17.066406h25.597656c4.714844 0 8.535157 3.820312 8.535157 8.535156zm0 0"/><path d="m221.761719 188.074219c0 4.714843-3.820313 8.535156-8.535157 8.535156h-25.597656v-17.066406h25.597656c4.714844 0 8.535157 3.820312 8.535157 8.53125zm0 0"/><path d="m298.5625 281.941406h-25.601562c-4.710938 0-8.53125-3.820312-8.53125-8.53125 0-4.714844 3.820312-8.535156 8.53125-8.535156h25.601562c4.710938 0 8.53125 3.820312 8.53125 8.535156 0 4.710938-3.820312 8.53125-8.53125 8.53125zm0 0"/><path d="m298.5625 324.609375h-25.601562c-4.710938 0-8.53125-3.820313-8.53125-8.535156 0-4.710938 3.820312-8.53125 8.53125-8.53125h25.601562c4.710938 0 8.53125 3.820312 8.53125 8.53125 0 4.714843-3.820312 8.535156-8.53125 8.535156zm0 0"/><path d="m298.5625 367.277344h-25.601562c-4.710938 0-8.53125-3.820313-8.53125-8.535156 0-4.710938 3.820312-8.53125 8.53125-8.53125h25.601562c4.710938 0 8.53125 3.820312 8.53125 8.53125 0 4.714843-3.820312 8.535156-8.53125 8.535156zm0 0"/><path d="m272.960938 281.941406h-25.597657c-4.714843 0-8.535156-3.820312-8.535156-8.53125 0-4.714844 3.820313-8.535156 8.535156-8.535156h25.597657c4.714843 0 8.535156 3.820312 8.535156 8.535156 0 4.710938-3.820313 8.53125-8.535156 8.53125zm0 0"/><path d="m272.960938 324.609375h-25.597657c-4.714843 0-8.535156-3.820313-8.535156-8.535156 0-4.710938 3.820313-8.53125 8.535156-8.53125h25.597657c4.714843 0 8.535156 3.820312 8.535156 8.53125 0 4.714843-3.820313 8.535156-8.535156 8.535156zm0 0"/><path d="m272.960938 367.277344h-25.597657c-4.714843 0-8.535156-3.820313-8.535156-8.535156 0-4.710938 3.820313-8.53125 8.535156-8.53125h25.597657c4.714843 0 8.535156 3.820312 8.535156 8.53125 0 4.714843-3.820313 8.535156-8.535156 8.535156zm0 0"/></g><path d="m503.363281 409.941406h-435.203125c-18.851562 0-34.132812-15.28125-34.132812-34.132812v-315.125c.027344-9.058594-3.570313-17.746094-9.992188-24.132813l-21.640625-21.640625c-3.234375-3.347656-3.1875-8.671875.105469-11.964844 3.289062-3.289062 8.613281-3.335937 11.960938-.101562l21.640624 21.640625c9.632813 9.578125 15.03125 22.613281 14.992188 36.199219v315.125c0 9.425781 7.640625 17.066406 17.066406 17.066406h435.203125c4.710938 0 8.53125 3.820312 8.53125 8.535156 0 4.710938-3.820312 8.53125-8.53125 8.53125zm0 0" fill="#5e5f62"/></svg>