<svg height="512" viewBox="0 0 57 58" width="512" xmlns="http://www.w3.org/2000/svg"><g id="021---Gears-Cutting" fill="none"><path id="Shape" d="m43.83 47.82-4 4c-.6831222.6819852-1.755871.778743-2.55.23-5.87-4.05-5.28-3.65-5.45-3.67l-1.37.62-1.16 6.4c-.1759347.9621851-1.0219925 1.6559525-2 1.64h-5.63c-.9780075.0159525-1.8240653-.6778149-2-1.64-1.17-6.48-1.11-6.42-1.21-6.42l-1.4-.59-5.36 3.71c-.794129.548743-1.86687784.4519852-2.55-.23l-4-4c-.68198524-.6831222-.77874298-1.755871-.23-2.55l3.71-5.36c-.67-1.58-.6-1.44-.61-1.45l-6.38-1.21c-.96218505-.1759347-1.65595251-1.0219925-1.64-2v-5.63c-.01595251-.9780075.67781495-1.8240653 1.64-2 6.48-1.17 6.42-1.11 6.42-1.21l.59-1.4-3.71-5.33c-.54874298-.794129-.45198524-1.8668778.23-2.55l4-4c.68312216-.6819852 1.755871-.778743 2.55-.23 5.87 4.05 5.28 3.65 5.45 3.67l1.37-.62 1.16-6.4c.1759347-.96218505 1.0219925-1.65595251 2-1.64h2.39c.5191477 0 .94.42085234.94.94v1.1c.0021108 2.0453715 1.2497835 3.8832132 3.15 4.64l1.6 4c.33.82-.75 1.25-.75 3.35v3c.0010238 1.9871759 1.1787229 3.7851298 3 4.58v.43c.0015453 1.7806509.9499717 3.4261136 2.49 4.32.3023773.1695612.4953623.4836349.51.83v2.35c0 1.5737865.7409708 3.0557281 2 4 2.54 1.9 3.69 3.15 6.51 3l.55.79c.5297645.7969326.4207764 1.8574708-.26 2.53z" fill="#3d324c"/><path id="Shape" d="m38.67 42.75c-1.7343952 2.4168146-4.062681 4.3455721-6.76 5.6l-1.45.65c-3.8517962 1.3898307-8.0682038 1.3898307-11.92 0-.09-.05-1.44-.6-1.45-.61-3.7164647-1.7359173-6.7040827-4.7235353-8.44-8.44-.01004066-.0257215-.01004066-.0542785 0-.08l-.56-1.32c-.72243242-1.9351946-1.09162022-3.9843562-1.09-6.05-.01532484-2.5337764.53828287-5.0386804 1.62-7.33-.01004066-.0257215-.01004066-.0542785 0-.08 1.7359173-3.7164647 4.7235353-6.7040827 8.44-8.44.0257215-.0100407.0542785-.0100407.08 0l1.4-.65c3.1882056-1.1471976 6.6400068-1.3486106 9.94-.58l1.27 3.19c.1048897.283997.0754733.6002228-.08.86-.87 1.53-.67 2.67-.67 5.53.0010238 1.9871759 1.1787229 3.7851298 3 4.58v.42c.0015453 1.7806509.9499717 3.4261136 2.49 4.32.3023773.1695612.4953623.4836349.51.83v2.35c0 1.5737865.7409708 3.0557281 2 4z" fill="#5d4c72"/><circle id="Oval" cx="24.5" cy="32.5" fill="#3d324c" r="5.5"/><path id="Shape" d="m43 46c-.5522847 0-1-.4477153-1-1v-6c0-.5522847.4477153-1 1-1s1 .4477153 1 1v6c0 .5522847-.4477153 1-1 1z" fill="#e64c3c"/><path id="Shape" d="m55 11-4 10-8 2-8-2c-2-5.05-1.94-4.86-4-10l12-2z" fill="#3f5c6c"/><path id="Shape" d="m47 29v8.5c0 .3147573-.1481942.6111456-.4.8l-2.4 1.8c-.7111111.5333333-1.6888889.5333333-2.4 0l-2.4-1.8c-.2518058-.1888544-.4-.4852427-.4-.8v-8.5z" fill="#bdc3c7"/><path id="Shape" d="m12 34c-.5522847 0-1-.4477153-1-1 0-5.56 2.33-9.78 6.55-11.89.3211808-.1932607.7234705-.1906728 1.0421383.0067041.3186678.1973768.5001928.5563928.4702434.9300368s-.2663431.6991617-.6123817.8432591c-3.52 1.76-5.45 5.35-5.45 10.11 0 .5522847-.4477153 1-1 1z" fill="#b49aca"/><circle id="Oval" cx="21" cy="20" fill="#b49aca" r="1"/><path id="Shape" d="m36 24v6c0 .5522847.4477153 1 1 1h12c.5522847 0 1-.4477153 1-1v-6z" fill="#2980ba"/><rect id="Rectangle-path" fill="#3b97d3" height="5" rx="1" width="20" x="33" y="21"/><path id="Shape" d="m57 1v9c0 .5522847-.4477153 1-1 1-27.75 0-26.18.06-26.48-.13-.3183462-.1741716-.5173572-.5071322-.52-.87v-9c0-.55228475.4477153-1 1-1h26c.5522847 0 1 .44771525 1 1z" fill="#3b97d3"/><g fill="#84b5cb"><path id="Shape" d="m35 5h-2c-.5522847 0-1-.44771525-1-1s.4477153-1 1-1h2c.5522847 0 1 .44771525 1 1s-.4477153 1-1 1z"/><path id="Shape" d="m53 5h-14c-.5522847 0-1-.44771525-1-1s.4477153-1 1-1h14c.5522847 0 1 .44771525 1 1s-.4477153 1-1 1z"/></g></g></svg>