<svg width="96" height="96" xmlns="http://www.w3.org/2000/svg">

 <g>
  <title>background</title>
  <rect fill="none" id="canvas_background" height="402" width="582" y="-1" x="-1"/>
 </g>
 <g>
  <title>Layer 1</title>
  <path fill="#00bfbf" id="svg_1" d="m80,4l-64,0c-6.63,0 -12,5.37 -12,12l0,64c0,6.63 5.37,12 12,12l64,0c6.63,0 12,-5.37 12,-12l0,-64c0,-6.63 -5.37,-12 -12,-12zm4,76c0,2.21 -1.79,4 -4,4l-64,0c-2.21,0 -4,-1.79 -4,-4l0,-64c0,-2.21 1.79,-4 4,-4l64,0c2.21,0 4,1.79 4,4l0,64z"/>
  <rect stroke="null" id="svg_3" height="72.452892" width="72.988587" y="11.765183" x="11.773555" stroke-opacity="null" stroke-width="null" fill="#00bfbf"/>
  <path fill="#ffffff" stroke="null" id="svg_2" d="m70.013187,43.571446l-15.656126,0l0,-14.290102c0,-2.63057 -2.336677,-4.763367 -5.218709,-4.763367s-5.218709,2.132798 -5.218709,4.763367l0,14.290102l-15.656126,0c-2.882032,0 -5.218709,2.132798 -5.218709,4.763367s2.336677,4.763367 5.218709,4.763367l15.656126,0l0,14.290102c0,2.63057 2.336677,4.763367 5.218709,4.763367s5.218709,-2.132798 5.218709,-4.763367l0,-14.290102l15.656126,0c2.882032,0 5.218709,-2.132798 5.218709,-4.763367s-2.336677,-4.763367 -5.218709,-4.763367z"/>
 </g>
</svg>