<?xml version="1.0" ?><svg id="Layer_1" style="enable-background:new 0 0 132 132;" version="1.1" viewBox="0 0 132 132" xml:space="preserve" xmlns="http://www.w3.org/2000/svg" xmlns:xlink="http://www.w3.org/1999/xlink"><style type="text/css">
	.st0{fill:none;stroke:#231F20;stroke-width:2;stroke-linecap:round;stroke-linejoin:round;stroke-miterlimit:10;}
	.st1{fill:none;stroke:#231F20;stroke-width:2;stroke-miterlimit:10;}
	.st2{fill:none;stroke:#231F20;stroke-width:0.75;stroke-miterlimit:10;}
</style><g><path class="st0" d="M124,32.9868126V126c0,2.209137-1.790863,4-4,4H12c-2.2091389,0-4-1.790863-4-4V6c0-2.2091391,1.7908611-4,4-4   h81.0131302c1.0608673,0,2.0782776,0.4214263,2.8284225,1.1715698l26.9868698,26.9868126   C123.5785751,30.9085293,124,31.9259453,124,32.9868126z"/><path class="st0" d="M25.0299683,2v18.0422459c0,2.3846226,1.9331169,4.3177395,4.3177395,4.3177395h49.6145172   c2.3846207,0,4.3177414-1.9331169,4.3177414-4.3177395V2H25.0299683z"/><rect class="st0" height="13.25" width="5" x="68.6966553" y="6.5549927"/><path class="st0" d="M24.25,69.708519V130h83.5V69.708519c0-2.2635574-1.8349762-4.0985336-4.0985336-4.0985336H28.3485317   C26.0849762,65.6099854,24.25,67.4449615,24.25,69.708519z"/><g><line class="st0" x1="33.875" x2="98.125" y1="82.4474258" y2="82.4474258"/><line class="st0" x1="33.875" x2="98.125" y1="97.8049927" y2="97.8049927"/><line class="st0" x1="33.875" x2="98.125" y1="113.1625595" y2="113.1625595"/></g></g></svg>